<svg width="29" height="28" viewBox="0 0 29 28" fill="none" xmlns="http://www.w3.org/2000/svg">
<path d="M13.2917 0V3.65217H15.7083V0H13.2917ZM5.10238 3.41916L3.39372 5.14062L5.95671 7.72283L7.66536 6.00136L5.10238 3.41916ZM23.8976 3.41916L21.3346 6.00136L23.0433 7.72283L25.6063 5.14062L23.8976 3.41916ZM14.5 6.08696C9.84268 6.08696 6.04167 9.91646 6.04167 14.6087C6.04167 17.9782 8.04281 20.8201 10.875 22.1984V25.5652C10.875 26.8959 11.9709 28 13.2917 28H15.7083C17.0291 28 18.125 26.8959 18.125 25.5652V22.1984C20.9572 20.8201 22.9583 17.9782 22.9583 14.6087C22.9583 9.91646 19.1573 6.08696 14.5 6.08696ZM14.5 8.52174C17.8515 8.52174 20.5417 11.2321 20.5417 14.6087C20.5417 17.2679 18.8564 19.5061 16.5131 20.3414L15.7083 20.6267V25.5652H13.2917V20.6267L12.4869 20.3414C10.1436 19.5061 8.45833 17.2679 8.45833 14.6087C8.45833 11.2321 11.1485 8.52174 14.5 8.52174ZM0 13.3913V15.8261H3.625V13.3913H0ZM25.375 13.3913V15.8261H29V13.3913H25.375ZM5.95671 21.4946L3.39372 24.0768L5.10238 25.7982L7.66536 23.216L5.95671 21.4946ZM23.0433 21.4946L21.3346 23.216L23.8976 25.7982L25.6063 24.0768L23.0433 21.4946Z" fill="#262626"/>
</svg>
