<svg xmlns="http://www.w3.org/2000/svg" width="712" height="780" viewBox="0 0 712 780" version="1.1"><path d="M 49.031 444.956 L 46.926 447.913 43.374 455.706 L 39.823 463.499 36.479 473.500 L 33.136 483.500 30.977 494 L 28.817 504.500 29.403 524 L 29.989 543.500 30.604 551.250 L 31.219 559 32.038 559 L 32.858 559 34.388 553.738 L 35.918 548.476 46.556 526.488 L 57.195 504.500 61.703 497.706 L 66.212 490.912 76.606 479.745 L 87 468.577 87 467.868 L 87 467.159 83.750 466.456 L 80.500 465.754 75.787 463.379 L 71.074 461.004 67.370 457.752 L 63.667 454.500 63.244 455.768 L 62.821 457.036 61.339 458.518 L 59.857 460 59 460 L 58.143 460 56.571 458.429 L 55 456.857 55 450.629 L 55 444.400 53.800 443.200 L 52.600 442 51.868 442 L 51.136 442 49.031 444.956 M 142.385 452.381 L 138.270 456.552 128.744 460.276 L 119.218 464 117.535 464 L 115.853 464 116.188 465.739 L 116.523 467.477 118.511 467.846 L 120.500 468.215 121.750 469.230 L 123 470.245 122.990 473.372 L 122.980 476.500 125.207 482.840 L 127.434 489.181 131.159 491.081 L 134.884 492.982 137.344 496.241 L 139.803 499.500 141.402 503.372 L 143 507.244 143 510.935 L 143 514.626 145.750 517.260 L 148.500 519.894 152.500 521.540 L 156.500 523.186 159.250 525.780 L 162 528.374 162 518.536 L 162 508.697 159.947 492.599 L 157.894 476.500 155.364 467 L 152.834 457.500 150.667 453.051 L 148.500 448.602 147.500 448.406 L 146.500 448.210 142.385 452.381 M 101.638 467.500 L 101.063 469 99.281 469.039 L 97.500 469.078 91.831 474.289 L 86.163 479.500 77.775 489.050 L 69.387 498.601 65.786 504.550 L 62.184 510.500 60.397 514.270 L 58.611 518.039 60.805 519.576 L 63 521.113 63.096 529.807 L 63.192 538.500 64.402 543.500 L 65.612 548.500 66.806 541.918 L 68 535.336 68 532.777 L 68 530.218 69.978 525.859 L 71.956 521.500 72.013 515 L 72.070 508.500 73.362 502.500 L 74.654 496.500 75.805 494.358 L 76.955 492.216 80.117 489.555 L 83.280 486.893 84.890 487.591 L 86.500 488.288 92 489.739 L 97.500 491.190 98.450 492.095 L 99.400 493 103.950 492.978 L 108.500 492.956 111 491 L 113.500 489.044 114.750 489.022 L 116 489 115.996 483.750 L 115.993 478.500 114.029 475.280 L 112.066 472.060 107.883 469.030 L 103.700 466 102.957 466 L 102.214 466 101.638 467.500 M 69.569 565 L 70.242 567.500 71.091 569 L 71.939 570.500 71.970 568.441 L 72 566.382 70.448 564.441 L 68.896 562.500 69.569 565 M 81 599.425 L 81 600.099 82.655 603.300 L 84.310 606.500 86.405 609.343 L 88.500 612.186 92.957 615.199 L 97.414 618.212 99.593 616.856 L 101.771 615.500 105.886 611.753 L 110 608.005 110 604.003 L 110 600 98.625 600 L 87.250 600 84.125 599.375 L 81 598.750 81 599.425" stroke="none" fill="#fffa71" fill-rule="evenodd"/><path d="M 115.891 376.825 L 111.500 380.649 98.521 391.060 L 85.541 401.470 82.021 405.112 L 78.500 408.754 71.161 421.335 L 63.821 433.915 63.300 437.803 L 62.778 441.690 69.065 448.410 L 75.351 455.130 78.037 456.519 L 80.723 457.908 87.388 459.582 L 94.054 461.257 99.277 459.698 L 104.500 458.138 110.180 457.506 L 115.860 456.874 116.800 455.687 L 117.739 454.500 118.441 448 L 119.143 441.500 120.930 437.500 L 122.717 433.500 131.464 422.500 L 140.212 411.500 148.266 403.318 L 156.320 395.137 152.454 390.068 L 148.589 385 147.969 385 L 147.349 385 145 387.500 L 142.651 390 140.521 390 L 138.392 390 133.946 387.175 L 129.500 384.351 126.338 380.741 L 123.176 377.131 122.521 375.066 L 121.865 373 121.073 373 L 120.282 373 115.891 376.825" stroke="none" fill="#fffedb" fill-rule="evenodd"/><path d="M 408.500 24.681 L 406.500 25.130 393.659 28.178 L 380.817 31.226 373.682 34.796 L 366.546 38.366 356.523 45.968 L 346.500 53.571 343.254 54.905 L 340.008 56.239 335.561 55.120 L 331.114 54 318.307 54.003 L 305.500 54.006 296.598 55.563 L 287.697 57.120 280.354 59.452 L 273.012 61.784 268.070 64.955 L 263.127 68.127 259.813 73.304 L 256.500 78.482 256.630 94.168 L 256.761 109.854 258.869 116.677 L 260.976 123.500 265.120 131 L 269.264 138.500 277.632 146.651 L 286 154.802 286 158.353 L 286 161.903 281.990 174.531 L 277.980 187.159 278.488 187.981 L 278.996 188.802 277.073 195.151 L 275.150 201.500 273.476 211.500 L 271.802 221.500 271.276 245.886 L 270.750 270.273 272.020 269.488 L 273.290 268.703 272.737 271.594 L 272.185 274.484 273.634 282.992 L 275.083 291.500 276.698 296.500 L 278.313 301.500 282.656 310.875 L 287 320.250 287 322.035 L 287 323.821 292.111 335.160 L 297.222 346.500 297.861 347 L 298.500 347.500 298.809 349 L 299.118 350.500 303.309 357.932 L 307.500 365.365 312.710 371.023 L 317.920 376.680 326.710 382.072 L 335.500 387.463 345.847 392.650 L 356.193 397.837 366.347 401.128 L 376.500 404.418 377.235 405.459 L 377.969 406.500 377.985 407.781 L 378 409.063 376.250 409.645 L 374.500 410.227 363.984 415.103 L 353.468 419.978 344.984 422.006 L 336.500 424.034 327.500 426.593 L 318.500 429.153 312.216 432.231 L 305.931 435.308 301.530 439.183 L 297.129 443.057 288.370 454.278 L 279.611 465.500 272.388 476.234 L 265.166 486.968 263.989 490.734 L 262.812 494.500 259.531 499.500 L 256.251 504.500 248.976 515.926 L 241.701 527.351 233.914 544.926 L 226.127 562.500 224.314 566.258 L 222.500 570.016 220.500 569.522 L 218.500 569.027 216.367 569.014 L 214.235 569 205.712 563.250 L 197.189 557.500 188.876 550.500 L 180.564 543.500 175.427 538.742 L 170.290 533.984 169.691 519.242 L 169.091 504.500 167.074 489.222 L 165.057 473.943 162.564 464.847 L 160.071 455.750 156.983 449.150 L 153.895 442.551 151.353 439.218 L 148.811 435.885 146.155 436.193 L 143.500 436.500 141.294 440.873 L 139.088 445.245 137.294 447.252 L 135.500 449.259 131.167 451.130 L 126.834 453 126.417 453 L 126 453 126.044 449.250 L 126.088 445.500 127.351 441.969 L 128.614 438.438 136.513 428.469 L 144.413 418.500 156.456 405.763 L 168.500 393.027 169.422 390.573 L 170.344 388.119 169.050 386.560 L 167.755 385 165.937 385 L 164.118 385 163.500 386 L 162.882 387 161.056 387 L 159.230 387 157.477 384.324 L 155.723 381.648 153.216 379.324 L 150.708 377 147.931 377 L 145.153 377 142.196 379.488 L 139.240 381.976 136.370 379.762 L 133.500 377.547 132.226 376.023 L 130.952 374.500 128.497 369.824 L 126.041 365.148 124.012 364.504 L 121.983 363.860 118.031 366.180 L 114.079 368.500 97.290 382.101 L 80.500 395.701 76.421 400.143 L 72.342 404.584 65.200 416.542 L 58.057 428.500 56.957 431.675 L 55.856 434.851 52.623 434.326 L 49.389 433.801 46.334 436.373 L 43.278 438.944 38.518 448.722 L 33.758 458.500 29.437 471.500 L 25.116 484.500 23.328 493 L 21.539 501.500 21.520 517 L 21.500 532.500 22.784 548.500 L 24.068 564.500 25.603 574.206 L 27.137 583.912 28.088 587.357 L 29.039 590.801 30.520 591.369 L 32 591.937 33.423 591.391 L 34.845 590.845 35.449 589.272 L 36.053 587.698 37.514 576.599 L 38.976 565.500 40.961 558.359 L 42.947 551.218 48.973 538.972 L 55 526.727 55 531.453 L 55 536.179 58.015 549.339 L 61.030 562.500 64.171 573.341 L 67.313 584.183 68.599 584.676 L 69.886 585.170 69.015 587.460 L 68.145 589.749 70.730 593.553 L 73.314 597.356 73.542 599.436 L 73.771 601.515 75.359 605.316 L 76.946 609.116 79.100 612.141 L 81.254 615.166 87.822 620.583 L 94.389 626 96.945 625.996 L 99.500 625.993 102.808 623.976 L 106.116 621.959 112.058 616.180 L 118 610.402 118 606.201 L 118 602 119.009 602 L 120.018 602 129.759 606.103 L 139.500 610.205 148.223 614.163 L 156.945 618.121 171.723 626.222 L 186.500 634.323 194 638.447 L 201.500 642.571 209.294 647.845 L 217.088 653.120 224.266 656.560 L 231.444 660 234.856 660 L 238.268 660 242.134 658.842 L 246 657.683 246 656.978 L 246 656.273 252.045 653.560 L 258.091 650.847 262.566 645.174 L 267.042 639.500 271.961 629.500 L 276.880 619.500 280.499 608.616 L 284.118 597.732 289.572 586.856 L 295.026 575.981 302.181 565.299 L 309.335 554.618 312.945 558.809 L 316.555 563 318.731 563 L 320.907 563 322.505 560.750 L 324.104 558.500 333.626 544 L 343.149 529.500 345.109 527.500 L 347.069 525.500 342.949 535.371 L 338.828 545.242 331.924 573.094 L 325.019 600.947 323.528 609.501 L 322.036 618.056 320.067 637.278 L 318.097 656.500 317.009 669.822 L 315.922 683.145 313.517 690.822 L 311.112 698.500 310.421 710.638 L 309.730 722.777 312.115 724.321 L 314.500 725.866 328.500 726.892 L 342.500 727.918 358.500 728.506 L 374.500 729.094 385.500 730.037 L 396.500 730.980 418 734.650 L 439.500 738.320 459 738.403 L 478.500 738.486 505.500 737.993 L 532.500 737.500 533.500 738.153 L 534.500 738.807 533.912 749.153 L 533.325 759.500 534.230 761.311 L 535.135 763.121 537.318 762.811 L 539.500 762.500 540.234 759 L 540.968 755.500 541.569 747.750 L 542.171 740 545.478 740 L 548.786 740 549.396 738.410 L 550.006 736.820 549.381 735.808 L 548.756 734.796 545.225 733.321 L 541.694 731.845 542.368 701.173 L 543.043 670.500 543.970 654 L 544.898 637.500 544.949 599.769 L 545 562.038 547.250 561.580 L 549.500 561.122 588.803 560.631 L 628.107 560.141 629.012 562.320 L 629.917 564.500 630.959 571.692 L 632 578.883 631.985 623.192 L 631.969 667.500 631.015 682 L 630.061 696.500 629.520 716.147 L 628.978 735.794 627.965 740.647 L 626.953 745.500 626.071 755.414 L 625.188 765.328 625.701 766.664 L 626.214 768 628.632 768 L 631.050 768 632.025 765.435 L 633 762.870 633 757.476 L 633 752.082 633.959 744.791 L 634.918 737.500 636.020 728.500 L 637.122 719.500 637.677 650 L 638.233 580.500 637.049 569.514 L 635.865 558.529 632.543 549.014 L 629.222 539.500 622.104 525.117 L 614.986 510.734 610.266 504.117 L 605.547 497.500 595.388 486 L 585.230 474.500 572.865 462.443 L 560.500 450.386 550 442.235 L 539.500 434.083 532.500 427.570 L 525.500 421.056 524.250 421.028 L 523 421 523 420 L 523 419 529.606 419 L 536.211 419 542.356 417.402 L 548.500 415.803 551.169 415.459 L 553.839 415.115 559.042 412.479 L 564.245 409.842 569.373 406.253 L 574.500 402.664 584.500 395.159 L 594.500 387.655 604.993 379.077 L 615.487 370.500 626.732 359 L 637.978 347.500 638.630 345.117 L 639.283 342.735 642.965 336.679 L 646.648 330.623 651.128 329.062 L 655.609 327.500 661.132 324.339 L 666.655 321.178 671.183 316.142 L 675.710 311.106 678.960 303.303 L 682.209 295.500 682.740 288.187 L 683.271 280.875 681.967 278.439 L 680.664 276.003 681.297 275.370 L 681.930 274.737 680.949 272.905 L 679.969 271.073 681.518 260.287 L 683.068 249.500 684.534 242.222 L 686 234.943 686 224.028 L 686 213.113 688.140 211.614 L 690.280 210.115 691.111 204.862 L 691.941 199.608 691.416 199.083 L 690.891 198.558 689.962 200.029 L 689.033 201.500 688.645 202.500 L 688.257 203.500 686.408 202.410 L 684.559 201.319 680.963 191.910 L 677.368 182.500 664.641 158 L 651.915 133.500 645.370 124.320 L 638.826 115.139 633.727 110.320 L 628.628 105.500 612.564 89.107 L 596.500 72.715 588 65.549 L 579.500 58.383 571.500 52.376 L 563.500 46.369 555 41.302 L 546.500 36.234 542.256 34.100 L 538.012 31.965 529.756 30.017 L 521.500 28.070 509 27.053 L 496.500 26.036 489 25.049 L 481.500 24.062 446 24.147 L 410.500 24.232 408.500 24.681 M 407.500 32.188 L 403.500 33.169 393.022 35.620 L 382.545 38.071 374.319 42.688 L 366.094 47.305 359.980 52.252 L 353.866 57.199 354.394 57.727 L 354.922 58.255 359.792 53.878 L 364.662 49.500 374.081 44.304 L 383.500 39.109 392.500 36.991 L 401.500 34.873 407.706 33.437 L 413.911 32 444.712 32 L 475.512 32 488.006 33.441 L 500.500 34.883 510.500 35.572 L 520.500 36.262 527.787 38.099 L 535.073 39.937 543.097 44.111 L 551.120 48.286 559.148 53.659 L 567.176 59.032 577.338 67.424 L 587.500 75.816 603.191 91.658 L 618.883 107.500 621.030 110.270 L 623.177 113.040 626.005 114.503 L 628.834 115.965 635.742 125.233 L 642.651 134.500 646.219 140.500 L 649.787 146.500 658.132 163 L 666.476 179.500 666.854 180.347 L 667.231 181.194 664.866 179.987 L 662.500 178.781 666 181.793 L 669.500 184.805 669.791 184.528 L 670.082 184.251 659.909 164.376 L 649.736 144.500 646.162 138.500 L 642.587 132.500 638.514 127 L 634.440 121.500 611.970 98.910 L 589.500 76.319 582.500 70.310 L 575.500 64.301 568.526 58.954 L 561.552 53.608 550.049 46.774 L 538.546 39.940 532.023 37.912 L 525.500 35.885 510.500 34.489 L 495.500 33.093 486.500 32.055 L 477.500 31.016 444.500 31.112 L 411.500 31.207 407.500 32.188 M 352 58.683 L 352 59.580 372.750 64.740 L 393.500 69.899 410 74.537 L 426.500 79.174 444 84.677 L 461.500 90.179 472.500 94.710 L 483.500 99.240 496 103.233 L 508.500 107.225 529.500 117.183 L 550.500 127.140 570 135.156 L 589.500 143.172 600 146.716 L 610.500 150.260 619.500 154.213 L 628.500 158.167 631.833 158.997 L 635.165 159.827 640.833 163.560 L 646.500 167.293 653 172.333 L 659.500 177.373 660.942 178.437 L 662.384 179.500 661.663 178.298 L 660.942 177.096 651.721 170.231 L 642.500 163.366 639.439 161.250 L 636.378 159.133 633.439 158.430 L 630.500 157.726 624.056 154.753 L 617.612 151.780 602.556 146.444 L 587.500 141.108 569.500 133.708 L 551.500 126.308 538.786 120.169 L 526.072 114.029 518.286 110.418 L 510.500 106.807 496 102.012 L 481.500 97.217 471.546 93.072 L 461.592 88.927 444.546 83.589 L 427.500 78.251 416.500 75.152 L 405.500 72.053 391 68.112 L 376.500 64.172 366 61.660 L 355.500 59.149 353.750 58.467 L 352 57.786 352 58.683 M 297.696 62.558 L 289.893 63.871 282.084 66.472 L 274.275 69.073 270.267 72.503 L 266.259 75.934 264.560 79.514 L 262.861 83.094 263.498 94.797 L 264.136 106.500 265.164 112 L 266.192 117.500 270.346 125.467 L 274.500 133.434 284.647 143.467 L 294.793 153.500 299.147 154.825 L 303.500 156.150 310.688 159.020 L 317.875 161.890 330.188 164.541 L 342.500 167.193 371 174.044 L 399.500 180.895 407 181.936 L 414.500 182.977 433 185.003 L 451.500 187.030 454 187.511 L 456.500 187.993 472.500 190.042 L 488.500 192.092 514.500 192.977 L 540.500 193.862 550.500 196.402 L 560.500 198.942 566.500 200.064 L 572.500 201.185 605 202.028 L 637.500 202.870 646 204.493 L 654.500 206.115 666.750 206.703 L 679 207.291 679 204.952 L 679 202.613 673.674 197.454 L 668.348 192.295 660.924 187.248 L 653.500 182.200 646.500 176.573 L 639.500 170.946 635.500 169.083 L 631.500 167.221 622.500 163.155 L 613.500 159.088 598 153.593 L 582.500 148.098 564.500 140.717 L 546.500 133.337 540.075 130.066 L 533.649 126.794 520.575 120.772 L 507.500 114.749 492 109.484 L 476.500 104.219 465.481 99.742 L 454.462 95.265 435.981 89.666 L 417.500 84.068 404.500 80.461 L 391.500 76.855 360.071 68.927 L 328.643 61 317.071 61.122 L 305.500 61.244 297.696 62.558 M 298.666 63.536 L 290.833 64.881 284.166 67.015 L 277.500 69.150 273.315 71.579 L 269.131 74.008 266.815 77.254 L 264.500 80.500 264.784 94.170 L 265.068 107.840 266.585 113.666 L 268.102 119.491 271.708 125.996 L 275.313 132.500 284.844 142.250 L 294.374 152 296.531 152 L 298.687 152 304.093 153.946 L 309.500 155.892 316 158.331 L 322.500 160.770 335.500 163.452 L 348.500 166.134 374.500 172.551 L 400.500 178.968 430.500 182.485 L 460.500 186.002 476 188.042 L 491.500 190.082 517 190.969 L 542.500 191.857 550.500 193.994 L 558.500 196.132 565 197.092 L 571.500 198.053 573.500 198.963 L 575.500 199.872 608.500 200.386 L 641.500 200.900 648.614 202.374 L 655.727 203.848 666.364 204.560 L 677 205.273 677 204.358 L 677 203.442 670.750 197.357 L 664.500 191.271 650.500 180.815 L 636.500 170.359 624 165.037 L 611.500 159.715 597.954 154.950 L 584.407 150.184 572.454 145.215 L 560.500 140.246 558 139.487 L 555.500 138.727 545 133.751 L 534.500 128.775 525 124.276 L 515.500 119.778 510 117.327 L 504.500 114.877 492.347 110.917 L 480.193 106.957 469.347 102.413 L 458.500 97.868 444 93.373 L 429.500 88.877 419 85.869 L 408.500 82.860 397.500 79.825 L 386.500 76.790 359 69.691 L 331.500 62.592 319 62.391 L 306.500 62.191 298.666 63.536 M 293.750 159.689 L 292 160.147 292 161.391 L 292 162.636 287.494 176.910 L 282.988 191.184 280.376 206.842 L 277.765 222.500 277.258 242.678 L 276.751 262.855 278.420 274.390 L 280.090 285.924 281.594 291.701 L 283.099 297.477 287.682 306.989 L 292.264 316.500 293.020 320.500 L 293.776 324.500 299.793 337.678 L 305.810 350.856 310.413 357.972 L 315.016 365.088 319.258 369.060 L 323.500 373.032 331.495 377.961 L 339.490 382.889 341.559 380.944 L 343.629 379 346.298 379 L 348.966 379 351.500 384 L 354.034 389 357.063 389 L 360.092 389 364.788 386.500 L 369.484 384 371.669 384 L 373.855 384 375.861 386.550 L 377.867 389.100 378.231 390.194 L 378.596 391.288 383.769 389.963 L 388.941 388.637 390.721 390.211 L 392.500 391.786 399.867 392.182 L 407.234 392.579 409.867 395.625 L 412.500 398.672 413.500 400.395 L 414.500 402.119 418.218 400.559 L 421.936 399 424.909 399 L 427.882 399 428.506 400.010 L 429.130 401.019 437.598 400.760 L 446.066 400.500 449.354 404.407 L 452.641 408.314 462.070 407.435 L 471.500 406.555 479 406.763 L 486.500 406.970 493.500 407.163 L 500.500 407.356 504.289 406.088 L 508.077 404.819 509.551 406.042 L 511.025 407.265 509.963 408.545 L 508.901 409.824 504.200 410.947 L 499.500 412.069 495 412.178 L 490.500 412.287 481 411.581 L 471.500 410.875 473.500 412.187 L 475.500 413.500 508 413.500 L 540.500 413.500 549.203 410.173 L 557.906 406.845 566.703 400.465 L 575.500 394.085 583.579 388.211 L 591.659 382.337 603.210 372.721 L 614.760 363.104 623.077 354.036 L 631.393 344.968 635.176 338.234 L 638.959 331.500 638.979 330.750 L 639 330 633.969 330 L 628.937 330 628.345 328.457 L 627.753 326.914 628.458 326.209 L 629.162 325.504 636.941 325.302 L 644.719 325.099 649.891 323.134 L 655.062 321.168 660.015 317.990 L 664.967 314.812 668.306 310.156 L 671.646 305.500 673.918 300 L 676.190 294.500 676.730 288.277 L 677.269 282.054 675.135 277.092 L 673 272.129 673 270.192 L 673 268.255 668.590 264.190 L 664.180 260.125 659.123 257.563 L 654.066 255 651.233 255 L 648.400 255 647.224 253.824 L 646.048 252.648 647.146 251.324 L 648.245 250 650.872 250.001 L 653.500 250.002 659.975 253.065 L 666.450 256.128 670.780 259.676 L 675.110 263.224 675.651 262.683 L 676.191 262.142 678.172 254.821 L 680.153 247.500 680.716 232.374 L 681.279 217.247 680.659 214.776 L 680.039 212.306 667.769 211.689 L 655.500 211.071 647 209.415 L 638.500 207.759 605.683 207.379 L 572.866 206.998 571.012 206.006 L 569.158 205.014 562.829 204.040 L 556.500 203.066 549 200.957 L 541.500 198.848 515.500 197.949 L 489.500 197.051 474.500 195.102 L 459.500 193.154 447 191.588 L 434.500 190.022 416.516 187.923 L 398.533 185.823 374.973 179.973 L 351.413 174.122 334.928 170.577 L 318.443 167.032 307.786 163.016 L 297.129 159 296.314 159.116 L 295.500 159.232 293.750 159.689 M 353.733 190.960 L 349.967 191.691 344.606 195.383 L 339.246 199.074 333.136 205.437 L 327.027 211.799 325.988 214.531 L 324.949 217.264 325.542 219.132 L 326.135 221 327.490 221 L 328.845 221 330.052 217.343 L 331.258 213.687 337.451 207.593 L 343.644 201.500 347.903 198.558 L 352.162 195.616 357.831 195.216 L 363.500 194.817 369.168 196.950 L 374.835 199.082 378.973 202.791 L 383.110 206.500 386.859 213.935 L 390.609 221.370 391.804 221.768 L 392.999 222.166 393.627 220.530 L 394.255 218.894 391.531 212.485 L 388.807 206.075 384.002 201.194 L 379.197 196.313 374.640 194.171 L 370.083 192.029 365.791 191.039 L 361.500 190.049 359.500 190.139 L 357.500 190.230 353.733 190.960 M 507.326 212.044 L 503.153 212.870 499.826 214.573 L 496.500 216.277 489.250 223.618 L 482 230.960 482 233.421 L 482 235.882 482.920 236.451 L 483.840 237.019 485.981 234.260 L 488.122 231.500 493.141 226.300 L 498.159 221.100 503.276 218.550 L 508.393 216 515.546 216 L 522.700 216 526.636 218.851 L 530.572 221.702 533.268 224.907 L 535.964 228.111 539.482 239.221 L 543 250.330 543 252.197 L 543 254.063 544.567 254.664 L 546.134 255.266 547.245 254.155 L 548.355 253.045 545.553 243.013 L 542.751 232.981 539.997 227.157 L 537.242 221.332 532.794 217.687 L 528.346 214.042 524.705 212.521 L 521.064 211 516.282 211.110 L 511.500 211.219 507.326 212.044 M 430.439 242.804 L 426.903 246.743 419.453 256.121 L 412.004 265.500 412.008 266.500 L 412.013 267.500 413.757 270.141 L 415.500 272.782 420.767 278.440 L 426.034 284.097 427.017 283.490 L 428 282.882 428 281.141 L 428 279.399 423 273.789 L 418 268.179 418 266.902 L 418 265.624 422.701 259.562 L 427.402 253.500 431.701 248.642 L 436 243.784 436 241.951 L 436 240.118 434.987 239.492 L 433.974 238.866 430.439 242.804 M 367.901 283.106 L 365 286.212 365 287.637 L 365 289.063 366.644 289.694 L 368.288 290.325 370.227 287.662 L 372.167 285 374.119 285 L 376.070 285 378.785 286.685 L 381.500 288.369 383.555 290.176 L 385.611 291.983 389.555 291.879 L 393.500 291.775 398.463 292.897 L 403.425 294.019 405.334 292.110 L 407.243 290.202 406.637 289.222 L 406.032 288.243 399.766 287.592 L 393.500 286.940 390 286.660 L 386.500 286.379 381.855 283.189 L 377.210 280 374.006 280 L 370.802 280 367.901 283.106 M 441.693 287.700 L 439.886 288.169 440.204 289.823 L 440.523 291.477 442.438 291.846 L 444.353 292.215 446.076 294.342 L 447.798 296.469 452.149 295.332 L 456.500 294.195 462 294.715 L 467.500 295.234 470 297.503 L 472.500 299.772 475.700 301.386 L 478.901 303 480.450 303 L 482 303 482 301.523 L 482 300.046 479.250 298.343 L 476.500 296.640 473.367 293.738 L 470.235 290.835 463.551 290.006 L 456.868 289.178 453.801 290.057 L 450.735 290.936 448.232 288.968 L 445.730 287 444.615 287.116 L 443.500 287.232 441.693 287.700 M 368.492 297.013 L 367.866 298.026 372.172 301.763 L 376.479 305.500 380.239 309.132 L 384 312.765 384 315.823 L 384 318.882 382.929 319.544 L 381.859 320.205 382.502 324.012 L 383.145 327.819 381.600 330.807 L 380.055 333.795 375.712 335.898 L 371.369 338 367.934 337.996 L 364.500 337.993 361.226 335.996 L 357.952 334 356.476 334 L 355 334 355 335.326 L 355 336.651 357.250 338.759 L 359.500 340.867 362.315 341.933 L 365.130 343 367.699 343 L 370.268 343 374.193 341.824 L 378.118 340.648 382.623 336.683 L 387.127 332.718 390.814 336.300 L 394.500 339.881 397.500 341.064 L 400.500 342.247 412.500 344.585 L 424.500 346.924 431.775 346.962 L 439.050 347 444.275 345.115 L 449.500 343.229 451.177 342.536 L 452.854 341.842 453.544 346.443 L 454.234 351.044 458.340 354.559 L 462.446 358.074 464.721 358.645 L 466.996 359.216 468.610 358.596 L 470.225 357.976 469.028 356.533 L 467.830 355.091 463.425 352.509 L 459.020 349.927 458.390 347.416 L 457.759 344.906 458.408 340.703 L 459.056 336.500 460.547 331.934 L 462.038 327.369 466.829 322.184 L 471.621 317 474.060 316.985 L 476.500 316.969 477.936 316.061 L 479.371 315.152 478.063 313.576 L 476.755 312 474.328 312 L 471.901 312 469.200 313.401 L 466.500 314.802 462.238 320.050 L 457.976 325.298 456.238 330.253 L 454.500 335.207 448.500 338.279 L 442.500 341.352 433.809 341.795 L 425.117 342.239 413.309 340.009 L 401.500 337.779 397.784 335.887 L 394.068 333.994 391.534 330.265 L 389 326.536 389 320.236 L 389 313.936 387.650 310.704 L 386.299 307.472 379.288 301.736 L 372.277 296 370.698 296 L 369.118 296 368.492 297.013 M 115 377.097 L 110.500 381.110 102 387.734 L 93.500 394.359 86.492 400.553 L 79.483 406.747 71.611 419.941 L 63.739 433.135 63.241 437.559 L 62.742 441.982 67.521 447.576 L 72.300 453.170 75.900 455.530 L 79.500 457.889 86.861 459.911 L 94.222 461.934 97.861 460.412 L 101.500 458.890 108.951 457.944 L 116.402 456.998 117.079 456.249 L 117.756 455.500 118.909 447.502 L 120.062 439.503 121.781 436.261 L 123.500 433.019 131.838 422.546 L 140.177 412.073 148.088 404.032 L 156 395.992 155.970 394.746 L 155.940 393.500 152.098 389.054 L 148.255 384.608 144.969 387.373 L 141.683 390.137 139.188 389.511 L 136.693 388.885 132.222 385.809 L 127.751 382.733 124.726 377.866 L 121.701 373 120.601 373.043 L 119.500 373.085 115 377.097 M 368.223 390.557 L 366 392.113 366 392.907 L 366 393.700 372.250 396.289 L 378.500 398.878 383.186 400.405 L 387.872 401.933 398.519 404.050 L 409.166 406.167 409.611 405.722 L 410.056 405.277 409.112 402.794 L 408.167 400.310 406.512 398.655 L 404.857 397 398.333 397 L 391.809 397 388.965 395.321 L 386.122 393.641 382.115 395.448 L 378.108 397.255 376.509 396.642 L 374.910 396.028 373.441 392.514 L 371.973 389 371.209 389 L 370.445 389 368.223 390.557 M 419 405.450 L 416.500 406.929 417.081 406.965 L 417.661 407 428.581 408.985 L 439.500 410.970 443.250 410.985 L 447 411 447 410.191 L 447 409.382 445.571 407.441 L 444.143 405.500 436.321 405.440 L 428.500 405.380 425 404.676 L 421.500 403.971 419 405.450 M 384 407.151 L 384 408.536 386.632 412.518 L 389.263 416.500 394.382 421.876 L 399.500 427.251 407.652 431.072 L 415.803 434.892 430.936 439.946 L 446.069 445 453.358 445 L 460.646 445 473.573 442.468 L 486.500 439.937 493 436.718 L 499.500 433.500 504.673 427.030 L 509.847 420.561 509.364 419.780 L 508.882 419 494.691 418.976 L 480.500 418.952 476.500 417.943 L 472.500 416.934 456.763 416.503 L 441.027 416.072 428.263 413.951 L 415.500 411.830 402 409.424 L 388.500 407.018 386.250 406.392 L 384 405.767 384 407.151 M 373 418.605 L 366.500 421.994 359.179 425.056 L 351.858 428.117 342.220 430.160 L 332.582 432.204 324.144 435.182 L 315.707 438.160 311.603 440.701 L 307.500 443.241 304.638 445.871 L 301.777 448.500 296.266 456 L 290.755 463.500 286.547 468 L 282.338 472.500 278.480 478 L 274.622 483.500 272.311 486.890 L 270 490.279 270 492.393 L 270 494.506 273.582 499.503 L 277.165 504.500 279.230 508.500 L 281.296 512.500 290.449 522 L 299.602 531.500 305.535 538.990 L 311.469 546.481 315.126 550.249 L 318.782 554.017 323.571 546.258 L 328.359 538.500 332.905 532 L 337.452 525.500 343.778 517 L 350.105 508.500 351.977 506.250 L 353.849 504 356.889 504 L 359.930 504 360.989 505.979 L 362.048 507.959 361.361 510.700 L 360.673 513.440 354.739 526.470 L 348.804 539.500 346.946 544.500 L 345.088 549.500 338.595 576 L 332.102 602.500 331.065 608.500 L 330.027 614.500 327.988 632 L 325.949 649.500 324.520 666.500 L 323.091 683.500 320.694 691.500 L 318.297 699.500 317.663 708.700 L 317.029 717.900 318.028 718.518 L 319.028 719.135 335.264 720.029 L 351.500 720.923 372 721.996 L 392.500 723.070 417 727.097 L 441.500 731.125 488.122 730.813 L 534.744 730.500 535.372 723.099 L 536 715.698 536.035 700.599 L 536.071 685.500 537.580 676.500 L 539.088 667.500 539.621 616 L 540.153 564.500 539.273 557.500 L 538.392 550.500 537.748 605 L 537.104 659.500 536.122 670 L 535.141 680.500 534.452 705 L 533.764 729.500 488.132 729.819 L 442.500 730.137 418 726.128 L 393.500 722.119 376.500 721.093 L 359.500 720.068 345.500 719.518 L 331.500 718.968 324.807 718.360 L 318.115 717.753 318.702 709.126 L 319.289 700.500 320.554 696 L 321.818 691.500 323.314 686 L 324.809 680.500 325.411 670 L 326.013 659.500 327.072 650 L 328.132 640.500 330.119 624 L 332.106 607.500 336.108 591 L 340.111 574.500 343.171 562 L 346.231 549.500 348.143 544.500 L 350.055 539.500 350.988 537.500 L 351.921 535.500 357.009 524.534 L 362.098 513.567 362.651 509.531 L 363.204 505.495 361.111 503.600 L 359.017 501.706 355.767 502.638 L 352.516 503.570 343.866 515.123 L 335.216 526.675 327.858 537.742 L 320.500 548.809 319.444 550.570 L 318.389 552.331 310.970 542.415 L 303.551 532.500 293.940 522.500 L 284.329 512.500 281.155 507 L 277.981 501.500 274.889 497.357 L 271.797 493.214 272.404 491.357 L 273.010 489.500 281.255 477.833 L 289.500 466.166 295.073 458.833 L 300.646 451.500 304.860 447.369 L 309.075 443.239 314.787 440.220 L 320.500 437.201 331.393 434.101 L 342.286 431 343.745 431 L 345.205 431 353.871 428.097 L 362.538 425.193 371.769 420.667 L 381 416.140 381 417.051 L 381 417.963 387.682 425.046 L 394.364 432.129 398.432 434.469 L 402.500 436.809 414.500 441.518 L 426.500 446.227 435.873 449.114 L 445.246 452 453.873 451.978 L 462.500 451.957 476.612 449.100 L 490.725 446.244 496.112 443.550 L 501.500 440.857 504.319 438.178 L 507.138 435.500 511.190 430.250 L 515.243 425 516.372 425.019 L 517.500 425.037 528 434.660 L 538.500 444.283 541.619 446.391 L 544.738 448.500 550.119 452.825 L 555.500 457.151 568.370 469.825 L 581.240 482.500 589.708 491.944 L 598.176 501.388 602.600 507.588 L 607.025 513.788 614.020 527.259 L 621.015 540.730 623.010 546.529 L 625.005 552.328 624.572 552.761 L 624.140 553.194 585.570 553.749 L 547 554.305 547 540.224 L 547 526.143 545.429 524.571 L 543.857 523 542.129 523 L 540.400 523 539.200 524.200 L 538 525.400 538.201 537.450 L 538.402 549.500 538.951 537.500 L 539.500 525.500 542.215 525.187 L 544.930 524.874 545.566 527.408 L 546.202 529.942 545.851 542.972 L 545.500 556.001 573.500 556.012 L 601.500 556.023 613.750 554.847 L 626 553.670 626 552.992 L 626 552.313 624.069 546.701 L 622.138 541.089 614.520 526.168 L 606.902 511.247 598.581 500.873 L 590.261 490.500 577.061 476.778 L 563.861 463.057 555.828 456.357 L 547.796 449.657 540.332 443.934 L 532.868 438.211 524.366 430.045 L 515.865 421.878 515.059 422.189 L 514.252 422.500 508.188 430.157 L 502.124 437.814 495.687 440.983 L 489.250 444.151 474.453 447.076 L 459.657 450 453.491 450 L 447.326 450 437.913 447.168 L 428.500 444.335 419 440.747 L 409.500 437.159 403.575 434.515 L 397.650 431.870 392.608 427.338 L 387.567 422.805 384.697 418.903 L 381.827 415 380.663 415.108 L 379.500 415.215 373 418.605 M 49.699 443.780 L 48.088 445.560 43.702 455.030 L 39.315 464.500 36.701 472.500 L 34.088 480.500 31.823 489 L 29.558 497.500 29.529 518.500 L 29.500 539.500 30.400 549.284 L 31.300 559.067 32.078 559.548 L 32.856 560.029 33.368 558.265 L 33.881 556.500 34.956 552.337 L 36.030 548.174 46.975 525.837 L 57.920 503.500 61.892 497.500 L 65.864 491.500 76.432 480.050 L 87 468.600 87 467.958 L 87 467.317 82.750 466.047 L 78.500 464.777 74.705 462.845 L 70.910 460.913 67.067 457.442 L 63.224 453.970 62.621 456.375 L 62.017 458.779 60.509 459.358 L 59 459.937 57.599 459.399 L 56.197 458.862 55.612 456.681 L 55.027 454.500 55.014 449.450 L 55 444.400 53.800 443.200 L 52.600 442 51.955 442 L 51.310 442 49.699 443.780 M 142.794 451.762 L 138.087 456.500 129.794 459.702 L 121.500 462.904 118.750 463.561 L 116 464.217 116 465.640 L 116 467.063 117.750 467.604 L 119.500 468.144 121 468.929 L 122.500 469.713 123.139 474.607 L 123.777 479.500 125.942 485.199 L 128.106 490.899 129.970 491.491 L 131.835 492.082 134.451 494.140 L 137.066 496.197 139.407 500.849 L 141.747 505.500 142.298 510.751 L 142.849 516.002 146.052 518.751 L 149.255 521.500 155.372 525.158 L 161.489 528.816 162.191 528.382 L 162.893 527.948 162.381 518.224 L 161.868 508.500 159.904 492.406 L 157.939 476.311 155.425 466.906 L 152.911 457.500 150.511 452.250 L 148.111 447 147.805 447.012 L 147.500 447.023 142.794 451.762 M 102 466.902 L 102 467.804 98.971 468.860 L 95.942 469.916 84.928 481.118 L 73.914 492.319 68.550 500.410 L 63.185 508.500 60.959 513.116 L 58.732 517.732 60.866 519.866 L 63 522 63 530.057 L 63 538.114 64.136 542.807 L 65.272 547.500 66.136 548.450 L 67 549.400 67.015 545.950 L 67.030 542.500 68.515 536.200 L 70 529.901 71.646 526.717 L 73.293 523.534 73.396 513.517 L 73.500 503.500 75.894 498.201 L 78.288 492.902 81.095 491.451 L 83.901 490 87.700 490.044 L 91.500 490.088 95.252 491.427 L 99.004 492.766 102.568 495.484 L 106.131 498.202 106.368 497.851 L 106.605 497.500 108.312 494.771 L 110.019 492.042 113.009 490.495 L 116 488.949 116 483.909 L 116 478.869 114.878 476.684 L 113.756 474.500 111.128 471.661 L 108.500 468.821 105.800 467.411 L 103.099 466 102.550 466 L 102 466 102 466.902 M 113.655 495.829 L 112 497.657 112 499.638 L 112 501.618 110.556 503.559 L 109.113 505.500 106.647 504 L 104.181 502.500 99.341 499.012 L 94.500 495.524 88.500 495.512 L 82.500 495.500 80.719 499.143 L 78.938 502.785 77.832 509.061 L 76.727 515.337 78.512 518.651 L 80.296 521.965 77.717 525.733 L 75.138 529.500 73.595 535.543 L 72.052 541.586 71.427 548.543 L 70.801 555.500 73.151 558.925 L 75.500 562.350 78.500 564.006 L 81.500 565.663 81.500 567.081 L 81.500 568.500 79.268 569.479 L 77.036 570.459 76.018 573.379 L 75 576.298 75 583.593 L 75 590.887 77.223 592.443 L 79.445 594 95.973 594.024 L 112.500 594.049 116.794 595.039 L 121.089 596.030 130.794 600.116 L 140.500 604.201 148.090 607.421 L 155.681 610.642 176.590 621.980 L 197.500 633.318 210.593 641.627 L 223.687 649.937 228.593 652.054 L 233.500 654.172 237.134 653.697 L 240.769 653.221 246.134 650.539 L 251.500 647.857 254.350 645.178 L 257.200 642.500 260.201 638.173 L 263.202 633.846 267.695 623.173 L 272.187 612.500 276.447 601.500 L 280.708 590.500 284.296 583.390 L 287.884 576.280 296.459 563.177 L 305.034 550.075 305.566 548.689 L 306.098 547.303 301.367 541.402 L 296.637 535.500 287.551 526 L 278.465 516.500 274.288 509.418 L 270.111 502.337 268.524 501.020 L 266.937 499.703 265.478 501.602 L 264.019 503.500 261.155 508 L 258.291 512.500 252.604 521.611 L 246.917 530.721 241.097 544.111 L 235.278 557.500 231.664 564.676 L 228.049 571.852 225.802 573.426 L 223.555 575 218.947 575 L 214.339 575 209.919 572.665 L 205.500 570.330 199.036 566.415 L 192.572 562.500 187.944 558 L 183.316 553.500 172.482 544.092 L 161.649 534.684 153.574 529.728 L 145.500 524.772 141.750 521.183 L 138 517.594 138 513.265 L 138 508.936 136.447 505.218 L 134.894 501.500 132.254 498.744 L 129.614 495.987 126.057 494.999 L 122.500 494.011 118.905 494.006 L 115.310 494 113.655 495.829 M 69.076 563.250 L 69.152 564.500 70.422 568 L 71.693 571.500 72.399 569.296 L 73.106 567.091 71.438 564.546 L 69.770 562 69.385 562 L 69 562 69.076 563.250 M 81 599.453 L 81 599.906 82.216 602.703 L 83.432 605.500 85.889 608.821 L 88.345 612.141 92.765 615.182 L 97.185 618.223 99.001 617.362 L 100.817 616.500 105.408 612.229 L 110 607.959 110 603.479 L 110 599 95.500 599 L 81 599 81 599.453" stroke="none" fill="#3e3e3d" fill-rule="evenodd"/><path d="M 294.342 152.676 L 295.018 153.351 303.259 156.311 L 311.500 159.271 316.500 161.049 L 321.500 162.826 336.500 165.991 L 351.500 169.156 373 174.506 L 394.500 179.856 400.500 180.921 L 406.500 181.986 429 184.510 L 451.500 187.034 454 187.513 L 456.500 187.993 472.500 190.042 L 488.500 192.092 514.500 192.977 L 540.500 193.862 550.500 196.402 L 560.500 198.942 566.500 200.064 L 572.500 201.185 605 202.028 L 637.500 202.870 646 204.493 L 654.500 206.115 666.750 206.703 L 679 207.291 679 204.952 L 679 202.613 673.700 197.480 L 668.400 192.346 662.450 188.347 L 656.500 184.348 655.250 183.615 L 654 182.882 654 183.271 L 654 183.661 658.750 187.031 L 663.500 190.401 670.250 196.864 L 677 203.328 677 204.301 L 677 205.273 666.364 204.560 L 655.727 203.848 648.614 202.374 L 641.500 200.900 608.500 200.386 L 575.500 199.872 573.500 198.963 L 571.500 198.053 565 197.092 L 558.500 196.132 550.500 193.994 L 542.500 191.857 517 190.969 L 491.500 190.082 476 188.042 L 460.500 186.002 430.500 182.485 L 400.500 178.968 374.500 172.551 L 348.500 166.134 335.500 163.452 L 322.500 160.770 316 158.331 L 309.500 155.892 304.093 153.946 L 298.687 152 296.177 152 L 293.667 152 294.342 152.676 M 293.750 159.689 L 292 160.147 292 161.391 L 292 162.636 287.494 176.910 L 282.988 191.184 280.376 206.842 L 277.765 222.500 277.258 242.678 L 276.751 262.855 278.420 274.390 L 280.090 285.924 281.594 291.701 L 283.099 297.477 287.682 306.989 L 292.264 316.500 293.020 320.500 L 293.776 324.500 299.793 337.678 L 305.810 350.856 310.413 357.972 L 315.016 365.088 319.258 369.060 L 323.500 373.032 331.495 377.961 L 339.490 382.889 341.559 380.944 L 343.629 379 346.298 379 L 348.966 379 351.500 384 L 354.034 389 357.063 389 L 360.092 389 364.788 386.500 L 369.484 384 371.669 384 L 373.855 384 375.861 386.550 L 377.867 389.100 378.231 390.194 L 378.596 391.288 383.769 389.963 L 388.941 388.637 390.721 390.211 L 392.500 391.786 399.867 392.182 L 407.234 392.579 409.867 395.625 L 412.500 398.672 413.500 400.395 L 414.500 402.119 418.218 400.559 L 421.936 399 424.909 399 L 427.882 399 428.506 400.010 L 429.130 401.019 437.598 400.760 L 446.066 400.500 449.354 404.407 L 452.641 408.314 462.070 407.435 L 471.500 406.555 479 406.763 L 486.500 406.970 493.500 407.163 L 500.500 407.356 504.289 406.088 L 508.077 404.819 509.551 406.042 L 511.025 407.265 509.963 408.545 L 508.901 409.824 504.200 410.947 L 499.500 412.069 495 412.178 L 490.500 412.287 481 411.581 L 471.500 410.875 473.500 412.187 L 475.500 413.500 508 413.500 L 540.500 413.500 549.203 410.173 L 557.906 406.845 566.703 400.465 L 575.500 394.085 583.579 388.211 L 591.659 382.337 603.210 372.721 L 614.760 363.104 623.077 354.036 L 631.393 344.968 635.176 338.234 L 638.959 331.500 638.979 330.750 L 639 330 633.969 330 L 628.937 330 628.345 328.457 L 627.753 326.914 628.458 326.209 L 629.162 325.504 636.941 325.302 L 644.719 325.099 649.891 323.134 L 655.062 321.168 660.015 317.990 L 664.967 314.812 668.306 310.156 L 671.646 305.500 673.918 300 L 676.190 294.500 676.730 288.277 L 677.269 282.054 675.135 277.092 L 673 272.129 673 270.192 L 673 268.255 668.590 264.190 L 664.180 260.125 659.123 257.563 L 654.066 255 651.233 255 L 648.400 255 647.224 253.824 L 646.048 252.648 647.146 251.324 L 648.245 250 650.872 250.001 L 653.500 250.002 659.975 253.065 L 666.450 256.128 670.780 259.676 L 675.110 263.224 675.651 262.683 L 676.191 262.142 678.172 254.821 L 680.153 247.500 680.716 232.374 L 681.279 217.247 680.659 214.776 L 680.039 212.306 667.769 211.689 L 655.500 211.071 647 209.415 L 638.500 207.759 605.683 207.379 L 572.866 206.998 571.012 206.006 L 569.158 205.014 562.829 204.040 L 556.500 203.066 549 200.957 L 541.500 198.848 515.500 197.949 L 489.500 197.051 474.500 195.102 L 459.500 193.154 447 191.588 L 434.500 190.022 416.516 187.923 L 398.533 185.823 374.973 179.973 L 351.413 174.122 334.928 170.577 L 318.443 167.032 307.786 163.016 L 297.129 159 296.314 159.116 L 295.500 159.232 293.750 159.689 M 679.474 187.693 L 680.205 189.500 682.097 194.891 L 683.989 200.282 685.117 201.641 L 686.245 203 687.462 203 L 688.679 203 689.839 200.453 L 691 197.906 691 196 L 691 194.093 688.750 192.513 L 686.500 190.933 682.621 188.409 L 678.742 185.885 679.474 187.693 M 277.081 189.849 L 276 191.869 276.099 194.684 L 276.198 197.500 277.587 193.072 L 278.976 188.643 278.569 188.236 L 278.162 187.829 277.081 189.849 M 353.733 190.960 L 349.967 191.691 344.606 195.383 L 339.246 199.074 333.136 205.437 L 327.027 211.799 325.988 214.531 L 324.949 217.264 325.542 219.132 L 326.135 221 327.490 221 L 328.845 221 330.052 217.343 L 331.258 213.687 337.451 207.593 L 343.644 201.500 347.903 198.558 L 352.162 195.616 357.831 195.216 L 363.500 194.817 369.168 196.950 L 374.835 199.082 378.973 202.791 L 383.110 206.500 386.859 213.935 L 390.609 221.370 391.804 221.768 L 392.999 222.166 393.627 220.530 L 394.255 218.894 391.531 212.485 L 388.807 206.075 384.002 201.194 L 379.197 196.313 374.640 194.171 L 370.083 192.029 365.791 191.039 L 361.500 190.049 359.500 190.139 L 357.500 190.230 353.733 190.960 M 507.326 212.044 L 503.153 212.870 499.826 214.573 L 496.500 216.277 489.250 223.618 L 482 230.960 482 233.421 L 482 235.882 482.920 236.451 L 483.840 237.019 485.981 234.260 L 488.122 231.500 493.141 226.300 L 498.159 221.100 503.276 218.550 L 508.393 216 515.546 216 L 522.700 216 526.636 218.851 L 530.572 221.702 533.268 224.907 L 535.964 228.111 539.482 239.221 L 543 250.330 543 252.197 L 543 254.063 544.567 254.664 L 546.134 255.266 547.245 254.155 L 548.355 253.045 545.553 243.013 L 542.751 232.981 539.997 227.157 L 537.242 221.332 532.794 217.687 L 528.346 214.042 524.705 212.521 L 521.064 211 516.282 211.110 L 511.500 211.219 507.326 212.044 M 430.439 242.804 L 426.903 246.743 419.453 256.121 L 412.004 265.500 412.008 266.500 L 412.013 267.500 413.757 270.141 L 415.500 272.782 420.767 278.440 L 426.034 284.097 427.017 283.490 L 428 282.882 428 281.141 L 428 279.399 423 273.789 L 418 268.179 418 266.902 L 418 265.624 422.701 259.562 L 427.402 253.500 431.701 248.642 L 436 243.784 436 241.951 L 436 240.118 434.987 239.492 L 433.974 238.866 430.439 242.804 M 367.901 283.106 L 365 286.212 365 287.637 L 365 289.063 366.644 289.694 L 368.288 290.325 370.227 287.662 L 372.167 285 374.119 285 L 376.070 285 378.785 286.685 L 381.500 288.369 383.555 290.176 L 385.611 291.983 389.555 291.879 L 393.500 291.775 398.463 292.897 L 403.425 294.019 405.334 292.110 L 407.243 290.202 406.637 289.222 L 406.032 288.243 399.766 287.592 L 393.500 286.940 390 286.660 L 386.500 286.379 381.855 283.189 L 377.210 280 374.006 280 L 370.802 280 367.901 283.106 M 441.693 287.700 L 439.886 288.169 440.204 289.823 L 440.523 291.477 442.438 291.846 L 444.353 292.215 446.076 294.342 L 447.798 296.469 452.149 295.332 L 456.500 294.195 462 294.715 L 467.500 295.234 470 297.503 L 472.500 299.772 475.700 301.386 L 478.901 303 480.450 303 L 482 303 482 301.523 L 482 300.046 479.250 298.343 L 476.500 296.640 473.367 293.738 L 470.235 290.835 463.551 290.006 L 456.868 289.178 453.801 290.057 L 450.735 290.936 448.232 288.968 L 445.730 287 444.615 287.116 L 443.500 287.232 441.693 287.700 M 368.492 297.013 L 367.866 298.026 372.172 301.763 L 376.479 305.500 380.239 309.132 L 384 312.765 384 315.823 L 384 318.882 382.929 319.544 L 381.859 320.205 382.502 324.012 L 383.145 327.819 381.600 330.807 L 380.055 333.795 375.712 335.898 L 371.369 338 367.934 337.996 L 364.500 337.993 361.226 335.996 L 357.952 334 356.476 334 L 355 334 355 335.326 L 355 336.651 357.250 338.759 L 359.500 340.867 362.315 341.933 L 365.130 343 367.699 343 L 370.268 343 374.193 341.824 L 378.118 340.648 382.623 336.683 L 387.127 332.718 390.814 336.300 L 394.500 339.881 397.500 341.064 L 400.500 342.247 412.500 344.585 L 424.500 346.924 431.775 346.962 L 439.050 347 444.275 345.115 L 449.500 343.229 451.177 342.536 L 452.854 341.842 453.544 346.443 L 454.234 351.044 458.340 354.559 L 462.446 358.074 464.721 358.645 L 466.996 359.216 468.610 358.596 L 470.225 357.976 469.028 356.533 L 467.830 355.091 463.425 352.509 L 459.020 349.927 458.390 347.416 L 457.759 344.906 458.408 340.703 L 459.056 336.500 460.547 331.934 L 462.038 327.369 466.829 322.184 L 471.621 317 474.060 316.985 L 476.500 316.969 477.936 316.061 L 479.371 315.152 478.063 313.576 L 476.755 312 474.328 312 L 471.901 312 469.200 313.401 L 466.500 314.802 462.238 320.050 L 457.976 325.298 456.238 330.253 L 454.500 335.207 448.500 338.279 L 442.500 341.352 433.809 341.795 L 425.117 342.239 413.309 340.009 L 401.500 337.779 397.784 335.887 L 394.068 333.994 391.534 330.265 L 389 326.536 389 320.236 L 389 313.936 387.650 310.704 L 386.299 307.472 379.288 301.736 L 372.277 296 370.698 296 L 369.118 296 368.492 297.013 M 339.684 392.464 L 341.336 395.928 345.551 396.560 L 349.765 397.192 351.470 396.846 L 353.175 396.500 346.218 392.750 L 339.261 389 338.647 389 L 338.032 389 339.684 392.464 M 368.223 390.557 L 366 392.113 366 392.907 L 366 393.700 372.250 396.289 L 378.500 398.878 383.186 400.405 L 387.872 401.933 398.519 404.050 L 409.166 406.167 409.611 405.722 L 410.056 405.277 409.112 402.794 L 408.167 400.310 406.512 398.655 L 404.857 397 398.333 397 L 391.809 397 388.965 395.321 L 386.122 393.641 382.115 395.448 L 378.108 397.255 376.509 396.642 L 374.910 396.028 373.441 392.514 L 371.973 389 371.209 389 L 370.445 389 368.223 390.557 M 370.178 406.429 L 372.402 411.007 374.451 410.391 L 376.500 409.775 377.349 408.988 L 378.199 408.201 377.564 406.200 L 376.928 404.199 374.214 403.552 L 371.500 402.905 369.727 402.378 L 367.953 401.850 370.178 406.429 M 419 405.450 L 416.500 406.929 417.081 406.965 L 417.661 407 428.581 408.985 L 439.500 410.970 443.250 410.985 L 447 411 447 410.191 L 447 409.382 445.571 407.441 L 444.143 405.500 436.321 405.440 L 428.500 405.380 425 404.676 L 421.500 403.971 419 405.450 M 384 407.151 L 384 408.536 386.632 412.518 L 389.263 416.500 394.382 421.876 L 399.500 427.251 407.652 431.072 L 415.803 434.892 430.936 439.946 L 446.069 445 453.358 445 L 460.646 445 473.573 442.468 L 486.500 439.937 493 436.718 L 499.500 433.500 504.673 427.030 L 509.847 420.561 509.364 419.780 L 508.882 419 494.691 418.976 L 480.500 418.952 476.500 417.943 L 472.500 416.934 456.763 416.503 L 441.027 416.072 428.263 413.951 L 415.500 411.830 402 409.424 L 388.500 407.018 386.250 406.392 L 384 405.767 384 407.151 M 376.500 417.083 L 373.500 419.152 376 418.454 L 378.500 417.755 379.750 416.755 L 381 415.755 381 416.859 L 381 417.963 387.682 425.046 L 394.364 432.129 398.432 434.469 L 402.500 436.809 414.500 441.518 L 426.500 446.227 435.873 449.114 L 445.246 452 453.873 451.978 L 462.500 451.957 476.612 449.100 L 490.725 446.244 496.112 443.550 L 501.500 440.857 504.319 438.178 L 507.138 435.500 511.190 430.250 L 515.243 425 516.705 425 L 518.167 425 517.750 423.750 L 517.333 422.500 515.813 422.500 L 514.293 422.500 508.209 430.157 L 502.124 437.814 495.687 440.983 L 489.250 444.151 474.453 447.076 L 459.657 450 453.491 450 L 447.326 450 437.913 447.168 L 428.500 444.335 419 440.747 L 409.500 437.159 403.575 434.515 L 397.650 431.870 392.608 427.338 L 387.567 422.805 384.697 418.903 L 381.827 415 380.663 415.007 L 379.500 415.013 376.500 417.083 M 543.500 417.038 L 537.500 418.840 530.250 418.920 L 523 419 523 419.927 L 523 420.853 524.750 421.202 L 526.500 421.551 532.245 420.885 L 537.989 420.219 543.995 418.420 L 550 416.621 550 415.811 L 550 415 549.750 415.118 L 549.500 415.236 543.500 417.038 M 285.875 468.750 L 282.344 472.500 278.483 478 L 274.622 483.500 272.311 486.890 L 270 490.279 270 492.393 L 270 494.506 273.582 499.503 L 277.165 504.500 279.201 508.444 L 281.238 512.387 290.884 522.444 L 300.530 532.500 306.484 540.250 L 312.437 548 313.219 548 L 314 548 314 547.066 L 314 546.131 307.876 538.316 L 301.752 530.500 293.013 521.500 L 284.275 512.500 281.128 507 L 277.981 501.500 274.808 497.245 L 271.635 492.989 273.286 489.745 L 274.936 486.500 282.455 475.750 L 289.973 465 289.689 465 L 289.406 465 285.875 468.750 M 180.352 477.500 L 180.978 481.500 180.989 483.255 L 181 485.010 187.251 492.255 L 193.502 499.500 196.230 503.155 L 198.957 506.810 202.531 509.019 L 206.105 511.228 206.588 510.745 L 207.071 510.262 201.953 501.881 L 196.835 493.500 191.494 486.500 L 186.154 479.500 182.940 476.500 L 179.727 473.500 180.352 477.500 M 80.041 489.619 L 76.928 492.238 75.598 494.869 L 74.267 497.500 73.609 501.500 L 72.951 505.500 75.471 499.500 L 77.991 493.500 77.995 493.276 L 78 493.051 80.950 491.526 L 83.901 490 87.200 489.961 L 90.500 489.922 87.135 488.461 L 83.770 487 83.462 487 L 83.153 487 80.041 489.619 M 130.500 491.662 L 133.500 493.243 135.993 495.372 L 138.486 497.500 136.495 495.148 L 134.505 492.795 131.802 491.398 L 129.099 490 128.300 490.040 L 127.500 490.080 130.500 491.662 M 109.500 492 L 108.882 493 104.191 493.005 L 99.500 493.010 102.500 495.469 L 105.500 497.928 106 497.922 L 106.500 497.915 108.704 494.458 L 110.908 491 110.513 491 L 110.118 491 109.500 492 M 113.655 495.829 L 112 497.657 112 499.638 L 112 501.618 110.556 503.559 L 109.113 505.500 106.647 504 L 104.181 502.500 99.341 499.012 L 94.500 495.524 88.500 495.512 L 82.500 495.500 80.719 499.143 L 78.938 502.785 77.832 509.061 L 76.727 515.337 78.512 518.651 L 80.296 521.965 77.717 525.733 L 75.138 529.500 73.595 535.543 L 72.052 541.586 71.427 548.543 L 70.801 555.500 73.151 558.925 L 75.500 562.350 78.500 564.006 L 81.500 565.663 81.500 567.081 L 81.500 568.500 79.268 569.479 L 77.036 570.459 76.018 573.379 L 75 576.298 75 583.593 L 75 590.887 77.223 592.443 L 79.445 594 95.973 594.024 L 112.500 594.049 116.794 595.039 L 121.089 596.030 130.794 600.116 L 140.500 604.201 148.090 607.421 L 155.681 610.642 176.590 621.980 L 197.500 633.318 210.593 641.627 L 223.687 649.937 228.593 652.054 L 233.500 654.172 237.134 653.697 L 240.769 653.221 246.134 650.539 L 251.500 647.857 254.350 645.178 L 257.200 642.500 260.201 638.173 L 263.202 633.846 267.695 623.173 L 272.187 612.500 276.447 601.500 L 280.708 590.500 284.296 583.390 L 287.884 576.280 296.459 563.177 L 305.034 550.075 305.566 548.689 L 306.098 547.303 301.367 541.402 L 296.637 535.500 287.551 526 L 278.465 516.500 274.288 509.418 L 270.111 502.337 268.524 501.020 L 266.937 499.703 265.478 501.602 L 264.019 503.500 261.155 508 L 258.291 512.500 252.604 521.611 L 246.917 530.721 241.097 544.111 L 235.278 557.500 231.664 564.676 L 228.049 571.852 225.802 573.426 L 223.555 575 218.947 575 L 214.339 575 209.919 572.665 L 205.500 570.330 199.036 566.415 L 192.572 562.500 187.944 558 L 183.316 553.500 172.482 544.092 L 161.649 534.684 153.574 529.728 L 145.500 524.772 141.750 521.183 L 138 517.594 138 513.265 L 138 508.936 136.447 505.218 L 134.894 501.500 132.254 498.744 L 129.614 495.987 126.057 494.999 L 122.500 494.011 118.905 494.006 L 115.310 494 113.655 495.829 M 72.129 514 L 71.956 521.500 69.978 525.859 L 68 530.218 68.067 533.359 L 68.134 536.500 69.399 532.500 L 70.664 528.500 72.183 525.500 L 73.703 522.500 73.002 514.500 L 72.302 506.500 72.129 514 M 143 515.377 L 143 516.129 146.127 518.815 L 149.255 521.500 155.372 525.158 L 161.489 528.816 162.244 528.349 L 163 527.882 162.900 525.691 L 162.801 523.500 162.142 525.845 L 161.483 528.191 159.491 525.966 L 157.500 523.741 153 521.806 L 148.500 519.871 145.750 517.249 L 143 514.626 143 515.377 M 546.146 549.500 L 545.973 551.500 545.370 553.750 L 544.767 556 575.133 555.906 L 605.500 555.812 616 554.581 L 626.500 553.351 586.825 553.831 L 547.150 554.311 546.735 550.906 L 546.320 547.500 546.146 549.500 M 537.748 605 L 537.104 659.500 536.137 670 L 535.170 680.500 534.607 702.500 L 534.044 724.500 534.952 722.500 L 535.859 720.500 535.965 703 L 536.071 685.500 537.580 676.500 L 539.088 667.500 539.621 616 L 540.153 564.500 539.273 557.500 L 538.392 550.500 537.748 605 M 576.500 561.008 L 545.500 561.573 545.250 561.786 L 545 562 544.949 599.750 L 544.898 637.500 543.970 654 L 543.043 670.500 542.370 701.095 L 541.697 731.691 545.599 733.595 L 549.500 735.500 549.500 736.805 L 549.500 738.110 556.042 744.903 L 562.584 751.696 566.542 754.242 L 570.500 756.787 575.919 758.530 L 581.339 760.273 589.419 759.671 L 597.500 759.070 604 757.149 L 610.500 755.229 617.354 752.620 L 624.209 750.011 625.104 750.565 L 626 751.118 626.001 750.809 L 626.002 750.500 627.482 743.402 L 628.963 736.304 629.512 716.402 L 630.061 696.500 631.015 682 L 631.969 667.500 631.985 623.192 L 632 578.883 630.959 571.692 L 629.917 564.500 628.980 562.250 L 628.043 560 617.771 560.222 L 607.500 560.443 576.500 561.008 M 637.015 570.309 L 637 574.118 638 573.500 L 639 572.882 638.985 571.191 L 638.969 569.500 638 568 L 637.031 566.500 637.015 570.309 M 69 596.441 L 69 600.882 69.853 601.409 L 70.705 601.936 72.521 600.608 L 74.337 599.281 72.087 595.640 L 69.837 592 69.418 592 L 69 592 69 596.441 M 91.292 599.742 L 98.083 600.093 104.292 599.739 L 110.500 599.385 97.500 599.389 L 84.500 599.392 91.292 599.742 M 321.504 612 L 320.511 613.500 319.394 615.500 L 318.278 617.500 314.538 624 L 310.798 630.500 308.899 635.287 L 307 640.074 307.041 642.787 L 307.081 645.500 310.086 642 L 313.091 638.500 316.546 631.616 L 320 624.731 320 622.925 L 320 621.118 320.911 620.555 L 321.822 619.992 321.553 618.246 L 321.283 616.500 322.229 615.887 L 323.175 615.274 322.836 612.887 L 322.498 610.500 321.504 612 M 250 654.500 L 245.500 656.910 247.500 656.950 L 249.500 656.990 252.500 654.531 L 255.500 652.072 255 652.081 L 254.500 652.090 250 654.500" stroke="none" fill="#f9eabf" fill-rule="evenodd"/></svg>