<svg xmlns="http://www.w3.org/2000/svg" width="621" height="535" viewBox="0 0 621 535" version="1.1"><path d="M 71.783 39.123 L 64.825 46.500 57.544 55.500 L 50.264 64.500 42.162 71.500 L 34.060 78.500 34.030 79.819 L 34 81.138 37.482 99.819 L 40.964 118.500 44.336 130.750 L 47.708 143 44.489 143 L 41.270 143 38.808 144.936 L 36.347 146.873 33.193 152.789 L 30.039 158.706 28.428 165.603 L 26.817 172.500 27.236 177.689 L 27.654 182.879 28.950 184.439 L 30.245 186 33.472 186 L 36.700 186 40.600 183.164 L 44.500 180.328 48.250 176.161 L 52 171.994 52 168.556 L 52 165.118 52.902 164.561 L 53.803 164.004 54.472 158.237 L 55.142 152.471 50.115 133.485 L 45.087 114.500 42.050 97.801 L 39.012 81.102 44.550 75.864 L 50.088 70.627 51.951 69.321 L 53.815 68.016 59.126 61.258 L 64.437 54.500 71.388 46.720 L 78.340 38.940 79.031 39.720 L 79.723 40.500 85.395 62 L 91.066 83.500 95.017 96.933 L 98.968 110.365 98.734 110.466 L 98.500 110.566 95.760 111.947 L 93.020 113.327 90.760 117.914 L 88.500 122.500 88.516 133 L 88.531 143.500 89.801 145.750 L 91.070 148 93.561 148 L 96.053 148 100.526 143.526 L 105 139.053 105 138.015 L 105 136.978 106.892 132.739 L 108.784 128.500 109.409 126.623 L 110.035 124.745 109.377 119.782 L 108.718 114.819 106.196 111.821 L 103.673 108.822 100.299 97.661 L 96.926 86.500 90.395 62 L 83.865 37.500 82.683 35.074 L 81.500 32.648 80.120 32.197 L 78.740 31.747 71.783 39.123 M 294.282 35.038 L 290.064 37.177 286.946 40.339 L 283.828 43.500 281.227 47.908 L 278.625 52.316 278.193 60.541 L 277.761 68.766 279.420 73.759 L 281.078 78.752 284.789 82.730 L 288.500 86.709 289.884 87.149 L 291.268 87.589 291.137 115.347 L 291.007 143.105 289.478 156.186 L 287.950 169.266 288.527 171.086 L 289.105 172.907 287.513 178.203 L 285.921 183.500 285.940 195 L 285.959 206.500 281.229 206.773 L 276.500 207.046 270.823 208.375 L 265.147 209.703 264.436 204.602 L 263.726 199.500 263.381 188 L 263.036 176.500 262.415 134 L 261.795 91.500 267.312 87.258 L 272.828 83.017 274.493 78.659 L 276.157 74.301 275.120 68.692 L 274.083 63.084 272.021 59.042 L 269.959 55 268.980 55 L 268 55 268 53.593 L 268 52.185 262.907 47.606 L 257.814 43.027 253.667 41.910 L 249.521 40.794 245.352 41.365 L 241.183 41.937 237.272 43.975 L 233.361 46.014 230.734 48.757 L 228.106 51.500 226.553 55.218 L 225 58.936 225 66.854 L 225 74.772 229.142 80.975 L 233.285 87.179 238.232 91.089 L 243.180 95 245.003 95 L 246.826 95 246.947 110.211 L 247.067 125.422 248.532 139.461 L 249.997 153.500 251.496 165 L 252.994 176.500 254.426 187.500 L 255.857 198.500 256.176 205.327 L 256.494 212.154 247.502 215.837 L 238.509 219.519 231.240 228.509 L 223.971 237.500 221.007 243.500 L 218.043 249.500 216.522 255.460 L 215 261.420 215 271.643 L 215 281.865 213.055 282.483 L 211.109 283.100 206.164 288.511 L 201.220 293.921 198.159 301.273 L 195.098 308.625 194.076 315.062 L 193.054 321.500 193.964 332.632 L 194.875 343.765 196.332 347.252 L 197.789 350.739 200.117 352.369 L 202.445 354 208.755 354 L 215.064 354 218.746 352.462 L 222.427 350.924 224.139 349.374 L 225.851 347.825 226.574 352.645 L 227.297 357.466 226.752 379.483 L 226.207 401.500 226.941 409.589 L 227.675 417.677 229.774 423.089 L 231.873 428.500 234.608 437.325 L 237.342 446.149 241.618 453.653 L 245.894 461.156 252.860 470.328 L 259.825 479.500 265.162 484.686 L 270.500 489.873 275.866 492.547 L 281.231 495.221 285.366 495.750 L 289.500 496.279 293 498.013 L 296.500 499.748 305.746 501.903 L 314.992 504.057 325.746 505.050 L 336.500 506.043 350.500 507.743 L 364.500 509.443 380.500 509.671 L 396.500 509.899 399.500 510.432 L 402.500 510.966 422 513.468 L 441.500 515.970 460 515.444 L 478.500 514.919 488.777 513.480 L 499.054 512.041 500.961 511.021 L 502.869 510 515.227 510 L 527.586 510 536.539 507.405 L 545.492 504.809 548.996 503.025 L 552.500 501.242 556.818 499.065 L 561.136 496.888 563.818 496.527 L 566.500 496.167 573.815 493.166 L 581.130 490.166 586.694 486.833 L 592.259 483.500 597.880 477.259 L 603.500 471.018 607.361 464.259 L 611.222 457.500 611.236 455.136 L 611.250 452.773 609.884 451.928 L 608.517 451.084 603.009 450.385 L 597.500 449.686 583.500 451.330 L 569.500 452.974 554.500 453.482 L 539.500 453.989 522 454.505 L 504.500 455.021 489.500 456.068 L 474.500 457.116 457.837 453.078 L 441.173 449.039 435.942 446.977 L 430.710 444.915 421.179 438.740 L 411.647 432.566 404.899 427.033 L 398.152 421.500 391.467 412.500 L 384.782 403.500 379.371 397.323 L 373.959 391.146 372.530 387.725 L 371.101 384.305 370.050 375.929 L 369 367.552 369 359.185 L 369 350.818 372.373 346.877 L 375.746 342.937 377.510 337.330 L 379.273 331.723 379.177 319.465 L 379.081 307.206 377.892 302.353 L 376.703 297.500 374.294 292.671 L 371.886 287.842 373.193 286.203 L 374.500 284.565 377 282.212 L 379.500 279.859 391.360 271.974 L 403.219 264.089 411.860 259.639 L 420.500 255.189 430.110 251.201 L 439.721 247.213 448.051 245.106 L 456.381 243 464.440 243.001 L 472.500 243.002 478.540 245.859 L 484.579 248.716 490.703 254.386 L 496.827 260.055 499.929 264.889 L 503.030 269.723 507.015 280.296 L 510.999 290.869 513.592 301.184 L 516.185 311.500 516.688 330 L 517.192 348.500 515.648 355.759 L 514.104 363.019 511.416 369.007 L 508.729 374.995 504.293 379.084 L 499.856 383.174 494.509 385.539 L 489.161 387.903 483.168 389.456 L 477.175 391.009 468.227 391.645 L 459.279 392.280 452.367 390.180 L 445.454 388.080 441.303 384.527 L 437.152 380.974 435.376 375.737 L 433.599 370.500 433.549 360 L 433.500 349.500 436.423 344.225 L 439.345 338.950 442.626 336.922 L 445.907 334.894 450.805 334.120 L 455.702 333.346 457.793 334.119 L 459.883 334.892 461.444 337.274 L 463.004 339.655 464.066 345.398 L 465.128 351.141 463.921 352.595 L 462.715 354.048 463.314 354.648 L 463.914 355.247 465.457 354.655 L 467 354.063 466.978 348.281 L 466.956 342.500 465.086 338.383 L 463.216 334.265 460.886 332.633 L 458.555 331 453.527 331.022 L 448.500 331.044 444.491 332.865 L 440.483 334.686 437.239 338.380 L 433.996 342.074 432.307 345.787 L 430.618 349.500 430.641 359.500 L 430.663 369.500 432.426 375.500 L 434.189 381.500 438.500 385.643 L 442.812 389.786 448.656 392.099 L 454.500 394.413 465 394.363 L 475.500 394.314 482.500 392.531 L 489.500 390.748 495.660 387.977 L 501.820 385.207 506.255 381.119 L 510.689 377.032 513.784 370.266 L 516.879 363.500 518.577 355.016 L 520.276 346.532 519.681 329.516 L 519.087 312.500 517.104 303.829 L 515.122 295.158 512.003 285.829 L 508.884 276.500 505.292 269 L 501.700 261.500 494.600 254.389 L 487.500 247.278 481 243.889 L 474.500 240.500 463 240.559 L 451.500 240.618 440.500 244.351 L 429.500 248.084 415.500 254.952 L 401.500 261.819 389.500 269.769 L 377.500 277.719 374.054 281.360 L 370.608 285 369.899 285 L 369.190 285 369.713 279.228 L 370.236 273.456 369.050 267.739 L 367.863 262.023 363.814 255.960 L 359.766 249.897 365.423 238.525 L 371.081 227.153 378.925 215.297 L 386.770 203.441 390.730 199.862 L 394.691 196.284 400.596 192.279 L 406.500 188.274 412.500 185.254 L 418.500 182.235 427 179.481 L 435.500 176.726 447.321 176.237 L 459.142 175.748 466.477 176.932 L 473.813 178.115 496.048 184.514 L 518.284 190.913 525.691 194.430 L 533.098 197.948 540.772 203.224 L 548.446 208.500 555.989 216.016 L 563.533 223.533 572.136 235.016 L 580.739 246.500 583.955 252.234 L 587.172 257.967 588.700 263.234 L 590.227 268.500 590.724 289.676 L 591.221 310.852 589.596 320.384 L 587.971 329.916 584.539 341.726 L 581.107 353.537 576.680 364.551 L 572.254 375.566 569.593 380.816 L 566.933 386.067 563.322 391.783 L 559.712 397.500 554.484 404.039 L 549.255 410.577 532.458 423.457 L 515.660 436.337 506.580 441.461 L 497.500 446.584 494.500 447.758 L 491.500 448.933 484.688 450.466 L 477.876 452 474.497 452 L 471.118 452 470.496 453.007 L 469.873 454.014 471.596 454.675 L 473.319 455.336 480.910 454.009 L 488.500 452.682 491.429 452.428 L 494.357 452.174 499.179 449.916 L 504 447.658 504 446.770 L 504 445.882 505 446.500 L 506 447.118 506 446.232 L 506 445.347 515.750 439.509 L 525.500 433.672 536 425.642 L 546.500 417.611 552.523 411.556 L 558.546 405.500 561.023 402.013 L 563.500 398.526 565.201 394.763 L 566.902 391 567.862 391 L 568.822 391 573.289 381.750 L 577.756 372.500 578.368 369.175 L 578.980 365.850 582.349 358.675 L 585.718 351.500 587.824 344.460 L 589.930 337.421 592.033 328.960 L 594.137 320.500 594.705 304.356 L 595.274 288.213 594.096 278.856 L 592.919 269.500 592.474 264.753 L 592.029 260.006 590.476 256.288 L 588.922 252.570 588.128 252.035 L 587.333 251.500 583.666 246.013 L 580 240.527 580 239.669 L 580 238.812 575.374 232.656 L 570.749 226.500 567.874 224.178 L 565 221.855 565 220.651 L 565 219.446 558.250 212.777 L 551.500 206.107 548.611 205.026 L 545.723 203.944 546.357 203.310 L 546.991 202.675 542.035 199.338 L 537.079 196 535.789 195.983 L 534.500 195.967 527.211 191.582 L 519.922 187.198 511.711 184.957 L 503.500 182.715 502 182.770 L 500.500 182.825 495 181.317 L 489.500 179.810 485.032 177.781 L 480.564 175.751 471.032 173.785 L 461.500 171.819 448.500 172.198 L 435.500 172.577 433 174.212 L 430.500 175.847 424.763 176.887 L 419.026 177.927 411.763 181.319 L 404.500 184.711 402.103 187.327 L 399.706 189.942 396.512 190.996 L 393.318 192.050 387.366 198.275 L 381.414 204.500 377.364 210.500 L 373.314 216.500 367.833 226 L 362.351 235.500 360.468 241.250 L 358.586 247 358.043 246.976 L 357.500 246.953 354.500 242.881 L 351.500 238.810 340.411 228.054 L 329.321 217.299 322.177 213.725 L 315.033 210.151 309.430 208.897 L 303.826 207.643 304.381 203.571 L 304.935 199.500 305.582 180 L 306.228 160.500 306.519 153 L 306.810 145.500 307.546 118.165 L 308.281 90.829 309.391 90.449 L 310.500 90.069 316.202 87.981 L 321.903 85.892 326.903 81.398 L 331.902 76.903 333.451 73.798 L 335 70.693 335 63.006 L 335 55.319 331.940 49.196 L 328.881 43.074 325.190 40.151 L 321.500 37.228 320.750 37.114 L 320 37 319.071 37 L 318.143 37 316.394 35.250 L 314.645 33.500 306.572 33.200 L 298.500 32.899 294.282 35.038 M 294.265 39.750 L 290.229 42.500 287.601 45.661 L 284.973 48.821 283.486 52.378 L 282 55.936 282 60.331 L 282 64.727 283.020 70.104 L 284.039 75.481 286.877 78.990 L 289.716 82.500 292.445 83 L 295.175 83.500 295.047 113.953 L 294.919 144.406 292.890 162.453 L 290.862 180.500 289.958 189.500 L 289.054 198.500 289.027 202.750 L 289 207 294.420 207 L 299.841 207 300.441 200.750 L 301.042 194.500 302.188 170.500 L 303.335 146.500 303.917 117.130 L 304.500 87.760 312.019 85.107 L 319.538 82.454 323.253 79.620 L 326.969 76.786 328.984 73.525 L 331 70.264 330.990 63.382 L 330.980 56.500 328.633 51.459 L 326.286 46.418 322.893 43.555 L 319.500 40.691 315.500 38.867 L 311.500 37.044 304.900 37.022 L 298.301 37 294.265 39.750 M 238.864 47.771 L 233.500 50.542 231.250 54.983 L 229 59.424 229 66.516 L 229 73.608 231.838 78.054 L 234.676 82.500 239.316 86.750 L 243.955 91 247.357 91 L 250.758 91 251.273 112.750 L 251.788 134.500 253.964 152.500 L 256.139 170.500 258.012 182.500 L 259.886 194.500 259.467 185 L 259.047 175.500 258.398 133.691 L 257.749 91.882 256.407 92.397 L 255.064 92.913 254.392 91.825 L 253.719 90.737 255.415 89.788 L 257.111 88.839 258.130 86.169 L 259.149 83.500 260.415 85.223 L 261.680 86.945 265.670 84.011 L 269.660 81.077 270.771 77.288 L 271.882 73.500 271.015 69 L 270.148 64.500 269.187 61.983 L 268.227 59.467 264.190 54.360 L 260.153 49.253 255.761 47.126 L 251.369 45 247.798 45 L 244.228 45 238.864 47.771 M 98.229 115.669 L 96.958 116.181 95.405 119.183 L 93.853 122.186 94.292 122.625 L 94.731 123.064 95.957 120.104 L 97.183 117.144 98.779 116.531 L 100.375 115.919 101.438 117.709 L 102.500 119.500 103.118 122.500 L 103.737 125.500 103.868 122.261 L 104 119.023 102.278 117.011 L 100.556 115 100.028 115.079 L 99.500 115.158 98.229 115.669 M 93.343 132.500 L 93.349 140.500 93.733 136.224 L 94.118 131.947 93.727 128.224 L 93.336 124.500 93.343 132.500 M 45.040 148.316 L 45 149.131 46.146 151.272 L 47.291 153.412 47.086 160.432 L 46.881 167.452 47.380 166.953 L 47.880 166.454 48.090 159.953 L 48.301 153.452 46.690 150.476 L 45.080 147.500 45.040 148.316 M 40.500 175.411 L 34.500 181.322 36.500 180.238 L 38.500 179.154 42.938 174.598 L 47.375 170.042 46.938 169.771 L 46.500 169.500 40.500 175.411 M 32.310 175.500 L 32.320 181.500 32.725 178.232 L 33.129 174.964 32.715 172.232 L 32.300 169.500 32.310 175.500 M 85.667 204.667 L 85 205.333 85 206.500 L 85 207.667 92.853 212.782 L 100.706 217.897 107.785 225.477 L 114.864 233.056 115.992 236.476 L 117.121 239.896 116.060 247.520 L 115 255.145 115.006 267.322 L 115.011 279.500 116.083 283.500 L 117.154 287.500 124.180 294.232 L 131.206 300.965 138.237 304.482 L 145.269 308 150.634 308 L 156 308 156 306.117 L 156 304.233 153.750 303.630 L 151.500 303.027 148.640 303.014 L 145.780 303 139.806 299.816 L 133.831 296.631 127.274 290.540 L 120.717 284.449 120.014 272.975 L 119.310 261.500 120.658 251.025 L 122.006 240.549 121.381 237.219 L 120.757 233.890 116.503 228.195 L 112.249 222.500 107.874 218.333 L 103.500 214.166 96.072 209.083 L 88.644 204 87.489 204 L 86.333 204 85.667 204.667 M 289.750 210.571 L 289 211.333 289 223.167 L 289 235 292.393 235 L 295.786 235 296.279 233.715 L 296.773 232.429 298.559 222.221 L 300.346 212.013 299.722 211.389 L 299.099 210.765 294.799 210.287 L 290.500 209.809 289.750 210.571 M 273.605 212.834 L 265.710 214.500 265.605 224.500 L 265.500 234.500 275.013 234.500 L 284.525 234.500 284.572 230 L 284.618 225.500 285.438 218.250 L 286.258 211 283.879 211.084 L 281.500 211.169 273.605 212.834 M 303.109 217.359 L 303.076 222.500 302.038 225.993 L 301 229.487 301 232.054 L 301 234.622 305.942 235.888 L 310.884 237.155 311.956 238.447 L 313.029 239.740 318.804 242.332 L 324.579 244.923 326.611 247.212 L 328.642 249.500 335.702 259.500 L 342.761 269.500 345.001 273.945 L 347.240 278.391 348.582 281.945 L 349.924 285.500 349.843 280 L 349.763 274.500 350.876 271.699 L 351.989 268.898 354.076 260.422 L 356.162 251.946 347.560 242.223 L 338.958 232.500 336.229 229.860 L 333.500 227.221 328.500 223.457 L 323.500 219.693 318.161 217.233 L 312.823 214.772 307.983 213.495 L 303.143 212.219 303.109 217.359 M 261.374 225.500 L 261.378 236.500 261.740 230.713 L 262.102 224.927 261.736 219.713 L 261.370 214.500 261.374 225.500 M 248.173 220.686 L 241.845 223.274 236.748 229.387 L 231.650 235.500 227.810 241.428 L 223.970 247.356 221.985 253.783 L 220 260.211 220 270.605 L 220 281 223.066 281 L 226.131 281 228.066 282.035 L 230 283.070 230.011 278.785 L 230.022 274.500 231.546 269.500 L 233.071 264.500 233.462 259.938 L 233.853 255.377 235.506 251.938 L 237.160 248.500 242.324 245.250 L 247.489 242 249.187 242 L 250.886 242 254.193 240.049 L 257.500 238.097 257.375 231.049 L 257.250 224 257.125 221 L 257 218 255.750 218.049 L 254.500 218.097 248.173 220.686 M 266.250 238.662 L 265 239.167 265 247.083 L 265 255 263.500 255 L 262 255 261.820 247.250 L 261.640 239.500 261.262 244.314 L 260.885 249.128 259.693 248.737 L 258.500 248.346 258.184 245.673 L 257.867 243 257.128 243 L 256.389 243 252.944 245.547 L 249.500 248.094 247.623 247.607 L 245.745 247.121 243.315 248.713 L 240.885 250.306 239.089 253.903 L 237.292 257.500 235.674 267 L 234.055 276.500 233.586 283 L 233.118 289.500 234.482 296 L 235.847 302.500 236.358 305.547 L 236.869 308.594 236.093 309.850 L 235.317 311.106 233.908 310.803 L 232.500 310.500 231.506 329.500 L 230.511 348.500 230.625 381 L 230.740 413.500 233.264 421.500 L 235.789 429.500 238.444 437 L 241.098 444.500 244.660 451 L 248.221 457.500 256.225 468.228 L 264.228 478.957 270.364 484.001 L 276.500 489.046 289.484 493.139 L 302.468 497.233 311.732 499.097 L 320.996 500.960 335.748 501.976 L 350.500 502.991 356 504.042 L 361.500 505.093 382.500 505.981 L 403.500 506.870 418.500 508.938 L 433.500 511.006 447.004 511.646 L 460.509 512.286 478.004 510.556 L 495.500 508.825 497.715 507.413 L 499.930 506 513.151 506 L 526.372 506 533.936 503.884 L 541.500 501.767 560.953 493.859 L 580.407 485.952 584.537 483.531 L 588.667 481.111 594.637 474.729 L 600.606 468.348 603.175 463.924 L 605.745 459.500 606.440 457.250 L 607.135 455 596.317 455.008 L 585.500 455.015 579.500 455.972 L 573.500 456.929 540.500 458.038 L 507.500 459.146 491.312 459.701 L 475.123 460.256 463.812 457.528 L 452.500 454.800 443.732 452.408 L 434.963 450.015 429.732 447.375 L 424.500 444.735 414.140 437.696 L 403.780 430.657 398.138 425.078 L 392.496 419.500 388.160 413.326 L 383.824 407.153 377.856 400.326 L 371.888 393.500 370.566 391 L 369.243 388.500 368.007 383 L 366.770 377.500 366.135 365.500 L 365.500 353.500 364 353.877 L 362.500 354.255 358.617 355.283 L 354.733 356.311 351.293 354.459 L 347.854 352.606 345.477 348.552 L 343.101 344.497 341.933 334.999 L 340.765 325.500 341.317 317.487 L 341.869 309.474 343.008 306.487 L 344.147 303.500 344.547 296 L 344.947 288.500 345.016 285.780 L 345.085 283.060 342.053 276.947 L 339.020 270.835 330.959 259.502 L 322.898 248.170 314.925 244.022 L 306.952 239.874 302.759 239.687 L 298.566 239.500 298.023 242.500 L 297.480 245.500 296.490 245.271 L 295.500 245.042 295.190 241.521 L 294.879 238 291.872 238 L 288.865 238 289.473 239.916 L 290.081 241.832 289.045 242.472 L 288.009 243.113 286.844 240.556 L 285.679 238 276.589 238.079 L 267.500 238.158 266.250 238.662 M 356.020 264.250 L 353.861 273.500 353.300 278.659 L 352.739 283.818 359.361 284.159 L 365.983 284.500 366.491 283.168 L 367 281.836 367 276.077 L 367 270.318 365.620 265.731 L 364.239 261.145 362.052 258.072 L 359.864 255 359.021 255 L 358.179 255 356.020 264.250 M 213.367 288.041 L 210.234 290.048 207.527 294.274 L 204.820 298.500 209.096 293.624 L 213.372 288.747 216.436 287.413 L 219.500 286.078 218 286.056 L 216.500 286.034 213.367 288.041 M 354.352 286.993 L 352.205 287.860 351.533 288.946 L 350.862 290.033 349.931 289.457 L 349 288.882 349 296.500 L 349 304.118 348.125 303.577 L 347.250 303.036 346.016 307.442 L 344.783 311.847 345.180 327.174 L 345.578 342.500 347.269 345.662 L 348.960 348.823 351.687 350.968 L 354.413 353.113 356.957 352.522 L 359.500 351.931 362.250 350.844 L 365 349.757 365 347.379 L 365 345 366.500 345 L 368 345 368 346.122 L 368 347.245 369.566 345.945 L 371.132 344.646 372.722 341.573 L 374.312 338.500 375.644 333.500 L 376.976 328.500 376.988 322.322 L 377 316.145 375.916 308.322 L 374.832 300.500 372.793 295.750 L 370.754 291 369.484 291 L 368.214 291 367.638 292.500 L 367.063 294 365.918 294 L 364.773 294 365.226 290.914 L 365.679 287.828 363.274 286.914 L 360.870 286 358.685 286.063 L 356.500 286.127 354.352 286.993 M 356 287.645 L 354.500 288.101 352.506 290.801 L 350.511 293.500 350.479 298.500 L 350.447 303.500 351.092 307.931 L 351.738 312.362 350.405 310.539 L 349.072 308.716 348.673 307.608 L 348.274 306.500 347.387 307.334 L 346.500 308.168 346.500 324.334 L 346.500 340.500 349 344.909 L 351.500 349.318 353.172 350.355 L 354.843 351.391 358.661 350.445 L 362.479 349.500 362.847 347.573 L 363.215 345.647 365.325 343.938 L 367.435 342.230 368.557 342.660 L 369.680 343.091 370.773 341.773 L 371.867 340.456 373.785 333.478 L 375.703 326.500 374.910 315.500 L 374.117 304.500 373.165 301.500 L 372.214 298.500 371.075 295.602 L 369.937 292.704 368.652 294.461 L 367.368 296.217 365.434 295.820 L 363.500 295.423 363.720 291.711 L 363.940 288 362.720 287.986 L 361.500 287.973 359.500 287.581 L 357.500 287.189 356 287.645 M 310.424 291.883 L 307.348 293.759 304.174 298.551 L 301 303.343 301 308.255 L 301 313.167 302.250 312.756 L 303.500 312.346 303.774 309.423 L 304.048 306.500 304.550 304.225 L 305.051 301.950 308.642 297.975 L 312.233 294 315.573 294 L 318.913 294 321.369 301.774 L 323.825 309.548 324.517 313.238 L 325.209 316.929 326.516 318.013 L 327.822 319.097 328.378 318.197 L 328.935 317.296 326.497 308.187 L 324.060 299.078 322.614 295.620 L 321.169 292.161 319.150 291.080 L 317.131 290 315.316 290.004 L 313.500 290.007 310.424 291.883 M 255.455 293.792 L 252.410 295.500 249.220 297.927 L 246.030 300.354 244.459 304.468 L 242.888 308.582 243.194 314.462 L 243.500 320.342 244.750 320.754 L 246 321.167 246 315.148 L 246 309.130 247.067 306.315 L 248.133 303.500 250.317 301.153 L 252.500 298.805 256.210 296.903 L 259.920 295 263.954 295 L 267.987 295 270.918 299.046 L 273.850 303.092 275.868 311.656 L 277.887 320.221 278.460 320.794 L 279.033 321.367 279.994 320.406 L 280.955 319.445 279.114 311.973 L 277.272 304.500 276.203 301.861 L 275.134 299.222 271.963 295.611 L 268.793 292 263.646 292.042 L 258.500 292.084 255.455 293.792 M 198.300 323 L 198.300 328.500 198.716 325.750 L 199.133 323 198.716 320.250 L 198.300 317.500 198.300 323 M 227 325.500 L 227 333.333 227.667 332.667 L 228.333 332 228.089 325.255 L 227.844 318.511 227.422 318.089 L 227 317.667 227 325.500 M 284.631 335.899 L 279 343.936 279 345.332 L 279 346.728 282.804 349.364 L 286.608 352 287.304 352 L 288 352 288 350.688 L 288 349.376 285.060 347.203 L 282.121 345.029 287.253 337.508 L 292.386 329.986 291.325 328.925 L 290.263 327.863 284.631 335.899 M 221.793 343.103 L 217.086 348 217.508 348 L 217.930 348 221.503 344.863 L 225.076 341.726 226.073 339.863 L 227.070 338 226.785 338.103 L 226.500 338.205 221.793 343.103 M 275 369.804 L 275 372.608 278.315 375.821 L 281.630 379.033 285.058 380.017 L 288.487 381 291.793 381 L 295.099 381 297.800 379.589 L 300.500 378.179 303.359 375.171 L 306.218 372.163 305.529 371.048 L 304.840 369.933 301.297 373.044 L 297.754 376.155 295.454 377.203 L 293.155 378.250 288.625 377.571 L 284.096 376.892 281.048 374.045 L 278 371.198 278 369.099 L 278 367 276.500 367 L 275 367 275 369.804" stroke="none" fill="#383838" fill-rule="evenodd"/><path d="M 294.265 39.750 L 290.229 42.500 287.601 45.661 L 284.973 48.821 283.486 52.378 L 282 55.936 282 60.331 L 282 64.727 283.020 70.104 L 284.039 75.481 286.877 78.990 L 289.716 82.500 292.445 83 L 295.175 83.500 295.047 113.953 L 294.919 144.406 292.890 162.453 L 290.862 180.500 289.958 189.500 L 289.054 198.500 289.027 202.750 L 289 207 294.420 207 L 299.841 207 300.441 200.750 L 301.042 194.500 302.188 170.500 L 303.335 146.500 303.917 117.130 L 304.500 87.760 312.019 85.107 L 319.538 82.454 323.253 79.620 L 326.969 76.786 328.984 73.525 L 331 70.264 330.990 63.382 L 330.980 56.500 328.633 51.459 L 326.286 46.418 322.893 43.555 L 319.500 40.691 315.500 38.867 L 311.500 37.044 304.900 37.022 L 298.301 37 294.265 39.750 M 238.864 47.771 L 233.500 50.542 231.250 54.983 L 229 59.424 229 66.516 L 229 73.608 231.838 78.054 L 234.676 82.500 239.316 86.750 L 243.955 91 247.357 91 L 250.758 91 251.273 112.750 L 251.788 134.500 253.964 152.500 L 256.139 170.500 258.012 182.500 L 259.886 194.500 259.467 185 L 259.047 175.500 258.398 133.691 L 257.749 91.882 256.407 92.397 L 255.064 92.913 254.392 91.825 L 253.719 90.737 255.415 89.788 L 257.111 88.839 258.130 86.169 L 259.149 83.500 260.415 85.223 L 261.680 86.945 265.670 84.011 L 269.660 81.077 270.771 77.288 L 271.882 73.500 271.015 69 L 270.148 64.500 269.187 61.983 L 268.227 59.467 264.190 54.360 L 260.153 49.253 255.761 47.126 L 251.369 45 247.798 45 L 244.228 45 238.864 47.771 M 307.194 137.500 L 306.986 141.500 306.497 148.500 L 306.009 155.500 307.045 152.201 L 308.082 148.903 307.742 141.201 L 307.402 133.500 307.194 137.500 M 287.750 171.577 L 287 172.333 287.063 175.417 L 287.127 178.500 288.101 176.062 L 289.074 173.625 288.787 172.223 L 288.500 170.821 287.750 171.577 M 430 174.432 L 426.500 175.722 425.667 175.778 L 424.833 175.833 424.250 176.417 L 423.667 177 424.583 176.994 L 425.500 176.989 429.214 175.957 L 432.928 174.926 433.523 173.963 L 434.118 173 433.809 173.070 L 433.500 173.141 430 174.432 M 445.292 176.742 L 452.083 177.093 458.292 176.739 L 464.500 176.385 451.500 176.389 L 438.500 176.392 445.292 176.742 M 426 179.872 L 417.500 182.668 412 185.472 L 406.500 188.277 400.596 192.281 L 394.691 196.284 390.730 199.862 L 386.770 203.441 378.925 215.297 L 371.081 227.153 365.387 238.598 L 359.693 250.044 362.875 254.476 L 366.057 258.907 367.490 262.203 L 368.922 265.500 368.961 263.905 L 369 262.310 364.929 256.011 L 360.858 249.713 366.388 238.606 L 371.919 227.500 378.903 216.780 L 385.888 206.060 390.246 201.702 L 394.604 197.344 400.861 193.095 L 407.118 188.845 414.309 185.461 L 421.500 182.076 430 179.591 L 438.500 177.106 436.500 177.091 L 434.500 177.076 426 179.872 M 485.561 177.918 L 486.500 178.813 493.355 180.906 L 500.211 183 501.355 182.970 L 502.500 182.939 500.938 182.025 L 499.377 181.111 492 179.067 L 484.623 177.023 485.561 177.918 M 483 181.254 L 483 181.741 494.063 184.974 L 505.126 188.207 505.552 187.782 L 505.977 187.356 496.238 184.562 L 486.500 181.768 484.750 181.267 L 483 180.767 483 181.254 M 263.605 193.769 L 264.260 204.038 265.104 207.269 L 265.949 210.500 265.613 198.910 L 265.278 187.319 264.114 185.410 L 262.950 183.500 263.605 193.769 M 399.250 188.115 L 396 190.196 396 190.598 L 396 191 396.944 191 L 397.888 191 400.694 188.532 L 403.500 186.063 403 186.048 L 402.500 186.034 399.250 188.115 M 516.507 191.325 L 522.513 193.725 528.546 196.771 L 534.579 199.816 542.540 205.765 L 550.500 211.714 557.177 218.607 L 563.855 225.500 567.741 230.500 L 571.627 235.500 577.191 243.500 L 582.756 251.500 584.814 255.585 L 586.872 259.669 588.354 266.585 L 589.837 273.500 589.907 271 L 589.976 268.500 588.574 263.234 L 587.172 257.967 583.955 252.234 L 580.739 246.500 572.136 235.016 L 563.533 223.533 555.989 216.016 L 548.446 208.500 540.700 203.175 L 532.955 197.849 524.727 194 L 516.500 190.152 513.500 189.538 L 510.500 188.924 516.507 191.325 M 526 190.375 L 526 190.916 530.338 193.458 L 534.676 196 535.397 196 L 536.118 196 535.491 194.985 L 534.863 193.970 531.182 192.288 L 527.500 190.605 526.750 190.219 L 526 189.833 526 190.375 M 284.835 199.598 L 284.500 206.196 285.250 206.657 L 286 207.118 286 200.059 L 286 193 285.585 193 L 285.171 193 284.835 199.598 M 289.750 210.571 L 289 211.333 289 223.167 L 289 235 292.393 235 L 295.786 235 296.279 233.715 L 296.773 232.429 298.559 222.221 L 300.346 212.013 299.722 211.389 L 299.099 210.765 294.799 210.287 L 290.500 209.809 289.750 210.571 M 284.442 214.447 L 284.561 217.895 285.281 218.614 L 286 219.333 286 215.167 L 286 211 285.161 211 L 284.322 211 284.442 214.447 M 261.374 225.500 L 261.378 236.500 261.740 230.713 L 262.102 224.927 261.736 219.713 L 261.370 214.500 261.374 225.500 M 359.143 241.643 L 356.909 246.242 357.454 246.788 L 358 247.333 358.311 246.917 L 358.622 246.500 360.300 242.073 L 361.978 237.645 361.678 237.345 L 361.377 237.044 359.143 241.643 M 266.250 238.662 L 265 239.167 265 247.083 L 265 255 263.500 255 L 262 255 261.820 247.250 L 261.640 239.500 261.262 244.314 L 260.885 249.128 259.693 248.737 L 258.500 248.346 258.184 245.673 L 257.867 243 257.128 243 L 256.389 243 252.944 245.547 L 249.500 248.094 247.623 247.607 L 245.745 247.121 243.315 248.713 L 240.885 250.306 239.089 253.903 L 237.292 257.500 235.674 267 L 234.055 276.500 233.586 283 L 233.118 289.500 234.482 296 L 235.847 302.500 236.358 305.547 L 236.869 308.594 236.093 309.850 L 235.317 311.106 233.908 310.803 L 232.500 310.500 231.506 329.500 L 230.511 348.500 230.625 381 L 230.740 413.500 233.264 421.500 L 235.789 429.500 238.444 437 L 241.098 444.500 244.660 451 L 248.221 457.500 256.225 468.228 L 264.228 478.957 270.364 484.001 L 276.500 489.046 289.484 493.139 L 302.468 497.233 311.732 499.097 L 320.996 500.960 335.748 501.976 L 350.500 502.991 356 504.042 L 361.500 505.093 382.500 505.981 L 403.500 506.870 418.500 508.938 L 433.500 511.006 447.004 511.646 L 460.509 512.286 478.004 510.556 L 495.500 508.825 497.715 507.413 L 499.930 506 513.151 506 L 526.372 506 533.936 503.884 L 541.500 501.767 560.953 493.859 L 580.407 485.952 584.537 483.531 L 588.667 481.111 594.637 474.729 L 600.606 468.348 603.175 463.924 L 605.745 459.500 606.440 457.250 L 607.135 455 596.317 455.008 L 585.500 455.015 579.500 455.972 L 573.500 456.929 540.500 458.038 L 507.500 459.146 491.312 459.701 L 475.123 460.256 463.812 457.528 L 452.500 454.800 443.732 452.408 L 434.963 450.015 429.732 447.375 L 424.500 444.735 414.140 437.696 L 403.780 430.657 398.138 425.078 L 392.496 419.500 388.160 413.326 L 383.824 407.153 377.856 400.326 L 371.888 393.500 370.566 391 L 369.243 388.500 368.007 383 L 366.770 377.500 366.135 365.500 L 365.500 353.500 364 353.877 L 362.500 354.255 358.617 355.283 L 354.733 356.311 351.293 354.459 L 347.854 352.606 345.477 348.552 L 343.101 344.497 341.933 334.999 L 340.765 325.500 341.317 317.487 L 341.869 309.474 343.008 306.487 L 344.147 303.500 344.547 296 L 344.947 288.500 345.016 285.780 L 345.085 283.060 342.053 276.947 L 339.020 270.835 330.959 259.502 L 322.898 248.170 314.925 244.022 L 306.952 239.874 302.759 239.687 L 298.566 239.500 298.023 242.500 L 297.480 245.500 296.490 245.271 L 295.500 245.042 295.190 241.521 L 294.879 238 291.872 238 L 288.865 238 289.473 239.916 L 290.081 241.832 289.045 242.472 L 288.009 243.113 286.844 240.556 L 285.679 238 276.589 238.079 L 267.500 238.158 266.250 238.662 M 312 238.483 L 312 238.966 316.967 241.483 L 321.934 244 322.526 244 L 323.118 244 322.518 243.028 L 321.917 242.057 317.331 240.028 L 312.746 238 312.373 238 L 312 238 312 238.483 M 465.500 239.921 L 474.500 240.675 480.659 243.806 L 486.818 246.937 492.822 252.496 L 498.827 258.055 501.924 262.882 L 505.022 267.709 507.680 274.105 L 510.338 280.500 513.623 291 L 516.909 301.500 516.954 299.807 L 517 298.115 513.611 287.807 L 510.222 277.500 507.651 271.716 L 505.080 265.932 500.991 260.103 L 496.903 254.275 491.701 250.033 L 486.500 245.792 480.500 242.720 L 474.500 239.648 465.500 239.408 L 456.500 239.167 465.500 239.921 M 581.411 242.539 L 583.321 245.500 585.661 248.982 L 588 252.464 588 251.428 L 588 250.392 585.098 245.815 L 582.196 241.239 580.848 240.408 L 579.500 239.577 581.411 242.539 M 437.267 244.453 L 428.034 247.806 416.371 253.414 L 404.708 259.022 394.104 265.643 L 383.500 272.264 376.866 277.581 L 370.232 282.899 369.616 282.283 L 369 281.667 369 283.333 L 369 285 369.804 285 L 370.608 285 374.054 281.360 L 377.500 277.719 389.500 269.769 L 401.500 261.819 415.500 254.953 L 429.500 248.087 440 244.561 L 450.500 241.034 448.500 241.067 L 446.500 241.100 437.267 244.453 M 452.500 244.026 L 449.500 244.816 456.500 244.271 L 463.500 243.727 463.917 243.363 L 464.333 243 459.917 243.118 L 455.500 243.237 452.500 244.026 M 472.158 244.389 L 476.815 245.644 482.524 249.072 L 488.233 252.500 493.688 258.500 L 499.144 264.500 502.526 271.500 L 505.908 278.500 505.954 277.643 L 506 276.786 502.842 270.143 L 499.685 263.500 492.476 256.271 L 485.267 249.041 478.884 246.022 L 472.500 243.002 470 243.068 L 467.500 243.135 472.158 244.389 M 427.500 252.313 L 415.500 257.528 408.500 261.364 L 401.500 265.200 390.500 272.537 L 379.500 279.874 377 282.219 L 374.500 284.565 373.191 286.206 L 371.882 287.848 374.099 292.174 L 376.317 296.500 377.648 301 L 378.978 305.500 378.406 301.500 L 377.833 297.500 375.321 292.500 L 372.809 287.500 378.316 282.500 L 383.822 277.500 394.137 271.087 L 404.451 264.674 411.687 260.771 L 418.923 256.868 430.712 251.962 L 442.500 247.057 441 247.077 L 439.500 247.098 427.500 252.313 M 354.032 255.244 L 352.744 259.500 351.372 266 L 350 272.499 350.063 273 L 350.127 273.500 351.074 271.134 L 352.021 268.769 354.103 260.311 L 356.186 251.852 355.753 251.420 L 355.320 250.987 354.032 255.244 M 355.984 264.569 L 353.804 274.138 354.242 274.575 L 354.679 275.012 355.918 269.256 L 357.157 263.500 358.151 259.624 L 359.145 255.749 361.469 259.168 L 363.792 262.588 364.891 266.544 L 365.989 270.500 365.994 276.750 L 366 283 360.060 283 L 354.121 283 353.728 279.250 L 353.336 275.500 353.168 279.665 L 353 283.829 359.491 284.165 L 365.983 284.500 366.491 283.168 L 367 281.836 367 276.077 L 367 270.318 365.620 265.731 L 364.239 261.145 362.052 258.072 L 359.864 255 359.014 255 L 358.164 255 355.984 264.569 M 232.660 258.675 L 232.138 260.500 230.982 266.329 L 229.825 272.159 230.327 272.660 L 230.828 273.161 232.526 265.526 L 234.225 257.892 233.704 257.370 L 233.183 256.849 232.660 258.675 M 592.557 267.500 L 593.079 270.500 594 276.500 L 594.922 282.500 594.521 275.268 L 594.119 268.036 593.077 266.268 L 592.034 264.500 592.557 267.500 M 590.423 294.500 L 590.425 315.500 590.747 304.696 L 591.069 293.891 590.745 283.696 L 590.422 273.500 590.423 294.500 M 348.805 278.872 L 348.384 281.744 349.122 283.622 L 349.859 285.500 349.930 280.750 L 350 276 349.613 276 L 349.227 276 348.805 278.872 M 506.470 280.834 L 507.188 283.169 509.520 289.834 L 511.851 296.500 511.926 295.425 L 512 294.350 509.504 287.013 L 507.009 279.675 506.380 279.088 L 505.752 278.500 506.470 280.834 M 310.424 291.883 L 307.348 293.759 304.174 298.551 L 301 303.343 301 308.255 L 301 313.167 302.250 312.756 L 303.500 312.346 303.774 309.423 L 304.048 306.500 304.550 304.225 L 305.051 301.950 308.642 297.975 L 312.233 294 315.573 294 L 318.913 294 321.369 301.774 L 323.825 309.548 324.517 313.238 L 325.209 316.929 326.516 318.013 L 327.822 319.097 328.378 318.197 L 328.935 317.296 326.497 308.187 L 324.060 299.078 322.614 295.620 L 321.169 292.161 319.150 291.080 L 317.131 290 315.316 290.004 L 313.500 290.007 310.424 291.883 M 364.136 291.781 L 364 294.063 365.423 294.609 L 366.845 295.155 368.923 293.077 L 371 291 369.607 291 L 368.214 291 367.638 292.500 L 367.063 294 366.101 294 L 365.139 294 364.706 291.750 L 364.272 289.500 364.136 291.781 M 255.455 293.792 L 252.410 295.500 249.220 297.927 L 246.030 300.354 244.459 304.468 L 242.888 308.582 243.194 314.462 L 243.500 320.342 244.750 320.754 L 246 321.167 246 315.148 L 246 309.130 247.067 306.315 L 248.133 303.500 250.317 301.153 L 252.500 298.805 256.210 296.903 L 259.920 295 263.954 295 L 267.987 295 270.918 299.046 L 273.850 303.092 275.868 311.656 L 277.887 320.221 278.460 320.794 L 279.033 321.367 279.994 320.406 L 280.955 319.445 279.114 311.973 L 277.272 304.500 276.203 301.861 L 275.134 299.222 271.963 295.611 L 268.793 292 263.646 292.042 L 258.500 292.084 255.455 293.792 M 349 301.059 L 349 304.118 348.125 303.577 L 347.250 303.036 346.016 307.442 L 344.783 311.847 345.180 327.174 L 345.578 342.500 347.269 345.662 L 348.960 348.823 351.687 350.968 L 354.413 353.113 356.957 352.522 L 359.500 351.931 362.250 350.844 L 365 349.757 365 347.379 L 365 345 366.500 345 L 368 345 368 346.122 L 368 347.245 369.573 345.939 L 371.146 344.634 372.951 341.067 L 374.756 337.500 375.345 334 L 375.934 330.500 374.579 334.584 L 373.223 338.668 371.487 342.024 L 369.752 345.381 368.597 343.802 L 367.443 342.223 365.329 343.935 L 363.215 345.647 362.847 347.573 L 362.479 349.500 358.661 350.445 L 354.843 351.391 353.172 350.355 L 351.500 349.318 349.071 344.970 L 346.642 340.623 346.241 327.561 L 345.840 314.500 346.758 310.500 L 347.676 306.500 348.838 306.750 L 350 307 350 302.500 L 350 298 349.500 298 L 349 298 349 301.059 M 513.180 302 L 513.123 303.500 514.464 310 L 515.804 316.500 515.806 313.500 L 515.808 310.500 514.523 305.500 L 513.238 300.500 513.180 302 M 379.336 313 L 379.336 320.500 379.728 316.750 L 380.121 313 379.728 309.250 L 379.336 305.500 379.336 313 M 376.355 321.500 L 376.349 330.500 376.731 326.280 L 377.112 322.060 376.736 317.280 L 376.360 312.500 376.355 321.500 M 516.409 334.500 L 516.407 351.500 516.743 343.299 L 517.079 335.098 516.745 326.299 L 516.411 317.500 516.409 334.500 M 520.395 335.500 L 520.397 349.500 520.743 342.206 L 521.089 334.912 520.741 328.206 L 520.392 321.500 520.395 335.500 M 284.631 335.899 L 279 343.936 279 345.332 L 279 346.728 282.804 349.364 L 286.608 352 287.304 352 L 288 352 288 350.688 L 288 349.376 285.060 347.203 L 282.121 345.029 287.253 337.508 L 292.386 329.986 291.325 328.925 L 290.263 327.863 284.631 335.899 M 442.864 332.794 L 437.500 335.588 434.250 340.532 L 431 345.477 431.040 346.989 L 431.080 348.500 433.056 344.537 L 435.033 340.575 437.767 337.661 L 440.500 334.748 444.500 332.896 L 448.500 331.044 453.527 331.022 L 458.555 331 460.886 332.633 L 463.216 334.265 465.086 338.383 L 466.956 342.500 466.978 341.200 L 467 339.901 465.520 337.039 L 464.040 334.177 461.385 332.088 L 458.730 330 453.479 330 L 448.228 330 442.864 332.794 M 458.852 335.647 L 461.203 337.583 462.621 342.542 L 464.038 347.500 463.545 343.523 L 463.052 339.547 461.215 337.087 L 459.378 334.626 457.939 334.168 L 456.500 333.710 458.852 335.647 M 442.411 337.013 L 439.322 338.993 436.661 343.882 L 434 348.771 434.010 350.135 L 434.020 351.500 436.377 346.500 L 438.735 341.500 441.118 339.387 L 443.500 337.273 445.500 336.167 L 447.500 335.061 446.500 335.047 L 445.500 335.034 442.411 337.013 M 581.177 349.234 L 576.864 362.500 572.119 373.079 L 567.373 383.659 560.828 393.579 L 554.284 403.500 548.392 409.202 L 542.500 414.904 532.500 422.509 L 522.500 430.115 514.500 435.406 L 506.500 440.697 501.245 443.510 L 495.990 446.323 496.358 446.692 L 496.727 447.060 506.194 441.699 L 515.660 436.337 532.458 423.457 L 549.255 410.577 554.526 404.039 L 559.798 397.500 564.820 389.215 L 569.842 380.930 574.417 370.091 L 578.992 359.252 582.507 348.409 L 586.022 337.565 585.756 336.767 L 585.489 335.968 581.177 349.234 M 376.222 340.793 L 375.213 343.688 372.106 347.226 L 369 350.764 369.099 360.132 L 369.198 369.500 369.949 375 L 370.699 380.500 370.197 365.807 L 369.694 351.113 372.914 347.445 L 376.134 343.778 377.095 341.250 L 378.056 338.723 377.644 338.310 L 377.231 337.898 376.222 340.793 M 467.185 348.281 L 467 354.063 465.457 354.655 L 463.914 355.247 463.314 354.648 L 462.715 354.048 463.940 352.572 L 465.165 351.096 464.699 349.298 L 464.232 347.500 464.116 349.550 L 464 351.600 462.887 352.713 L 461.774 353.826 462.446 354.913 L 463.118 356 465.090 356 L 467.063 356 467.588 354.631 L 468.114 353.262 467.742 347.881 L 467.370 342.500 467.185 348.281 M 518.284 356.174 L 517.096 362.429 517.459 362.792 L 517.822 363.155 519.040 357.714 L 520.257 352.272 519.865 351.096 L 519.473 349.919 518.284 356.174 M 226.419 371 L 226.419 390.500 226.746 380.750 L 227.072 371 226.746 361.250 L 226.419 351.500 226.419 371 M 433.336 359 L 433.336 366.500 433.728 362.750 L 434.121 359 433.728 355.250 L 433.336 351.500 433.336 359 M 514.250 357.539 L 513.012 363.500 510.132 369.500 L 507.251 375.500 504.376 378.179 L 501.500 380.858 497 383.417 L 492.500 385.976 493.300 385.988 L 494.099 386 497.109 384.443 L 500.119 382.887 504.137 379.257 L 508.155 375.627 510.489 371.021 L 512.824 366.415 514.484 360.702 L 516.145 354.990 515.816 353.284 L 515.487 351.577 514.250 357.539 M 580.579 362.579 L 577.911 369.244 578.427 369.761 L 578.944 370.277 579.989 367.389 L 581.034 364.500 582.673 360.740 L 584.313 356.980 583.780 356.447 L 583.247 355.914 580.579 362.579 M 430.462 369.175 L 430.840 374.850 432.773 379.175 L 434.706 383.500 437.590 386.351 L 440.474 389.201 444.206 391.105 L 447.939 393.010 453.680 394.505 L 459.420 396 463.960 395.870 L 468.500 395.741 461.398 394.912 L 454.297 394.083 448.819 392.033 L 443.341 389.984 439.249 386.481 L 435.157 382.979 433.482 378.592 L 431.806 374.205 430.946 368.852 L 430.085 363.500 430.462 369.175 M 513.606 370.621 L 510.712 377.011 506.268 381.107 L 501.824 385.203 495.662 388.130 L 489.500 391.057 492 390.399 L 494.500 389.741 499.284 387.336 L 504.069 384.931 507.826 381.060 L 511.583 377.188 514.354 371.530 L 517.124 365.872 516.812 365.052 L 516.500 364.231 513.606 370.621 M 275 369.804 L 275 372.608 278.315 375.821 L 281.630 379.033 285.058 380.017 L 288.487 381 291.793 381 L 295.099 381 297.800 379.589 L 300.500 378.179 303.359 375.171 L 306.218 372.163 305.529 371.048 L 304.840 369.933 301.297 373.044 L 297.754 376.155 295.454 377.203 L 293.155 378.250 288.625 377.571 L 284.096 376.892 281.048 374.045 L 278 371.198 278 369.099 L 278 367 276.500 367 L 275 367 275 369.804 M 434.427 370.713 L 434.800 374.926 436.650 378.693 L 438.500 382.460 442.828 385.730 L 447.155 389 448.191 389 L 449.226 389 444.363 385.750 L 439.500 382.500 437.715 378.848 L 435.929 375.197 434.992 370.848 L 434.055 366.500 434.427 370.713 M 371.033 382.282 L 371 384.064 372.479 387.605 L 373.959 391.146 379.371 397.323 L 384.782 403.500 391.467 412.500 L 398.152 421.500 404.899 427.033 L 411.647 432.566 421.299 438.819 L 430.952 445.072 437.499 447.536 L 444.046 450 445.273 449.945 L 446.500 449.891 439.530 447.322 L 432.561 444.754 426.030 440.662 L 419.500 436.571 412 431.090 L 404.500 425.610 400.161 421.055 L 395.822 416.500 389.797 408.500 L 383.773 400.500 383.137 399.976 L 382.500 399.451 378.622 395.303 L 374.745 391.155 372.905 385.827 L 371.065 380.500 371.033 382.282 M 484.500 388.038 L 478.500 389.840 475 390.056 L 471.500 390.272 473.851 390.719 L 476.203 391.166 482.878 389.530 L 489.554 387.894 491.027 386.962 L 492.500 386.031 491.500 386.134 L 490.500 386.236 484.500 388.038 M 460.250 391.728 L 464 392.121 467.750 391.728 L 471.500 391.336 464 391.336 L 456.500 391.336 460.250 391.728 M 229.126 423 L 229.090 424.500 230.464 427.500 L 231.838 430.500 231.874 429 L 231.910 427.500 230.536 424.500 L 229.162 421.500 229.126 423 M 514.253 440.259 L 506.005 445.339 506.435 445.768 L 506.865 446.198 511.682 443.555 L 516.500 440.912 520 437.983 L 523.500 435.054 523 435.117 L 522.500 435.180 514.253 440.259 M 489 448.578 L 484.500 449.960 488.500 449.389 L 492.500 448.817 494 447.939 L 495.500 447.061 494.500 447.129 L 493.500 447.196 489 448.578 M 460 453.535 L 473.500 456.907 478.500 456.854 L 483.500 456.801 481 456.053 L 478.500 455.305 481 454.819 L 483.500 454.332 477 454.416 L 470.500 454.500 470.734 453 L 470.968 451.500 469.848 453.078 L 468.727 454.656 459.114 452.330 L 449.500 450.004 448 450.084 L 446.500 450.163 460 453.535 M 476 451 L 471.500 451.700 475.500 451.750 L 479.500 451.801 482 451 L 484.500 450.199 482.500 450.250 L 480.500 450.300 476 451 M 559.500 497.720 L 555.500 499.336 553.527 500.668 L 551.555 502 552.810 502 L 554.064 502 557.552 500.543 L 561.040 499.085 563.243 497.543 L 565.445 496 564.473 496.052 L 563.500 496.103 559.500 497.720 M 381.250 509.716 L 384 510.133 386.750 509.716 L 389.500 509.300 384 509.300 L 378.500 509.300 381.250 509.716" stroke="none" fill="#95b3ff" fill-rule="evenodd"/><path d="M 430 179.591 L 421.500 182.076 414.309 185.461 L 407.118 188.845 400.861 193.095 L 394.604 197.344 390.246 201.702 L 385.888 206.060 378.903 216.780 L 371.919 227.500 366.357 238.670 L 360.794 249.841 364.085 254.623 L 367.375 259.406 368.644 262.953 L 369.912 266.500 369.956 274.793 L 370 283.086 376.750 277.675 L 383.500 272.264 394.170 265.601 L 404.840 258.939 417.170 253.065 L 429.500 247.190 438.017 244.205 L 446.535 241.220 454.266 239.973 L 461.998 238.726 468.261 239.229 L 474.525 239.732 480.554 242.775 L 486.582 245.818 491.829 250.175 L 497.076 254.532 501.524 260.923 L 505.971 267.314 509.960 277.517 L 513.950 287.720 516.453 297.625 L 518.957 307.531 520.105 318.015 L 521.252 328.500 520.697 341.500 L 520.142 354.500 518.142 361.248 L 516.142 367.996 513.830 372.626 L 511.518 377.256 507.668 381.223 L 503.817 385.191 497.659 388.072 L 491.500 390.954 484 392.861 L 476.500 394.768 468.384 395.476 L 460.268 396.184 454.136 394.613 L 448.003 393.042 444.238 391.122 L 440.474 389.201 437.590 386.351 L 434.706 383.500 432.788 379.209 L 430.870 374.918 429.923 365.764 L 428.976 356.610 430.107 350.862 L 431.238 345.114 434.369 340.351 L 437.500 335.588 442.864 332.794 L 448.228 330 453.714 330 L 459.200 330 462.510 333.310 L 465.821 336.621 466.961 340.856 L 468.101 345.090 467.801 350.286 L 467.500 355.481 465.644 355.834 L 463.788 356.188 462.812 355.212 L 461.836 354.236 463.031 352.322 L 464.226 350.408 463.012 344.557 L 461.797 338.706 459.385 336.294 L 456.972 333.882 452.236 334.571 L 447.500 335.260 444.869 336.594 L 442.238 337.928 439.717 340.925 L 437.196 343.921 435.452 348.486 L 433.709 353.050 434.269 362.275 L 434.829 371.500 436.682 376.462 L 438.535 381.425 442.834 384.704 L 447.133 387.983 452.794 389.629 L 458.456 391.274 467.978 390.669 L 477.500 390.064 484.852 388 L 492.205 385.936 496.074 383.962 L 499.944 381.988 503.536 378.834 L 507.128 375.680 509.630 370.744 L 512.131 365.808 514.065 358.244 L 516 350.680 516 334.391 L 516 318.102 514.004 307.760 L 512.009 297.418 508.607 287.317 L 505.205 277.215 502.166 270.849 L 499.128 264.482 493.681 258.491 L 488.233 252.500 482.546 249.085 L 476.859 245.670 471.876 244.378 L 466.894 243.086 458.279 244.139 L 449.664 245.193 442.501 247.531 L 435.338 249.869 424.654 254.548 L 413.971 259.227 402.278 266.174 L 390.585 273.121 384.542 277.459 L 378.500 281.796 375.713 284.742 L 372.925 287.687 375.355 292.594 L 377.785 297.500 378.892 302.799 L 380 308.098 380 319.734 L 380 331.369 378.379 337.146 L 376.758 342.922 373.379 346.870 L 370 350.818 370.008 359.159 L 370.015 367.500 370.965 375.759 L 371.915 384.018 373.867 388.259 L 375.819 392.500 379.935 396.698 L 384.051 400.895 389.936 408.698 L 395.822 416.500 400.161 421.055 L 404.500 425.610 412 431.090 L 419.500 436.571 426.075 440.691 L 432.650 444.810 440.075 447.320 L 447.500 449.830 458 452.189 L 468.500 454.548 470.250 452.774 L 472 451 475.250 450.993 L 478.500 450.986 486.764 449.005 L 495.028 447.024 503.264 442.364 L 511.500 437.705 517 433.881 L 522.500 430.057 532.500 422.480 L 542.500 414.904 548.392 409.202 L 554.284 403.500 560.832 393.574 L 567.380 383.648 572.115 373.036 L 576.851 362.424 580.986 349.962 L 585.122 337.500 587.186 329.500 L 589.250 321.500 589.731 298.825 L 590.212 276.150 588.542 267.910 L 586.872 259.670 584.814 255.585 L 582.756 251.500 577.191 243.500 L 571.627 235.500 567.741 230.500 L 563.855 225.500 557.177 218.607 L 550.500 211.714 542.500 205.702 L 534.500 199.690 525.500 195.404 L 516.500 191.119 505 188.010 L 493.500 184.901 485.500 182.371 L 477.500 179.840 470.162 178.420 L 462.824 177 450.662 177.053 L 438.500 177.106 430 179.591 M 358.651 257.659 L 358.111 259.500 356.055 268.329 L 354 277.158 354 280.079 L 354 283 360 283 L 366 283 365.994 276.750 L 365.989 270.500 364.891 266.544 L 363.792 262.588 361.492 259.203 L 359.192 255.819 358.651 257.659 M 351.551 290.344 L 349 293.689 349.076 296.094 L 349.152 298.500 350.326 295.464 L 351.500 292.429 353 290.372 L 354.500 288.316 356 287.737 L 357.500 287.158 355.801 287.079 L 354.102 287 351.551 290.344 M 363.260 292.990 L 363.500 295.480 365.434 295.849 L 367.368 296.217 368.674 294.431 L 369.980 292.645 371.106 295.873 L 372.231 299.102 372.620 298.713 L 373.009 298.324 371.907 295.162 L 370.804 292 369.871 292 L 368.937 292 368.362 293.500 L 367.786 295 366.361 295 L 364.936 295 363.978 292.750 L 363.020 290.500 363.260 292.990 M 350 305.559 L 350 307.118 348.917 306.449 L 347.835 305.780 349.443 308.890 L 351.051 312 351.302 312 L 351.553 312 351.171 308 L 350.790 304 350.395 304 L 350 304 350 305.559 M 375.328 317.500 L 375.336 324.500 375.730 320.728 L 376.123 316.955 375.722 313.728 L 375.320 310.500 375.328 317.500 M 481 455 L 478.500 455.801 481.500 455.885 L 484.500 455.969 486 455 L 487.500 454.031 485.500 454.115 L 483.500 454.199 481 455" stroke="none" fill="#bbdbff" fill-rule="evenodd"/></svg>