<?xml version="1.0" encoding="utf-8"?>
<!-- Generator: Adobe Illustrator 28.1.0, SVG Export Plug-In . SVG Version: 6.00 Build 0)  -->
<svg version="1.1" id="Capa_1" xmlns="http://www.w3.org/2000/svg" xmlns:xlink="http://www.w3.org/1999/xlink" x="0px" y="0px"
	 viewBox="0 0 800 800" style="enable-background:new 0 0 800 800;" xml:space="preserve">
<style type="text/css">
	.st0{stroke:#000000;stroke-width:31;stroke-miterlimit:10;}
</style>
<g>
	<g>
		<path d="M702.3,95.6H97.8c-54,0-97.8,43.9-97.8,97.8v413.2c0,54,43.9,97.8,97.8,97.8h604.3c54,0,97.8-43.9,97.8-97.8v-413
			C800.2,139.6,756.3,95.6,702.3,95.6z M736,586.5c0,26.1-22.5,47.3-50.2,47.3h-571c-27.7,0-50.2-21.2-50.2-47.3v-368
			c0-26.1,22.5-47.3,50.2-47.3h570.8c27.7,0,50.2,21.2,50.2,47.3v368H736z"/>
		<path class="st0" d="M491.3,397.9l170.5-152.9c7.9-7.2,8.7-19.5,1.4-27.5c-7.2-7.9-19.5-8.7-27.5-1.4l-235.1,211l-45.9-41
			c-0.1-0.1-0.3-0.3-0.3-0.4c-1-1-2-1.9-3.2-2.7l-186.6-167c-8.1-7.2-20.3-6.5-27.5,1.6s-6.5,20.3,1.6,27.5l172.5,154.2L139.4,560
			c-7.8,7.4-8.2,19.6-0.9,27.5c3.9,4,9.1,6.2,14.3,6.2c4.8,0,9.5-1.7,13.3-5.2l174.4-163.1l47.3,42.3c3.7,3.3,8.4,4.9,13,4.9
			c4.6,0,9.4-1.7,13-5l48.6-43.6l173.3,164.7c3.7,3.6,8.7,5.3,13.4,5.3c5.2,0,10.2-2,14.1-6.1c7.4-7.8,7.1-20.2-0.7-27.5
			L491.3,397.9z"/>
	</g>
</g>
</svg>
