<svg xmlns="http://www.w3.org/2000/svg" width="599" height="658" viewBox="0 0 599 658" version="1.1"><path d="M 425.280 58.736 L 430.060 59.112 434.280 58.731 L 438.500 58.349 429.500 58.355 L 420.500 58.360 425.280 58.736 M 368.195 59.746 L 378.889 60.067 390.195 59.747 L 401.500 59.428 379.500 59.426 L 357.500 59.425 368.195 59.746 M 180.392 102 L 180.392 115.500 180.742 108.750 L 181.091 102 180.742 95.250 L 180.392 88.500 180.392 102 M 254.349 188 L 254.349 196.500 254.732 192.250 L 255.115 188 254.732 183.750 L 254.349 179.500 254.349 188 M 188.343 250.500 L 188.349 258.500 188.733 254.224 L 189.118 249.947 188.727 246.224 L 188.336 242.500 188.343 250.500 M 473.966 305.750 L 468.500 311.500 474.250 306.034 L 480 300.568 480 300.284 L 480 300 479.716 300 L 479.432 300 473.966 305.750 M 314.776 345.733 L 319.053 346.118 322.776 345.727 L 326.500 345.336 318.500 345.343 L 310.500 345.349 314.776 345.733 M 338.280 349.736 L 343.060 350.112 347.280 349.731 L 351.500 349.349 342.500 349.355 L 333.500 349.360 338.280 349.736 M 286.199 350.744 L 294.899 351.076 304.199 350.746 L 313.500 350.415 295.500 350.413 L 277.500 350.411 286.199 350.744 M 380.250 408.716 L 383 409.133 385.750 408.716 L 388.500 408.300 383 408.300 L 377.500 408.300 380.250 408.716 M 562.300 433 L 562.300 438.500 562.716 435.750 L 563.133 433 562.716 430.250 L 562.300 427.500 562.300 433 M 225.053 474.390 L 222.928 478.781 223.214 489.129 L 223.500 499.478 226.145 500.743 L 228.791 502.009 234.757 502.632 L 240.724 503.256 241.364 502.219 L 242.005 501.182 240.950 493.594 L 239.894 486.006 237.931 480.301 L 235.969 474.595 233.810 472.298 L 231.651 470 229.415 470 L 227.178 470 225.053 474.390 M 414.292 473.742 L 421.083 474.093 427.292 473.739 L 433.500 473.385 420.500 473.389 L 407.500 473.392 414.292 473.742 M 228.734 513.088 L 224.969 513.975 221.093 515.953 L 217.216 517.930 213.608 521.333 L 210 524.736 209.844 530.618 L 209.689 536.500 209.908 538.915 L 210.127 541.329 212.174 545.415 L 214.220 549.500 216.860 552.339 L 219.500 555.179 222.200 556.589 L 224.901 558 234.200 557.978 L 243.500 557.956 247.500 556.033 L 251.500 554.110 253.041 552.805 L 254.581 551.500 257.291 547.906 L 260 544.311 260 543.281 L 260 542.250 256.802 541.610 L 253.604 540.971 248.857 536.046 L 244.109 531.120 242.932 526.810 L 241.754 522.500 242.740 519 L 243.725 515.500 244.469 513.750 L 245.214 512 238.857 512.100 L 232.500 512.201 228.734 513.088 M 230.280 562.736 L 235.060 563.112 239.280 562.731 L 243.500 562.349 234.500 562.355 L 225.500 562.360 230.280 562.736" stroke="none" fill="#a6a6a6" fill-rule="evenodd"/><path d="M 486 34.648 L 481.500 35.057 473 36.577 L 464.500 38.096 454.383 43.001 L 444.265 47.906 441.128 50.546 L 437.991 53.185 390.246 54.035 L 342.500 54.884 331.500 57.001 L 320.500 59.118 313.745 61.103 L 306.990 63.088 291.860 69.088 L 276.730 75.088 273.867 76.569 L 271.004 78.049 265.798 73.935 L 260.593 69.820 254.046 66.540 L 247.500 63.260 241.239 60.992 L 234.978 58.724 218.239 59.269 L 201.500 59.814 196.837 61.471 L 192.174 63.129 188.771 66.434 L 185.367 69.739 181.478 75.600 L 177.588 81.460 176.250 86.480 L 174.911 91.500 175.562 108 L 176.213 124.500 177.544 131 L 178.875 137.500 183.350 149.068 L 187.825 160.635 188.947 164.802 L 190.069 168.968 192.360 171.632 L 194.651 174.295 192.308 183.898 L 189.965 193.500 186.482 211.775 L 183 230.051 183.031 242.275 L 183.062 254.500 183.988 261.629 L 184.915 268.758 187.817 277.129 L 190.719 285.500 194.488 293 L 198.256 300.500 202.816 308.425 L 207.376 316.349 214.528 323.425 L 221.679 330.500 232.589 336.646 L 243.500 342.792 250.500 345.279 L 257.500 347.765 263.306 348.965 L 269.112 350.165 268.731 351.332 L 268.350 352.500 260.348 356.500 L 252.346 360.500 242.923 368.671 L 233.500 376.842 224.900 385.671 L 216.301 394.500 208.400 404.307 L 200.500 414.114 197.750 418.258 L 195 422.402 195 423.573 L 195 424.744 191.250 425.331 L 187.500 425.917 163.500 428.512 L 139.500 431.107 126 433.102 L 112.500 435.097 97 437.103 L 81.500 439.109 54.500 439.603 L 27.500 440.096 25.250 440.567 L 23 441.038 23 442.339 L 23 443.639 25.457 445.776 L 27.915 447.913 30.105 452.206 L 32.296 456.500 39.972 468 L 47.649 479.500 53.725 491 L 59.801 502.500 66.817 516 L 73.834 529.500 76.896 535.500 L 79.958 541.500 86.569 555.500 L 93.181 569.500 97.122 580.832 L 101.064 592.163 106.042 602.085 L 111.021 612.006 119.628 625.079 L 128.234 638.153 129.690 638.711 L 131.147 639.270 141.823 636.688 L 152.500 634.106 170 632.557 L 187.500 631.007 204.500 630.093 L 221.500 629.179 252 625.599 L 282.500 622.020 294.500 620.492 L 306.500 618.963 317.500 617.971 L 328.500 616.979 339.500 615.497 L 350.500 614.014 373.500 611.058 L 396.500 608.101 413.500 606.368 L 430.500 604.636 441.500 604.068 L 452.500 603.500 453.851 602.629 L 455.201 601.757 454.614 599.129 L 454.027 596.500 453.101 592.671 L 452.175 588.842 452.719 589.386 L 453.263 589.930 455.098 588.948 L 456.933 587.965 462.996 578.763 L 469.058 569.561 475.128 557.030 L 481.199 544.500 486.685 536.217 L 492.171 527.934 494.835 526.243 L 497.500 524.552 504.789 518.072 L 512.079 511.592 525.554 496.905 L 539.029 482.218 544.111 475.861 L 549.193 469.504 556.719 458.619 L 564.245 447.735 566.217 442.123 L 568.189 436.512 567.489 429.040 L 566.789 421.567 564.452 414.659 L 562.114 407.751 559.807 405.285 L 557.500 402.820 528.920 388.500 L 500.340 374.179 485.920 365.783 L 471.500 357.387 451 347.121 L 430.500 336.855 429.139 335.531 L 427.779 334.207 431.139 333.514 L 434.500 332.820 445.420 329.408 L 456.340 325.997 459.713 324.007 L 463.086 322.017 469.960 316.463 L 476.833 310.909 480.474 306.467 L 484.114 302.024 498.307 289.159 L 512.500 276.295 517.927 268.397 L 523.354 260.500 529.082 252 L 534.809 243.500 539.405 234.707 L 544 225.914 544 202.586 L 544 179.258 540.519 167.879 L 537.038 156.500 533.342 149.286 L 529.646 142.073 534.761 133.703 L 539.876 125.333 543.532 112.917 L 547.188 100.500 546.602 90 L 546.015 79.500 544.544 74.045 L 543.073 68.591 539.862 62.045 L 536.650 55.500 530.575 49.417 L 524.500 43.333 515.714 38.985 L 506.929 34.638 498.714 34.438 L 490.500 34.238 486 34.648 M 482.038 40.035 L 475.576 40.925 470.583 41.996 L 465.591 43.067 456.295 47.470 L 447 51.873 447 52.777 L 447 53.682 452.550 54.924 L 458.099 56.166 466.300 60.254 L 474.500 64.342 487.398 77.675 L 500.296 91.008 503.117 94.844 L 505.938 98.680 512.563 111.590 L 519.188 124.500 522.682 130.754 L 526.177 137.009 526.959 136.525 L 527.741 136.042 531.408 129.887 L 535.075 123.731 538.636 112.116 L 542.198 100.500 541.652 90 L 541.106 79.500 539.457 74 L 537.809 68.500 534.780 62.777 L 531.750 57.054 526.531 52.118 L 521.313 47.183 513.906 43.411 L 506.500 39.638 497.500 39.392 L 488.500 39.145 482.038 40.035 M 382 59.075 L 342.500 59.810 331.719 61.947 L 320.939 64.084 314.235 66.155 L 307.531 68.225 293.516 73.721 L 279.500 79.216 276.750 80.634 L 274 82.051 274 84.026 L 274 86 271.239 86 L 268.479 86 261.829 90.461 L 255.179 94.922 248.338 102.711 L 241.498 110.500 237.878 115.500 L 234.259 120.500 232.629 123.700 L 231 126.901 231 128.828 L 231 130.755 229.525 131.979 L 228.050 133.204 226.864 130.602 L 225.679 128 225.089 128.007 L 224.500 128.015 218.650 136.257 L 212.800 144.500 208.523 153 L 204.247 161.500 200.660 172.620 L 197.072 183.739 192.793 204.120 L 188.514 224.500 188.551 244.500 L 188.588 264.500 191.856 274 L 195.124 283.500 201.789 296.332 L 208.454 309.163 212.977 314.761 L 217.500 320.359 224.245 325.492 L 230.990 330.625 241.245 335.805 L 251.500 340.985 259.500 343.243 L 267.500 345.500 308 345.357 L 348.500 345.215 367.500 343.046 L 386.500 340.878 398 337.979 L 409.500 335.081 415.500 332.986 L 421.500 330.892 429 329.068 L 436.500 327.245 445.500 324.471 L 454.500 321.697 461 317.201 L 467.500 312.706 477.500 302.508 L 487.500 292.310 498.275 282.550 L 509.051 272.789 517.275 260.851 L 525.500 248.913 532 237.706 L 538.500 226.500 538.800 202.885 L 539.099 179.270 535.457 167.885 L 531.815 156.500 523.005 140.500 L 514.195 124.500 508.029 112.500 L 501.862 100.500 498.364 96 L 494.867 91.500 483.526 79.858 L 472.185 68.217 464.137 64.188 L 456.088 60.160 450.412 58.982 L 444.736 57.803 442.348 59.081 L 439.960 60.360 438.780 59.180 L 437.600 58 429.550 58.170 L 421.500 58.340 382 59.075 M 202 65.372 L 196.500 66.575 193.869 68.325 L 191.238 70.074 186.949 76.188 L 182.661 82.302 181.374 85.901 L 180.088 89.500 180.071 100.500 L 180.054 111.500 180.932 120.570 L 181.810 129.639 184.882 138.570 L 187.953 147.500 191.726 157.854 L 195.500 168.208 196.355 168.354 L 197.209 168.500 199.466 162.500 L 201.722 156.500 205.260 149.500 L 208.797 142.500 215.126 133.500 L 221.455 124.500 229.977 115.915 L 238.500 107.330 246.169 98.827 L 253.839 90.324 259.911 86.412 L 265.983 82.500 265.991 81.424 L 266 80.349 263.750 78.298 L 261.500 76.247 257.500 73.797 L 253.500 71.347 244.892 67.673 L 236.285 64 221.892 64.084 L 207.500 64.168 202 65.372 M 403.139 138.991 L 397.778 141.947 392.167 146.723 L 386.556 151.500 383.795 154.500 L 381.034 157.500 380.023 161 L 379.011 164.500 379.006 168.059 L 379 171.618 380.348 173.462 L 381.697 175.306 382.848 174.594 L 384 173.882 384 167.234 L 384 160.586 390.310 154.430 L 396.619 148.273 402.355 144.465 L 408.090 140.657 413.534 140.206 L 418.977 139.754 424.441 142.427 L 429.905 145.101 434.605 150.300 L 439.305 155.500 442.147 161.536 L 444.988 167.571 448.596 181.536 L 452.204 195.500 453.137 197.250 L 454.070 199 455.535 199 L 457 199 457 197.619 L 457 196.237 453.007 181.026 L 449.014 165.814 445.957 159.411 L 442.901 153.008 437.404 147.070 L 431.908 141.133 426.757 138.566 L 421.607 136 415.054 136.018 L 408.500 136.036 403.139 138.991 M 273.279 153.548 L 268.166 156.096 264.154 160.449 L 260.142 164.801 257.858 169.151 L 255.573 173.500 255.181 185.844 L 254.789 198.187 256.645 197.833 L 258.500 197.479 259.039 186.490 L 259.578 175.500 262.510 170.136 L 265.442 164.772 269.548 161.407 L 273.654 158.042 277.295 156.521 L 280.936 155 284.320 155 L 287.704 155 291.029 157.250 L 294.353 159.500 299.621 166.418 L 304.889 173.337 309.566 181.668 L 314.242 190 315.621 190 L 317 190 317 187.831 L 317 185.662 313.858 180.081 L 310.717 174.500 306.659 168.512 L 302.602 162.523 298.603 158.185 L 294.604 153.846 291.852 152.423 L 289.099 151 283.746 151 L 278.393 151 273.279 153.548 M 343.526 208.250 L 343.114 209.500 340.557 217.802 L 338 226.103 338 228.415 L 338 230.726 342.812 235.227 L 347.624 239.728 349.827 240.907 L 352.030 242.086 352.669 240.420 L 353.309 238.754 347.656 233.795 L 342.003 228.837 342.628 226.168 L 343.253 223.500 345.126 218.035 L 347 212.569 347 209.785 L 347 207 345.469 207 L 343.937 207 343.526 208.250 M 389.197 267.419 L 383.108 274.837 376.804 280.084 L 370.500 285.331 362.154 289.336 L 353.807 293.342 346.062 293.790 L 338.316 294.239 330.161 293.141 L 322.006 292.044 318.097 290.050 L 314.189 288.056 312.095 285.393 L 310 282.730 310 277.334 L 310 271.937 308.399 271.323 L 306.798 270.709 305.914 272.104 L 305.031 273.500 305.015 277.434 L 305 281.369 307.110 285.727 L 309.220 290.085 314.294 292.983 L 319.369 295.882 326.272 297.046 L 333.175 298.210 344.436 297.853 L 355.697 297.495 365.232 292.762 L 374.766 288.029 382.221 281.067 L 389.675 274.106 393.949 268.566 L 398.224 263.025 397.643 261.513 L 397.063 260 396.174 260 L 395.286 260 389.197 267.419 M 415.500 337.507 L 408.500 339.853 398.171 342.464 L 387.842 345.075 370.671 347.077 L 353.500 349.079 316 349.675 L 278.500 350.271 275.811 351.630 L 273.122 352.988 273.311 355.738 L 273.500 358.487 269 359.049 L 264.500 359.611 260.431 361.734 L 256.361 363.856 251.016 368.081 L 245.671 372.306 234.199 383.403 L 222.727 394.500 213.037 406.520 L 203.347 418.541 201.538 421.302 L 199.729 424.062 200.115 424.418 L 200.500 424.773 212.500 423.951 L 224.500 423.128 237 423.012 L 249.500 422.895 268.335 421.120 L 287.169 419.344 288.069 417.922 L 288.969 416.500 291.566 408.750 L 294.164 401 295.523 401 L 296.882 401 297.499 401.999 L 298.116 402.997 295.869 409.976 L 293.621 416.954 294.214 417.548 L 294.808 418.141 310.154 416.580 L 325.500 415.019 351.500 412.012 L 377.500 409.004 383.633 409.002 L 389.767 409 390.370 411.250 L 390.973 413.500 390.986 417.130 L 391 420.760 397.610 443.130 L 404.220 465.500 404.727 467.250 L 405.233 469 420.867 468.994 L 436.500 468.988 442.198 468.055 L 447.895 467.122 451.522 463.108 L 455.148 459.094 458.725 454.297 L 462.302 449.500 465.287 446.312 L 468.272 443.124 454.386 428.496 L 440.500 413.867 430.256 406.888 L 420.012 399.908 415.756 397.976 L 411.500 396.044 409.250 396.022 L 407 396 407 394 L 407 392 410.398 392 L 413.797 392 419.408 394.952 L 425.019 397.903 434.125 404.140 L 443.231 410.377 449.366 416.900 L 455.500 423.424 463.216 431.462 L 470.932 439.500 472.952 438.250 L 474.973 437 476.486 437 L 478 437 478 438.800 L 478 440.600 476.750 441.875 L 475.500 443.149 478.250 445.362 L 481 447.575 481 448.729 L 481 449.882 479.905 450.559 L 478.810 451.236 475.945 449.118 L 473.081 447 471.617 447 L 470.154 447 463.105 455.935 L 456.057 464.871 449.448 472.185 L 442.839 479.500 438.228 486 L 433.617 492.500 429.211 501 L 424.804 509.500 423.847 510.668 L 422.891 511.837 428.921 531.168 L 434.952 550.500 436.806 555.315 L 438.659 560.130 439.329 560.065 L 440 560 441.548 560 L 443.095 560 454.298 548.711 L 465.500 537.422 474.500 530.487 L 483.500 523.551 489.943 520.276 L 496.385 517 497.304 517 L 498.222 517 503.078 512.935 L 507.934 508.869 522.118 493.441 L 536.303 478.013 542.273 470.256 L 548.243 462.500 554.186 453.692 L 560.130 444.884 561.649 440.692 L 563.168 436.500 562.588 429.868 L 562.008 423.237 559.972 416.645 L 557.936 410.053 554.718 407.630 L 551.500 405.207 524.500 391.724 L 497.500 378.241 483 369.779 L 468.500 361.317 448 351.060 L 427.500 340.802 425.750 339.246 L 424 337.690 424 336.345 L 424 335 423.250 335.080 L 422.500 335.161 415.500 337.507 M 352 416.087 L 328.500 418.906 313 420.503 L 297.500 422.101 295.500 422.558 L 293.500 423.015 272 424.985 L 250.500 426.955 230.500 427.535 L 210.500 428.114 193.500 430.043 L 176.500 431.971 153.500 434.512 L 130.500 437.053 118 439.004 L 105.500 440.955 92 442.546 L 78.500 444.138 55.750 444.712 L 33 445.286 33 447.023 L 33 448.760 42.882 463.630 L 52.763 478.500 65.905 503.926 L 79.048 529.353 79.906 530.426 L 80.765 531.500 86.041 543.500 L 91.318 555.500 94.184 560.624 L 97.049 565.749 101.388 578.124 L 105.726 590.500 109.959 599 L 114.192 607.500 122.689 620.750 L 131.187 634 131.677 634 L 132.167 634 139.885 632.029 L 147.604 630.059 161.537 628.514 L 175.470 626.969 195.485 625.942 L 215.500 624.914 239.500 621.981 L 263.500 619.047 278.500 617.499 L 293.500 615.950 299.500 615.025 L 305.500 614.101 317.500 613.026 L 329.500 611.951 341 610.434 L 352.500 608.918 360 607.919 L 367.500 606.920 382 605.038 L 396.500 603.156 405.500 602.504 L 414.500 601.852 424.924 600.426 L 435.348 599 442.174 599 L 449 599 448.994 596.750 L 448.988 594.500 447.398 591.500 L 445.808 588.500 441.374 578.554 L 436.941 568.608 432.503 556.054 L 428.065 543.500 423.429 528.500 L 418.792 513.500 409.474 490.500 L 400.156 467.500 396.482 455 L 392.807 442.500 389.910 432.500 L 387.012 422.500 386.993 420 L 386.973 417.500 386.370 415.250 L 385.767 413 380.633 413.135 L 375.500 413.269 352 416.087 M 222.264 470.172 L 219.500 474.344 219.172 487.092 L 218.844 499.840 219.945 501.897 L 221.045 503.953 225.581 505.275 L 230.117 506.598 230.110 507.546 L 230.102 508.493 226.536 509.234 L 222.969 509.975 219.233 511.881 L 215.497 513.787 211.184 517.643 L 206.872 521.500 205.960 525.500 L 205.048 529.500 205.034 535 L 205.020 540.500 207.569 546 L 210.118 551.500 213.809 555.332 L 217.500 559.165 220.200 560.582 L 222.901 562 234.200 561.978 L 245.500 561.956 249.661 560.067 L 253.823 558.177 257.695 554.305 L 261.566 550.434 263.349 546.677 L 265.131 542.921 264.811 541.256 L 264.490 539.591 259.614 537.847 L 254.738 536.102 252.274 533.801 L 249.810 531.500 248.405 528.800 L 247 526.099 247 521.973 L 247 517.846 249.923 514.923 L 252.846 512 256.364 512 L 259.882 512 260.554 510.913 L 261.226 509.826 260.314 508.914 L 259.401 508.001 255.201 507.837 L 251 507.672 251 505.958 L 251 504.244 248.987 502.872 L 246.975 501.500 244.584 489.887 L 242.193 478.274 240.482 474.887 L 238.772 471.500 236.199 468.750 L 233.626 466 229.327 466 L 225.028 466 222.264 470.172 M 225.053 474.390 L 222.928 478.781 223.214 489.129 L 223.500 499.478 226.145 500.743 L 228.791 502.009 234.757 502.632 L 240.724 503.256 241.364 502.219 L 242.005 501.182 240.950 493.594 L 239.894 486.006 237.931 480.301 L 235.969 474.595 233.810 472.298 L 231.651 470 229.415 470 L 227.178 470 225.053 474.390 M 408 474.409 L 408 475.818 413.960 490.069 L 419.919 504.319 420.866 505.266 L 421.812 506.212 423.943 501.396 L 426.073 496.580 432.787 486.676 L 439.500 476.771 440.872 474.886 L 442.244 473 425.122 473 L 408 473 408 474.409 M 228.734 513.088 L 224.969 513.975 221.093 515.953 L 217.216 517.930 213.608 521.333 L 210 524.736 209.844 530.618 L 209.689 536.500 209.908 538.915 L 210.127 541.329 212.174 545.415 L 214.220 549.500 216.860 552.339 L 219.500 555.179 222.200 556.589 L 224.901 558 234.200 557.978 L 243.500 557.956 247.500 556.033 L 251.500 554.110 253.041 552.805 L 254.581 551.500 257.291 547.906 L 260 544.311 260 543.281 L 260 542.250 256.802 541.610 L 253.604 540.971 248.857 536.046 L 244.109 531.120 242.932 526.810 L 241.754 522.500 242.740 519 L 243.725 515.500 244.469 513.750 L 245.214 512 238.857 512.100 L 232.500 512.201 228.734 513.088 M 482 530.767 L 479.500 532.430 473.821 536.718 L 468.143 541.007 456.200 553.004 L 444.258 565 442.629 565 L 441 565 441 565.950 L 441 566.900 445.021 576.171 L 449.042 585.442 450.017 586.417 L 450.993 587.393 452.513 585.446 L 454.033 583.500 459.060 576 L 464.087 568.500 469.683 557 L 475.279 545.500 480.122 537.250 L 484.964 529 484.732 529.052 L 484.500 529.105 482 530.767" stroke="none" fill="#383838" fill-rule="evenodd"/><path d="M 486.034 40.090 L 475.568 40.995 469.745 42.487 L 463.922 43.979 455.461 48.192 L 447 52.406 447 52.997 L 447 53.587 452.563 54.754 L 458.125 55.921 465.813 59.579 L 473.500 63.237 485.834 75.868 L 498.169 88.500 501.568 92.583 L 504.967 96.666 513.842 113.583 L 522.718 130.500 524.757 133.847 L 526.796 137.193 530.933 130.229 L 535.071 123.264 538.684 110.924 L 542.297 98.583 541.209 87.474 L 540.120 76.365 537.601 69.672 L 535.082 62.979 531.971 58.457 L 528.860 53.935 523.680 49.817 L 518.500 45.698 512.500 42.896 L 506.500 40.094 501.500 39.640 L 496.500 39.186 486.034 40.090 M 369.500 60.055 L 337.500 60.733 330.500 62.272 L 323.500 63.810 317.243 65.434 L 310.986 67.058 295.743 73.052 L 280.500 79.045 277.207 80.527 L 273.914 82.009 274.207 83.754 L 274.500 85.500 271.522 85.838 L 268.544 86.177 261.691 90.943 L 254.839 95.710 247.879 103.605 L 240.919 111.500 236.308 118.213 L 231.697 124.927 231.082 128.713 L 230.466 132.500 229.013 132.500 L 227.559 132.500 226.372 130.119 L 225.185 127.739 219.343 135.623 L 213.500 143.507 209.840 150.503 L 206.180 157.500 202.529 168 L 198.879 178.500 196.878 187 L 194.878 195.500 192.021 211 L 189.164 226.500 188.579 231 L 187.994 235.500 188.898 251.500 L 189.801 267.500 193.016 276.500 L 196.230 285.500 202.865 297.982 L 209.500 310.464 216.396 317.752 L 223.292 325.040 230.396 329.459 L 237.500 333.877 245 337.423 L 252.500 340.968 260.500 343.055 L 268.500 345.142 280.500 345.662 L 292.500 346.183 325.500 345.088 L 358.500 343.993 373.500 342.105 L 388.500 340.218 398.500 337.648 L 408.500 335.078 414.500 333.002 L 420.500 330.925 428.500 328.903 L 436.500 326.881 445.870 323.906 L 455.240 320.931 459.870 317.784 L 464.500 314.638 479 300.552 L 493.500 286.466 500.654 280.172 L 507.809 273.879 514.592 264.189 L 521.376 254.500 525.083 249 L 528.790 243.500 534.022 233.500 L 539.254 223.500 538.796 200.500 L 538.339 177.500 534.587 166.250 L 530.835 155 521.584 138.250 L 512.332 121.500 506.609 110.305 L 500.885 99.109 493.597 90.805 L 486.310 82.500 478.224 74.806 L 470.138 67.111 465.867 64.932 L 461.596 62.753 456.426 60.975 L 451.256 59.196 426.378 59.286 L 401.500 59.376 369.500 60.055 M 204.776 65.083 L 199.052 65.922 196.276 67.371 L 193.500 68.821 190.817 71.661 L 188.134 74.500 184.567 80.441 L 181 86.382 181.015 104.941 L 181.030 123.500 182.554 130 L 184.078 136.500 188.964 149.500 L 193.850 162.500 194.536 165.259 L 195.222 168.019 195.945 168.466 L 196.669 168.914 199.934 160.521 L 203.198 152.129 207.165 145.341 L 211.131 138.554 217.557 129.924 L 223.982 121.294 230.741 114.839 L 237.500 108.383 244.500 100.344 L 251.500 92.304 256.297 88.902 L 261.095 85.500 263.797 83.243 L 266.500 80.986 263.500 78.442 L 260.500 75.897 256.316 73.393 L 252.133 70.888 243.816 67.462 L 235.500 64.037 223 64.140 L 210.500 64.244 204.776 65.083 M 409.500 135.874 L 406.500 136.653 404 137.980 L 401.500 139.307 395.500 143.812 L 389.500 148.317 386.162 151.409 L 382.825 154.500 380.912 158.210 L 379 161.920 379.015 167.210 L 379.031 172.500 379.914 173.896 L 380.798 175.291 382.399 174.677 L 384 174.063 384 168.179 L 384 162.296 386.273 158.923 L 388.545 155.551 394.523 150.700 L 400.500 145.849 404.581 143.429 L 408.662 141.008 413.333 140.368 L 418.004 139.728 424.460 142.906 L 430.916 146.084 434.581 150.292 L 438.246 154.500 441.597 161.500 L 444.947 168.500 447.534 178.500 L 450.121 188.500 451.589 193.750 L 453.056 199 455.028 199 L 457 199 457 197.191 L 457 195.382 453.427 181.441 L 449.854 167.500 445.916 159.287 L 441.979 151.074 436.927 146.022 L 431.875 140.970 426.860 138.429 L 421.844 135.887 417.172 135.491 L 412.500 135.095 409.500 135.874 M 279.500 150.938 L 276.500 151.672 272.500 153.753 L 268.500 155.835 264.352 160.167 L 260.204 164.500 257.530 169.859 L 254.856 175.218 254.288 183.983 L 253.720 192.749 254.379 195.375 L 255.038 198 256.891 198 L 258.743 198 259.214 187.250 L 259.686 176.500 261.953 171.749 L 264.221 166.999 269.613 162.071 L 275.006 157.142 280.592 155.892 L 286.179 154.642 289.605 156.487 L 293.031 158.331 296.341 162.416 L 299.650 166.500 303.687 172.500 L 307.723 178.500 310.402 183.797 L 313.081 189.094 314.642 189.693 L 316.202 190.291 317.022 188.964 L 317.842 187.637 314.506 181.069 L 311.169 174.500 306.791 168.258 L 302.413 162.017 297.976 157.361 L 293.539 152.705 290.302 151.353 L 287.064 150 284.782 150.102 L 282.500 150.205 279.500 150.938 M 342.902 209.750 L 341.853 212.500 339.458 220.752 L 337.064 229.003 337.641 230.506 L 338.217 232.008 344.196 237.004 L 350.175 242 351.119 242 L 352.063 242 352.709 240.316 L 353.355 238.632 348.177 234.066 L 342.999 229.500 343 227.302 L 343 225.103 345.549 217.035 L 348.098 208.967 347.490 207.983 L 346.882 207 345.416 207 L 343.950 207 342.902 209.750 M 388.008 268.491 L 380.800 276.981 374.854 281.450 L 368.909 285.920 362.704 288.954 L 356.500 291.989 351.403 292.940 L 346.305 293.890 334.882 293.029 L 323.459 292.167 319.226 290.474 L 314.993 288.780 312.496 285.813 L 310 282.847 310 276.854 L 310 270.861 307.750 271.180 L 305.500 271.500 305.177 275.456 L 304.855 279.412 305.483 282.762 L 306.112 286.112 310.014 290.014 L 313.917 293.917 320.709 295.883 L 327.500 297.849 337.142 298.437 L 346.784 299.025 352.142 297.916 L 357.500 296.806 364.663 293.407 L 371.826 290.009 378.663 284.553 L 385.500 279.097 391.750 271.653 L 398 264.209 398 262.105 L 398 260 396.608 260 L 395.216 260 388.008 268.491 M 414 338.135 L 408.500 340.124 397 342.973 L 385.500 345.821 375 346.965 L 364.500 348.110 356 348.981 L 347.500 349.852 311.691 350.557 L 275.881 351.262 274.568 352.574 L 273.256 353.887 273.744 356.444 L 274.233 359 270.555 359 L 266.876 359 261.673 361.462 L 256.470 363.923 246.485 372.313 L 236.500 380.703 228.485 389.102 L 220.469 397.500 210.198 410.380 L 199.927 423.261 200.314 423.648 L 200.701 424.034 228.601 423.012 L 256.500 421.990 271 420.525 L 285.500 419.059 286.613 419.030 L 287.726 419 290.946 410 L 294.165 401 295.614 401 L 297.063 401 297.625 402.464 L 298.187 403.929 295.991 410.528 L 293.794 417.128 294.202 417.535 L 294.609 417.942 304.055 416.922 L 313.500 415.902 330 414.017 L 346.500 412.132 366.206 409.885 L 385.912 407.639 388.312 408.732 L 390.712 409.826 391.225 416.211 L 391.737 422.596 396.939 440.548 L 402.140 458.500 403.941 463.500 L 405.741 468.500 424.121 468.311 L 442.500 468.122 445.491 467.241 L 448.483 466.361 453.812 459.930 L 459.141 453.500 463.750 448.118 L 468.358 442.736 465.801 440.874 L 463.245 439.011 452.637 427.154 L 442.030 415.296 433.265 409.021 L 424.500 402.747 417.528 399.374 L 410.556 396 408.778 396 L 407 396 407 394.107 L 407 392.214 408.425 391.667 L 409.851 391.120 413.175 392.060 L 416.500 393.001 422.257 396.250 L 428.015 399.500 436.535 405.500 L 445.054 411.500 456.122 423.789 L 467.189 436.078 469.620 437.671 L 472.051 439.264 474.007 437.494 L 475.962 435.724 477.504 437.003 L 479.045 438.282 477.461 440.699 L 475.878 443.116 478.439 445.131 L 481 447.145 481 448.604 L 481 450.063 479.449 450.658 L 477.898 451.253 475.635 449.127 L 473.371 447 472.388 447 L 471.406 447 467.897 450.750 L 464.389 454.500 460.460 459.500 L 456.530 464.500 448.772 473.336 L 441.014 482.171 435.410 490.680 L 429.806 499.189 427.306 504.845 L 424.805 510.500 423.954 511.028 L 423.102 511.555 429.033 530.694 L 434.965 549.832 437.016 555.314 L 439.067 560.795 441.045 560.278 L 443.023 559.761 452.762 549.830 L 462.500 539.900 473 531.590 L 483.500 523.280 489.721 520.140 L 495.943 517 497.221 516.966 L 498.500 516.931 505.654 510.216 L 512.808 503.500 524.161 491 L 535.514 478.500 542.099 470 L 548.684 461.500 553.695 454 L 558.706 446.500 560.353 443.300 L 562 440.099 562 432.155 L 562 424.211 559.900 417.355 L 557.800 410.500 556.150 408.636 L 554.500 406.772 526.500 392.946 L 498.500 379.120 485.500 371.456 L 472.500 363.792 448.727 351.787 L 424.953 339.781 423.941 337.891 L 422.930 336 421.215 336.073 L 419.500 336.146 414 338.135" stroke="none" fill="#dbb193" fill-rule="evenodd"/><path d="M 364.500 414.995 L 350.500 416.738 330.500 418.929 L 310.500 421.119 298.500 422.555 L 286.500 423.991 270.500 425.551 L 254.500 427.111 229 428.026 L 203.500 428.941 187.500 430.918 L 171.500 432.895 156.500 434.485 L 141.500 436.075 124.500 438.503 L 107.500 440.931 95 442.562 L 82.500 444.193 57.750 444.726 L 33 445.260 33 446.449 L 33 447.637 36.750 453.728 L 40.500 459.819 46.330 468.659 L 52.159 477.500 57.889 488 L 63.620 498.500 74.762 520.500 L 85.905 542.500 92.041 555.500 L 98.177 568.500 102.221 580 L 106.266 591.500 110.195 599.351 L 114.124 607.202 122.672 620.351 L 131.220 633.500 131.364 633.671 L 131.508 633.841 141.193 631.500 L 150.878 629.158 166.689 627.612 L 182.500 626.065 202.500 625.032 L 222.500 623.999 228.500 623.021 L 234.500 622.044 266.500 618.527 L 298.500 615.011 300.540 614.539 L 302.581 614.067 314.540 613.033 L 326.500 612 337.500 610.502 L 348.500 609.004 371 606.068 L 393.500 603.132 407 601.983 L 420.500 600.834 430.500 599.435 L 440.500 598.037 444.769 598.018 L 449.038 598 448.375 595.250 L 447.712 592.500 444.895 586.855 L 442.077 581.210 438.392 572.355 L 434.707 563.500 429.415 547.784 L 424.123 532.067 421.986 524.450 L 419.849 516.833 409.527 491.166 L 399.205 465.500 394.961 451 L 390.718 436.500 388.359 427.639 L 386 418.779 386 415.889 L 386 413 382.250 413.126 L 378.500 413.251 364.500 414.995 M 225.209 466.566 L 222.973 468.132 220.987 472.026 L 219 475.920 219 488.889 L 219 501.857 220.532 503.389 L 222.064 504.921 225.543 505.574 L 229.022 506.227 229.512 507.020 L 230.003 507.813 224.649 509.497 L 219.295 511.181 214.421 514.865 L 209.547 518.548 207.274 521.922 L 205 525.296 205 533.119 L 205 540.943 207.432 546.443 L 209.865 551.943 214.374 556.325 L 218.882 560.707 223.418 561.977 L 227.953 563.247 236.727 562.801 L 245.500 562.354 250.590 559.741 L 255.680 557.128 258.972 553.380 L 262.263 549.631 264.041 545.660 L 265.818 541.690 265.306 540.356 L 264.794 539.022 260.656 537.907 L 256.518 536.793 253.737 534.812 L 250.955 532.832 248.977 528.956 L 247 525.080 247 521.944 L 247 518.809 249.048 515.932 L 251.096 513.056 256.048 512.399 L 261 511.742 261 509.871 L 261 508 259.500 507.875 L 258 507.750 257 507.500 L 256 507.250 253.500 507.125 L 251 507 251 505.722 L 251 504.444 249.027 502.755 L 247.055 501.066 246.618 498.783 L 246.181 496.500 244.494 488 L 242.807 479.500 240.292 474.167 L 237.777 468.835 234.638 466.921 L 231.500 465.007 229.473 465.004 L 227.445 465 225.209 466.566 M 421.250 473.747 L 408 474.058 408 474.582 L 408 475.107 414.187 490.053 L 420.373 505 421.211 505 L 422.050 505 422.978 502.558 L 423.907 500.116 428.890 492.081 L 433.873 484.046 437.437 479.379 L 441 474.712 441 473.856 L 441 473 437.750 473.218 L 434.500 473.437 421.250 473.747 M 474.881 536.177 L 469.500 540.354 456.914 552.677 L 444.328 565 442.597 565 L 440.865 565 441.547 567.250 L 442.230 569.500 446.260 578.250 L 450.290 587 450.895 586.962 L 451.500 586.924 454.442 582.712 L 457.385 578.500 461.353 572.004 L 465.321 565.508 471.778 552.504 L 478.235 539.500 480.117 536.846 L 482 534.191 482 533.096 L 482 532 481.131 532 L 480.261 532 474.881 536.177" stroke="none" fill="#f1f1f1" fill-rule="evenodd"/></svg>