<svg xmlns="http://www.w3.org/2000/svg" width="667" height="555" viewBox="0 0 667 555" version="1.1"><path d="M 214.416 37.062 L 204.331 37.839 196.633 40.424 L 188.934 43.008 181.717 46.633 L 174.500 50.258 169.857 54.133 L 165.213 58.008 159.296 66.754 L 153.378 75.500 150.765 81.500 L 148.152 87.500 145.990 93.974 L 143.828 100.448 142.378 108.474 L 140.928 116.500 141.158 125.707 L 141.388 134.914 139.444 137.102 L 137.500 139.291 139.759 138.105 L 142.019 136.920 143.079 139.707 L 144.139 142.495 145.603 148.497 L 147.067 154.500 147.683 167.750 L 148.300 181 147.027 181 L 145.755 181 146.767 182.250 L 147.778 183.500 148.261 196.500 L 148.743 209.500 151.366 216.910 L 153.990 224.320 156.899 229.475 L 159.808 234.630 164.635 241.565 L 169.461 248.500 179.481 258.545 L 189.500 268.591 200 277.422 L 210.500 286.254 223.500 292.512 L 236.500 298.770 244.500 301.852 L 252.500 304.935 271.397 310.054 L 290.295 315.173 306.897 318.140 L 323.500 321.107 335 323.053 L 346.500 325 364.691 325 L 382.882 325 383.500 324 L 384.118 323 393.824 323 L 403.530 323 407.515 320.904 L 411.500 318.809 422.500 310.574 L 433.500 302.338 440.500 297.423 L 447.500 292.508 453 288.949 L 458.500 285.390 470.500 278.511 L 482.500 271.632 488.500 267.826 L 494.500 264.019 469.356 264.010 L 444.212 264 433.856 262.970 L 423.500 261.941 414.500 260.389 L 405.500 258.837 394.494 255.970 L 383.488 253.103 378.717 250.993 L 373.946 248.882 372.161 249.449 L 370.376 250.016 362.438 244.125 L 354.500 238.235 344.860 228.867 L 335.220 219.500 330.116 211.631 L 325.012 203.761 322.612 196.131 L 320.213 188.500 318.187 178 L 316.161 167.500 313.961 153.500 L 311.760 139.500 306.980 121.973 L 302.201 104.445 297.915 92.973 L 293.628 81.500 288.776 73.041 L 283.924 64.582 279.890 59.238 L 275.855 53.894 269.004 49.503 L 262.153 45.111 257.327 42.683 L 252.500 40.255 243.376 38.127 L 234.252 36 229.376 36.142 L 224.500 36.285 214.416 37.062 M 237.925 85.687 L 233.845 89.373 231.374 94.248 L 228.904 99.123 229.202 104.812 L 229.500 110.500 231 110.500 L 232.500 110.500 233 104 L 233.500 97.500 235.821 93.766 L 238.143 90.033 240.706 88.016 L 243.270 86 245.448 86 L 247.626 86 250.249 88.750 L 252.871 91.500 254.853 96.141 L 256.835 100.781 258.566 107.141 L 260.297 113.500 261.149 114.450 L 262 115.400 263.081 114.319 L 264.162 113.238 262.014 105.369 L 259.866 97.500 257.119 92 L 254.371 86.500 251.038 84.250 L 247.704 82 244.855 82 L 242.006 82 237.925 85.687 M 172.962 93.555 L 169.689 98.312 167.947 102.906 L 166.204 107.500 165.991 110 L 165.779 112.500 165.889 113.750 L 166 115 167.372 115 L 168.744 115 169.367 111.250 L 169.989 107.500 172.561 102 L 175.132 96.500 177.240 94.250 L 179.349 92 182.706 92 L 186.064 92 189.282 93.362 L 192.500 94.724 194.174 96.612 L 195.847 98.500 197.988 104.231 L 200.129 109.962 201.065 110.540 L 202 111.118 202.969 110.519 L 203.938 109.920 201.531 103.289 L 199.124 96.657 195.552 93.086 L 191.981 89.514 184.108 89.156 L 176.234 88.799 172.962 93.555 M 307.081 107.500 L 307.090 109.500 308.464 112.500 L 309.838 115.500 309.883 113 L 309.929 110.500 308.500 108 L 307.071 105.500 307.081 107.500 M 217.452 126.816 L 216.500 127.500 211.250 133.331 L 206 139.161 206 140.964 L 206 142.767 210.106 146.477 L 214.213 150.187 215.304 149.096 L 216.396 148.004 213.026 144.527 L 209.656 141.050 214.828 135.104 L 220 129.158 220 128.138 L 220 127.118 219.202 126.625 L 218.405 126.132 217.452 126.816 M 229.895 167.501 L 228.762 172.002 225.346 175.001 L 221.930 178 217.916 178 L 213.901 178 211.051 176.526 L 208.201 175.052 204.591 170.835 L 200.982 166.618 199.755 167.845 L 198.529 169.071 200.032 171.748 L 201.534 174.424 205.764 177.650 L 209.994 180.876 214.539 181.558 L 219.084 182.240 223.596 180.516 L 228.109 178.793 230.510 175.147 L 232.912 171.500 233.584 167.250 L 234.256 163 232.642 163 L 231.029 163 229.895 167.501 M 98.250 180.716 L 101 181.133 103.750 180.716 L 106.500 180.300 101 180.300 L 95.500 180.300 98.250 180.716 M 51.500 188 L 57.437 194 57.937 194 L 58.437 194 52.500 188 L 46.563 182 46.063 182 L 45.563 182 51.500 188 M 96 184.879 L 96 185.757 92.979 187.009 L 89.957 188.260 89.374 189.204 L 88.791 190.147 92.645 188.112 L 96.500 186.077 98 185.054 L 99.500 184.031 97.750 184.015 L 96 184 96 184.879 M 267 313.893 L 268.500 314.725 272 315.293 L 275.500 315.861 272.500 314.475 L 269.500 313.090 267.500 313.076 L 265.500 313.061 267 313.893 M 321.500 325.384 L 324.500 326.746 329.500 327.398 L 334.500 328.049 333 327.137 L 331.500 326.225 327 325.540 L 322.500 324.854 320.500 324.437 L 318.500 324.021 321.500 325.384" stroke="none" fill="#ffcdbf" fill-rule="evenodd"/><path d="M 126.582 145.143 L 111.665 153.043 102.082 160.310 L 92.500 167.578 85.720 171.926 L 78.940 176.274 79.263 176.596 L 79.586 176.919 86.043 175.415 L 92.500 173.910 107 169.514 L 121.500 165.117 125.826 164 L 130.153 162.882 131.589 164.074 L 133.025 165.265 131.977 166.528 L 130.929 167.791 127.293 168.473 L 123.657 169.155 109.078 173.625 L 94.500 178.095 93 178.743 L 91.500 179.391 100 180.096 L 108.500 180.801 128.400 180.901 L 148.300 181 147.710 167.750 L 147.119 154.500 145.046 146.536 L 142.972 138.572 142.236 137.908 L 141.500 137.243 126.582 145.143" stroke="none" fill="#fefebb" fill-rule="evenodd"/><path d="M 221 32.852 L 221 33.705 212.309 34.373 L 203.618 35.041 194.559 38.169 L 185.500 41.298 183.429 41.541 L 181.359 41.785 176.429 44.288 L 171.500 46.792 166.823 50.917 L 162.146 55.042 157.660 61.328 L 153.174 67.614 149.594 74.128 L 146.013 80.643 143.021 89.277 L 140.029 97.912 140.516 99.206 L 141.002 100.500 139.378 108.500 L 137.755 116.500 137.304 124.750 L 136.853 133 138.082 133 L 139.310 133 137.521 134.976 L 135.733 136.953 134.887 136.430 L 134.041 135.908 131.771 137.100 L 129.500 138.292 128.696 139.653 L 127.893 141.014 123.849 143.077 L 119.806 145.140 119.281 144.615 L 118.756 144.090 114.128 146.438 L 109.500 148.786 103.085 153.513 L 96.670 158.239 94.291 161.066 L 91.912 163.893 89.909 164.529 L 87.906 165.165 80.950 163.992 L 73.994 162.818 74.468 162.051 L 74.942 161.284 64.721 160.173 L 54.500 159.063 41 158.781 L 27.500 158.500 27.192 163.905 L 26.885 169.311 28 170 L 29.116 170.690 27.979 179.595 L 26.842 188.500 24.822 197.318 L 22.802 206.135 22.255 205.588 L 21.708 205.042 18.329 218.234 L 14.950 231.427 15.444 232.713 L 15.937 234 17.469 234 L 19 234 19.015 233.250 L 19.031 232.500 19.830 231.240 L 20.630 229.981 34.065 232.539 L 47.500 235.097 50.352 234.553 L 53.205 234.009 57.184 234.645 L 61.162 235.282 59.831 236.178 L 58.500 237.074 62.261 236.424 L 66.022 235.773 67.261 236.801 L 68.500 237.829 84.223 240.914 L 99.946 244 104.938 244 L 109.930 244 110.968 242.061 L 112.005 240.121 111.141 239.587 L 110.277 239.053 111.267 234.047 L 112.257 229.041 112.980 229.488 L 113.704 229.935 115.946 221.718 L 118.188 213.500 121.228 204 L 124.268 194.500 124.621 189.564 L 124.973 184.627 124.158 185.564 L 123.344 186.500 119.251 199 L 115.159 211.500 112.177 223 L 109.194 234.500 108.578 237.250 L 107.962 240 104.731 239.954 L 101.500 239.909 89.500 238.037 L 77.500 236.165 60.500 233.579 L 43.500 230.993 32.653 228.845 L 21.806 226.696 20.918 228.098 L 20.031 229.500 20.015 227.962 L 20 226.424 23.493 211.462 L 26.986 196.500 28.535 186 L 30.085 175.500 30.792 171.074 L 31.500 166.649 32.637 166.279 L 33.774 165.909 42.863 176.291 L 51.953 186.672 60.069 194.001 L 68.184 201.329 73.342 199.552 L 78.500 197.774 92.331 190.887 L 106.161 184 117.640 184 L 129.118 184 128.500 185 L 127.882 186 132.941 186 L 138 186 138 185 L 138 184 141.380 184 L 144.760 184 144.250 194.750 L 143.741 205.500 145.929 213.500 L 148.117 221.500 151.479 228.507 L 154.841 235.514 159.417 240.358 L 163.993 245.202 163.425 246.121 L 162.857 247.040 168.997 254.156 L 175.136 261.272 180.762 266.386 L 186.389 271.500 185.502 270 L 184.616 268.500 186.558 269.995 L 188.500 271.489 196.769 278.310 L 205.037 285.131 204.444 286.090 L 203.851 287.050 204.774 286.775 L 205.696 286.500 211.806 289.914 L 217.916 293.327 217.406 294.152 L 216.896 294.977 218.612 294.319 L 220.328 293.660 219.510 294.985 L 218.691 296.309 219.826 295.607 L 220.962 294.906 229.231 298.584 L 237.500 302.262 243.500 304.685 L 249.500 307.108 263.919 311.018 L 278.337 314.928 278.919 315.780 L 279.500 316.632 285.116 318.203 L 290.731 319.774 293.116 319.340 L 295.500 318.906 318 323.022 L 340.500 327.137 353.296 328.228 L 366.091 329.319 365.546 330.742 L 365 332.164 365 346.397 L 365 360.630 361.739 362.185 L 358.478 363.740 350.989 369.374 L 343.500 375.007 343.500 376.254 L 343.500 377.500 345.521 377.790 L 347.543 378.079 354.947 372.540 L 362.351 367 363.647 367 L 364.942 367 365.221 380.250 L 365.500 393.500 367.500 393.500 L 369.500 393.500 370 383 L 370.500 372.500 376.400 381.250 L 382.300 390 384.091 390 L 385.882 390 386.389 389.180 L 386.896 388.359 381.138 379.707 L 375.380 371.055 372.754 368.108 L 370.128 365.161 369.814 347.079 L 369.500 328.997 375.128 328.999 L 380.755 329 382.088 327.394 L 383.421 325.787 388.461 326.385 L 393.500 326.982 397.295 327.606 L 401.089 328.229 402.936 326.558 L 404.783 324.887 407.141 324.619 L 409.500 324.351 412.563 322.747 L 415.626 321.142 426.762 312.821 L 437.897 304.500 443.449 300.575 L 449 296.650 449 295.766 L 449 294.882 450.155 295.595 L 451.309 296.309 450.671 295.277 L 450.033 294.244 454.240 291.460 L 458.447 288.676 460.473 288.436 L 462.500 288.196 475 280.981 L 487.500 273.765 490.627 271.426 L 493.753 269.086 494.537 269.793 L 495.321 270.500 494.678 269.375 L 494.036 268.250 498.768 266.970 L 503.500 265.690 504.801 264.680 L 506.102 263.670 505.801 260.585 L 505.500 257.500 503.500 257.923 L 501.500 258.346 483.500 258.683 L 465.500 259.020 463.185 260.214 L 460.870 261.408 460.183 260.296 L 459.496 259.185 441.998 258.986 L 424.500 258.787 414.750 257.241 L 405 255.694 405 254.959 L 405 254.223 401.250 253.458 L 397.500 252.693 394 252.437 L 390.500 252.180 388 251.038 L 385.500 249.895 381 247.507 L 376.500 245.118 373.921 245.059 L 371.343 245 366.514 241.802 L 361.685 238.603 355.735 233.094 L 349.785 227.586 348.284 227.365 L 346.783 227.145 344.300 224.823 L 341.817 222.500 336.596 215.500 L 331.375 208.500 329.090 204.724 L 326.805 200.948 326.412 196.865 L 326.018 192.782 325.037 189.136 L 324.055 185.491 322.102 175.495 L 320.149 165.500 318.531 154.500 L 316.914 143.500 313.814 131 L 310.715 118.500 309.493 117 L 308.270 115.500 306.072 108.136 L 303.873 100.772 304.490 99.167 L 305.106 97.561 304.367 98.299 L 303.629 99.038 301.293 93.296 L 298.957 87.555 299.447 86.277 L 299.938 84.999 295.284 75.894 L 290.630 66.788 288.282 65.719 L 285.934 64.649 286.181 63.074 L 286.428 61.500 283.744 56.963 L 281.059 52.426 271.697 46.234 L 262.334 40.042 256.578 37.407 L 250.823 34.772 245.661 33.398 L 240.500 32.024 230.750 32.012 L 221 32 221 32.852 M 205.478 37.076 L 200.456 37.918 193.683 40.467 L 186.910 43.017 181.205 45.946 L 175.500 48.876 169.926 53.314 L 164.352 57.753 159.613 64.393 L 154.875 71.034 151.567 77.767 L 148.258 84.500 145.696 92 L 143.133 99.500 141.491 109 L 139.850 118.500 140.138 126.868 L 140.426 135.237 138.043 137.167 L 135.659 139.097 123.754 145.166 L 111.850 151.235 107.273 155.197 L 102.696 159.158 95.598 163.738 L 88.500 168.319 82.282 172.409 L 76.063 176.500 76.032 177.250 L 76 178 78.750 177.985 L 81.500 177.970 87.939 176.453 L 94.378 174.935 108.771 170.466 L 123.165 165.997 127.332 165.477 L 131.500 164.956 129.500 165.913 L 127.500 166.869 108 172.512 L 88.500 178.156 87 178.678 L 85.500 179.200 88 180.254 L 90.500 181.307 118 181.749 L 145.500 182.191 146.249 182.895 L 146.999 183.599 147.356 196.049 L 147.713 208.500 150.423 216.500 L 153.133 224.500 156.483 230.500 L 159.834 236.500 165.860 244.582 L 171.886 252.664 177.264 258.129 L 182.642 263.593 196.571 275.391 L 210.500 287.188 219.351 291.655 L 228.202 296.121 239.048 300.564 L 249.894 305.006 269.697 310.460 L 289.500 315.914 306.500 318.921 L 323.500 321.929 331.500 323.571 L 339.500 325.214 360.826 325.731 L 382.152 326.248 383.276 325.124 L 384.400 324 393.840 324 L 403.281 324 407.552 321.867 L 411.824 319.734 421.662 312.271 L 431.500 304.809 443.699 296.372 L 455.898 287.935 467.765 281.095 L 479.633 274.254 488.804 268.725 L 497.975 263.196 463.738 262.700 L 429.500 262.205 415.500 259.712 L 401.500 257.219 392 254.467 L 382.500 251.714 378.112 249.833 L 373.724 247.953 371.908 248.529 L 370.092 249.106 363.296 243.850 L 356.500 238.594 348 230.605 L 339.500 222.615 334.160 215.558 L 328.820 208.500 326.802 204.579 L 324.785 200.659 322.391 192.579 L 319.996 184.500 316.504 163.623 L 313.013 142.747 309.939 130.123 L 306.866 117.500 303.833 107.500 L 300.801 97.500 296.326 86.500 L 291.852 75.500 285.421 65.823 L 278.989 56.147 275.065 52.788 L 271.141 49.429 262.320 44.796 L 253.500 40.164 244.671 38.082 L 235.842 36 223.171 36.117 L 210.500 36.234 205.478 37.076 M 239.018 85.638 L 235.882 88.277 232.951 93.388 L 230.019 98.500 230.009 103.750 L 230 109 231 109 L 232 109 232 103.696 L 232 98.392 234.864 93.875 L 237.728 89.359 240.499 87.179 L 243.270 85 245.500 85 L 247.730 85 250.271 86.999 L 252.812 88.998 255.822 96.249 L 258.832 103.500 259.517 107.198 L 260.203 110.895 261.570 112.698 L 262.936 114.500 262.968 113.108 L 263 111.716 260.896 104.608 L 258.793 97.500 256.348 92.302 L 253.904 87.104 250.584 85.052 L 247.264 83 244.709 83 L 242.153 83 239.018 85.638 M 179.646 89.977 L 175.792 90.719 174.861 92.110 L 173.930 93.500 171.551 97.500 L 169.171 101.500 167.603 106.873 L 166.035 112.247 166.628 113.207 L 167.221 114.167 169.361 107.833 L 171.500 101.500 174.268 96.792 L 177.035 92.084 180.358 91.461 L 183.682 90.837 187.638 91.903 L 191.595 92.968 194.289 95.780 L 196.983 98.592 198.817 103.988 L 200.651 109.384 201.841 109.780 L 203.031 110.177 200.558 103.339 L 198.086 96.500 194.557 93.250 L 191.029 90 188.596 90 L 186.164 90 184.832 89.618 L 183.500 89.236 179.646 89.977 M 212.585 133.361 L 207 139.722 207 141.257 L 207 142.793 210.605 145.958 L 214.210 149.123 214.787 148.547 L 215.363 147.970 212.025 144.526 L 208.687 141.082 210.065 139.291 L 211.443 137.500 215.222 133.272 L 219 129.045 219 128.022 L 219 127 218.585 127 L 218.169 127 212.585 133.361 M 35.552 162.916 L 34.804 164.126 36.212 165.813 L 37.620 167.500 47.396 178.750 L 57.172 190 57.987 190 L 58.802 190 63.452 194.717 L 68.102 199.433 73.301 197.661 L 78.500 195.890 89.733 190.321 L 100.965 184.753 100.424 183.876 L 99.882 183 95.691 182.976 L 91.500 182.951 87.500 182.071 L 83.500 181.191 73.750 180.502 L 64 179.813 64 178.907 L 64 178 66.250 177.978 L 68.500 177.956 72.799 176.005 L 77.098 174.054 81.567 170.845 L 86.035 167.635 85.268 166.934 L 84.500 166.233 73 164.605 L 61.500 162.978 48.900 162.342 L 36.299 161.707 35.552 162.916 M 231.750 164.572 L 231 165.333 231 166.766 L 231 168.198 229.394 171.583 L 227.787 174.968 224.526 176.984 L 221.264 179 217.382 178.984 L 213.500 178.967 209.500 176.702 L 205.500 174.437 203.500 171.257 L 201.500 168.077 200.750 168.039 L 200 168 200 169.292 L 200 170.584 204.250 174.734 L 208.500 178.884 211.315 179.942 L 214.130 181 217.679 181 L 221.228 181 225.114 178.816 L 229 176.632 231.074 172.348 L 233.147 168.064 232.824 165.937 L 232.500 163.810 231.750 164.572 M 230.338 305.250 L 227.284 308.500 218.111 320.750 L 208.938 333 198.219 333.015 L 187.500 333.031 186.104 333.914 L 184.709 334.798 185.309 336.362 L 185.909 337.926 195.465 338.213 L 205.020 338.500 200.522 345.200 L 196.025 351.901 196.619 353.450 L 197.214 355 197.857 354.985 L 198.500 354.969 199.581 354.235 L 200.661 353.500 205.861 345.750 L 211.061 338 212.857 338 L 214.653 338 219.257 348 L 223.860 358 224.807 358 L 225.755 358 226.818 356.719 L 227.882 355.437 223.400 345.469 L 218.918 335.500 217 334.155 L 215.082 332.810 223.905 321.155 L 232.728 309.500 234.864 307.595 L 237 305.690 237 304.452 L 237 303.214 235.418 302.607 L 233.836 302 233.614 302 L 233.392 302 230.338 305.250 M 281.620 431.250 L 280.099 436.500 279.461 443.500 L 278.824 450.500 277.813 453.816 L 276.802 457.131 272.751 460.066 L 268.700 463 267.242 463 L 265.783 463 266.442 460.250 L 267.101 457.500 270.563 454.175 L 274.025 450.850 273.454 449.925 L 272.882 449 271.191 449.022 L 269.500 449.044 267.358 450.772 L 265.216 452.500 263.608 455.700 L 262 458.901 262 462.915 L 262 466.930 263.838 467.913 L 265.677 468.897 268.088 468.324 L 270.500 467.750 273.638 464.441 L 276.776 461.133 279.082 463.587 L 281.387 466.041 282.918 464.511 L 284.449 462.980 284.164 455.740 L 283.880 448.500 285.450 438.857 L 287.019 429.214 286.403 427.607 L 285.786 426 284.464 426 L 283.142 426 281.620 431.250 M 185 443.043 L 179.500 446.103 176.750 449.713 L 174 453.322 174 455.610 L 174 457.898 177.250 460.328 L 180.500 462.757 185.500 463.635 L 190.500 464.512 190.784 466.506 L 191.067 468.500 184.534 475.357 L 178 482.214 178 483.607 L 178 485 179.876 485 L 181.752 485 185.371 480.750 L 188.990 476.500 191.521 473.500 L 194.052 470.500 194.616 468.322 L 195.181 466.144 194.557 464.180 L 193.933 462.215 191.217 461.166 L 188.500 460.117 183.500 458.779 L 178.500 457.441 178.197 455.344 L 177.893 453.247 183.697 448.631 L 189.500 444.015 193.191 444.007 L 196.882 444 197.541 442.933 L 198.200 441.867 197.850 441.523 L 197.500 441.178 194 440.581 L 190.500 439.983 185 443.043 M 209 443.938 L 206.500 444.825 203.750 445.432 L 201 446.038 200.978 449.769 L 200.956 453.500 198.859 466.500 L 196.762 479.500 196.295 486.344 L 195.828 493.189 198.089 495.594 L 200.349 498 201.552 498 L 202.755 498 203.996 496.505 L 205.237 495.010 203.618 492.540 L 202 490.070 202.060 484.785 L 202.119 479.500 203.079 474.500 L 204.039 469.500 205.156 460.737 L 206.273 451.973 210.763 449.987 L 215.254 448 216.127 448 L 217 448 217 449.540 L 217 451.080 215.097 454.790 L 213.195 458.500 210.597 460.924 L 208 463.349 208 465.174 L 208 467 210.356 467 L 212.713 467 217.042 461.056 L 221.371 455.111 222.185 455.615 L 223 456.118 223 458.868 L 223 461.618 224.323 463.427 L 225.646 465.236 229.700 464.551 L 233.755 463.866 236.507 460.993 L 239.260 458.119 238.684 456.620 L 238.109 455.121 234.305 456.983 L 230.500 458.844 230.169 457.380 L 229.837 455.916 232.419 453.885 L 235 451.855 235 449.427 L 235 447 232.452 447 L 229.904 447 227.616 449.660 L 225.328 452.320 224.160 451.599 L 222.993 450.877 223.506 448.689 L 224.020 446.500 223.102 445.090 L 222.184 443.680 216.842 443.365 L 211.500 443.050 209 443.938 M 253.959 455.104 L 249.418 460 247.521 460 L 245.623 460 247.811 457.961 L 250 455.922 250 454.430 L 250 452.937 248.449 452.342 L 246.898 451.747 244.449 454.048 L 242 456.349 242 459.474 L 242 462.600 243.200 463.800 L 244.400 465 247.600 465 L 250.799 465 255.900 459.419 L 261 453.839 261 453.042 L 261 452.245 259.750 451.227 L 258.500 450.209 253.959 455.104 M 395.910 477.424 L 395.391 477.942 381.446 479.565 L 367.500 481.188 359.500 482.054 L 351.500 482.920 338 483.980 L 324.500 485.041 314.500 486.137 L 304.500 487.233 298 488.065 L 291.500 488.898 279.500 489.970 L 267.500 491.042 263.365 492.007 L 259.229 492.971 248.365 493.939 L 237.500 494.907 230.242 495.951 L 222.985 496.995 218.242 498.097 L 213.500 499.198 204.500 500.561 L 195.500 501.924 185.500 503.968 L 175.500 506.013 171 506.945 L 166.500 507.878 162 509.073 L 157.500 510.269 149 512.688 L 140.500 515.108 132 517.677 L 123.500 520.246 113.493 524.165 L 103.486 528.084 99.590 530.292 L 95.694 532.500 95.597 533.500 L 95.500 534.500 99.107 534.802 L 102.714 535.104 108.293 532.552 L 113.872 530 115.018 530 L 116.165 530 123 527 L 129.835 524 132.195 524 L 134.555 524 136.527 522.628 L 138.500 521.256 142 520.570 L 145.500 519.884 147.500 519.086 L 149.500 518.289 156 516.585 L 162.500 514.881 167 514.086 L 171.500 513.290 174.121 512.219 L 176.742 511.148 186.121 509.559 L 195.500 507.971 200 506.975 L 204.500 505.979 215 504.504 L 225.500 503.030 234 501.446 L 242.500 499.862 257 498.477 L 271.500 497.092 276.500 496.082 L 281.500 495.072 298.189 493.461 L 314.879 491.850 324.689 490.900 L 334.500 489.950 345.500 489.054 L 356.500 488.158 371.340 486.516 L 386.180 484.874 394.699 483.496 L 403.217 482.117 403.823 481.510 L 404.429 480.904 403.364 479.202 L 402.298 477.500 399.363 477.203 L 396.428 476.905 395.910 477.424" stroke="none" fill="#383838" fill-rule="evenodd"/><path d="M 209.500 32.765 L 206.500 33.107 195.256 36.639 L 184.013 40.170 183.342 41.255 L 182.672 42.340 184.086 41.799 L 185.500 41.258 194.559 38.150 L 203.618 35.041 212.309 34.373 L 221 33.705 221 32.889 L 221 32.073 216.750 32.248 L 212.500 32.422 209.500 32.765 M 213.250 36.728 L 217 37.121 220.750 36.728 L 224.500 36.336 217 36.336 L 209.500 36.336 213.250 36.728 M 198.750 38.600 L 194 40.061 194 40.637 L 194 41.214 195.750 40.517 L 197.500 39.819 203.500 38.489 L 209.500 37.159 206.500 37.149 L 203.500 37.139 198.750 38.600 M 183.197 44.964 L 175 48.928 175 49.477 L 175 50.025 181.750 46.703 L 188.500 43.381 191 42.258 L 193.500 41.135 192.447 41.068 L 191.394 41 183.197 44.964 M 263 45.358 L 263 45.777 269.454 49.823 L 275.909 53.870 280.562 60.185 L 285.215 66.500 289.198 73.750 L 293.181 81 293.566 81 L 293.950 81 292.908 78.250 L 291.866 75.500 285.428 65.823 L 278.989 56.147 275.051 52.823 L 271.112 49.500 267.056 47.220 L 263 44.940 263 45.358 M 471.500 51.078 L 412.500 51.823 389.500 52.936 L 366.500 54.049 344 56.062 L 321.500 58.074 309.530 59.537 L 297.560 61 292.248 61 L 286.937 61 286.323 62.601 L 285.709 64.202 287.104 65.086 L 288.500 65.969 293 65.977 L 297.500 65.984 309.101 64.537 L 320.703 63.089 343.601 61.106 L 366.500 59.122 373.500 58.596 L 380.500 58.070 423.500 57.049 L 466.500 56.027 505.765 55.699 L 545.030 55.370 546.265 54.118 L 547.500 52.865 545.559 51.433 L 543.618 50 537.059 50.167 L 530.500 50.333 471.500 51.078 M 165.366 57.250 L 162.340 60.500 158.680 65.621 L 155.019 70.742 151.639 77.621 L 148.258 84.500 145.629 92.168 L 143 99.836 143.043 101.168 L 143.086 102.500 146.396 93 L 149.707 83.500 151.582 79.500 L 153.457 75.500 158.259 68.250 L 163.060 61.001 166.134 57.500 L 169.207 54 168.800 54 L 168.392 54 165.366 57.250 M 237.925 85.687 L 233.845 89.373 231.374 94.248 L 228.904 99.123 229.202 104.812 L 229.500 110.500 231 110.500 L 232.500 110.500 233 104 L 233.500 97.500 235.821 93.766 L 238.143 90.033 240.706 88.016 L 243.270 86 245.531 86 L 247.793 86 250.707 89.319 L 253.621 92.637 255.740 98.569 L 257.859 104.500 258.918 107.500 L 259.976 110.500 259.382 107 L 258.787 103.500 255.800 96.249 L 252.812 88.998 250.271 86.999 L 247.730 85 245.500 85 L 243.270 85 240.499 87.179 L 237.728 89.359 234.864 93.875 L 232 98.392 232 103.696 L 232 109 231 109 L 230 109 230.009 103.750 L 230.019 98.500 232.951 93.388 L 235.882 88.277 239.018 85.638 L 242.153 83 244.827 83.007 L 247.500 83.013 250.359 84.898 L 253.217 86.783 255.102 89.641 L 256.987 92.500 256.993 91.654 L 257 90.809 254.921 87.889 L 252.842 84.970 249.971 83.485 L 247.099 82 244.553 82 L 242.006 82 237.925 85.687 M 294.071 82.071 L 294 82.642 297.881 93.071 L 301.762 103.500 302.802 106.500 L 303.842 109.500 303.921 108.330 L 304 107.159 301.035 98.757 L 298.069 90.356 296.105 85.928 L 294.141 81.500 294.071 82.071 M 300.075 90.086 L 302.250 95.500 304.526 102.500 L 306.802 109.500 306.901 107.624 L 307 105.749 303.928 96.437 L 300.856 87.126 299.378 85.899 L 297.900 84.672 300.075 90.086 M 172.893 93.656 L 169.689 98.312 167.845 103.167 L 166 108.021 166.054 109.761 L 166.108 111.500 167.919 105.836 L 169.730 100.173 172.115 96.402 L 174.500 92.632 175.146 91.675 L 175.792 90.719 179.646 89.975 L 183.500 89.230 179.798 89.115 L 176.096 89 172.893 93.656 M 194.557 93.250 L 198.086 96.500 200.569 103.367 L 203.052 110.234 201.276 109.558 L 199.500 108.882 200.663 110.054 L 201.826 111.226 202.882 110.573 L 203.938 109.920 201.550 103.341 L 199.162 96.762 195.885 93.381 L 192.608 90 191.819 90 L 191.029 90 194.557 93.250 M 174.292 96.750 L 171.500 101.500 169.404 107.704 L 167.308 113.908 166.095 112.704 L 164.882 111.500 165.548 113.250 L 166.214 115 167.479 115 L 168.744 115 169.367 111.250 L 169.989 107.500 172.561 102 L 175.132 96.500 177.240 94.250 L 179.349 92 178.216 92 L 177.084 92 174.292 96.750 M 188.999 93.123 L 191.499 94.120 193.717 96.204 L 195.935 98.287 197.569 103.208 L 199.204 108.130 199.599 107.734 L 199.994 107.339 198.413 102.700 L 196.832 98.060 193.381 95.030 L 189.930 92 188.215 92.063 L 186.500 92.127 188.999 93.123 M 257.536 94.500 L 258.260 96.500 260.549 103.500 L 262.837 110.500 262.919 109.355 L 263 108.211 261.005 101.855 L 259.009 95.500 257.910 94 L 256.811 92.500 257.536 94.500 M 394 99.082 L 365.500 99.706 338.224 100.512 L 310.948 101.318 309.224 102.592 L 307.500 103.865 308.684 105.066 L 309.867 106.267 331.184 105.712 L 352.500 105.157 401 103.987 L 449.500 102.818 450.383 101.976 L 451.266 101.134 450.652 99.535 L 450.038 97.935 436.269 98.197 L 422.500 98.458 394 99.082 M 139.667 99.667 L 139 100.333 139 104.608 L 139 108.882 138.164 109.399 L 137.327 109.916 137.206 113.708 L 137.085 117.500 137.897 116 L 138.710 114.500 139.887 107.115 L 141.064 99.730 140.698 99.365 L 140.333 99 139.667 99.667 M 304.395 112.250 L 305.024 114.500 306.642 120.786 L 308.261 127.072 308.705 126.629 L 309.148 126.185 306.965 118.093 L 304.781 110 304.274 110 L 303.767 110 304.395 112.250 M 140.328 124.890 L 140.386 135.281 137.443 137.729 L 134.500 140.178 136.511 139.181 L 138.522 138.185 140.036 136.343 L 141.550 134.500 140.910 124.500 L 140.270 114.500 140.328 124.890 M 217.452 126.816 L 216.500 127.500 211.250 133.331 L 206 139.161 206 140.964 L 206 142.767 210.106 146.477 L 214.213 150.187 215.304 149.096 L 216.396 148.004 213.026 144.527 L 209.656 141.050 214.828 135.104 L 220 129.158 220 128.138 L 220 127.118 219.202 126.625 L 218.405 126.132 217.452 126.816 M 212.585 133.361 L 207 139.722 207 141.257 L 207 142.793 210.605 145.958 L 214.210 149.123 214.787 148.547 L 215.363 147.970 212.025 144.526 L 208.687 141.082 210.065 139.291 L 211.443 137.500 215.222 133.272 L 219 129.045 219 128.022 L 219 127 218.585 127 L 218.169 127 212.585 133.361 M 335.471 138.411 L 333.500 139.865 334.800 141.183 L 336.100 142.500 443.800 142.779 L 551.500 143.058 553.750 142.510 L 556 141.962 556 139.981 L 556 138 448.082 138 L 340.164 138 338.803 137.478 L 337.443 136.956 335.471 138.411 M 125.146 141.028 L 122.792 142.989 122.009 142.506 L 121.227 142.022 119.991 143.511 L 118.755 145 119.417 145 L 120.080 145 123.972 143.014 L 127.864 141.029 128.491 140.014 L 129.118 139 128.309 139.033 L 127.500 139.067 125.146 141.028 M 123.750 145.061 L 114 150.019 114 150.519 L 114 151.018 124 146 L 134 140.982 134 140.491 L 134 140 133.750 140.051 L 133.500 140.102 123.750 145.061 M 92.500 161.583 L 89.500 164.094 84 163.446 L 78.500 162.798 76.811 161.896 L 75.121 160.995 74.558 161.906 L 73.994 162.818 80.950 163.992 L 87.906 165.165 89.795 164.565 L 91.684 163.966 94.016 161.483 L 96.349 159 95.924 159.036 L 95.500 159.072 92.500 161.583 M 35.461 163.063 L 34.804 164.126 36.212 165.813 L 37.620 167.500 47.396 178.750 L 57.172 190 57.987 190 L 58.802 190 63.396 194.660 L 67.990 199.320 72.092 198.090 L 76.195 196.861 75.797 196.463 L 75.398 196.065 71.636 197.220 L 67.874 198.374 65.687 195.720 L 63.500 193.066 59.527 189.966 L 55.555 186.865 45.789 175.682 L 36.024 164.500 36.012 163.789 L 36 163.078 44.750 162.745 L 53.500 162.411 44.809 162.206 L 36.118 162 35.461 163.063 M 92 166.015 L 87.500 168.993 81.778 172.746 L 76.055 176.500 76.028 177.250 L 76 178 79.750 177.882 L 83.500 177.763 80.514 177.124 L 77.528 176.485 85.014 171.762 L 92.500 167.039 95 165.033 L 97.500 163.027 97 163.032 L 96.500 163.036 92 166.015 M 229.895 167.501 L 228.762 172.002 225.346 175.001 L 221.930 178 217.916 178 L 213.901 178 211.051 176.526 L 208.201 175.052 204.591 170.835 L 200.982 166.618 199.755 167.845 L 198.529 169.071 200.032 171.748 L 201.534 174.424 205.845 177.712 L 210.155 181 211.828 180.937 L 213.500 180.873 211 179.885 L 208.500 178.896 204.250 174.740 L 200 170.584 200 169.292 L 200 168 200.750 168.039 L 201.500 168.077 203.500 171.257 L 205.500 174.437 209.500 176.702 L 213.500 178.967 217.382 178.984 L 221.264 179 224.526 176.984 L 227.787 174.968 229.394 171.583 L 231 168.198 231 166.658 L 231 165.118 231.929 164.544 L 232.857 163.970 233.292 166.235 L 233.728 168.500 233.864 165.750 L 234 163 232.514 163 L 231.029 163 229.895 167.501 M 122.500 165.560 L 118.500 166.966 121 166.482 L 123.500 165.999 127.500 165.419 L 131.500 164.838 130 165.995 L 128.500 167.152 129.938 166.764 L 131.375 166.375 131.771 165.188 L 132.167 164 129.333 164.077 L 126.500 164.154 122.500 165.560 M 316.100 166.583 L 316.199 169.500 317.049 172 L 317.899 174.500 317.321 169.500 L 316.744 164.500 316.372 164.083 L 316 163.667 316.100 166.583 M 31.667 166.667 L 31 167.333 31.015 168.417 L 31.031 169.500 32.048 168 L 33.064 166.500 38.726 173 L 44.388 179.500 55.287 190.324 L 66.185 201.148 66.641 200.692 L 67.096 200.237 59.922 193.868 L 52.747 187.500 43.287 176.750 L 33.828 166 33.081 166 L 32.333 166 31.667 166.667 M 82 166.902 L 84.500 167.605 80.360 170.552 L 76.221 173.500 74.360 174.770 L 72.500 176.041 75 174.875 L 77.500 173.709 81.718 170.708 L 85.937 167.706 85.409 166.853 L 84.882 166 82.191 166.100 L 79.500 166.199 82 166.902 M 110.500 169 L 105.500 170.845 107 170.845 L 108.500 170.845 113.500 169 L 118.500 167.155 117 167.155 L 115.500 167.155 110.500 169 M 230.740 172.955 L 228.981 176.695 225.530 178.554 L 222.079 180.412 222.447 180.780 L 222.814 181.147 225.811 179.598 L 228.807 178.048 230.986 174.522 L 233.165 170.996 232.833 170.105 L 232.500 169.214 230.740 172.955 M 26.736 175.250 L 26.217 180.500 27.078 182 L 27.939 183.500 27.981 180.500 L 28.022 177.500 28.642 173.750 L 29.262 170 28.258 170 L 27.254 170 26.736 175.250 M 97.500 173 L 92.500 174.845 94 174.845 L 95.500 174.845 100.500 173 L 105.500 171.155 104 171.155 L 102.500 171.155 97.500 173 M 94 176.562 L 86.500 178.878 86 179.009 L 85.500 179.141 87.500 180 L 89.500 180.859 93 180.788 L 96.500 180.716 92.500 180.096 L 88.500 179.476 96.500 176.842 L 104.500 174.208 103 174.227 L 101.500 174.246 94 176.562 M 63.446 178.087 L 62.774 179.174 63.751 180.151 L 64.728 181.128 69.114 180.739 L 73.500 180.349 68.750 180.175 L 64 180 64 179.066 L 64 178.133 66.750 177.716 L 69.500 177.300 66.809 177.150 L 64.118 177 63.446 178.087 M 122 181.973 L 146.500 182.500 147.082 188.500 L 147.664 194.500 147.832 188.950 L 148 183.400 146.800 182.200 L 145.600 181 121.550 181.223 L 97.500 181.446 122 181.973 M 95.350 183.734 L 99.201 184.133 97.350 185.583 L 95.500 187.033 98.219 185.870 L 100.937 184.708 100.410 183.854 L 99.882 183 95.691 183.168 L 91.500 183.336 95.350 183.734 M 26.116 186.060 L 26 188.619 23.910 196.886 L 21.819 205.152 22.320 205.653 L 22.820 206.154 25.006 196.695 L 27.192 187.236 26.712 185.368 L 26.232 183.500 26.116 186.060 M 99.750 187.064 L 94 190.032 94 190.530 L 94 191.029 99.971 188.014 L 105.943 185 114.378 185 L 122.813 185 122.378 187.250 L 121.944 189.500 122.940 187.250 L 123.936 185 124.579 185 L 125.223 185 124.548 188.598 L 123.872 192.197 124.936 191.539 L 126 190.882 126 187.882 L 126 184.882 126.931 185.457 L 127.862 186.033 128.490 185.016 L 129.118 184 117.309 184.048 L 105.500 184.096 99.750 187.064 M 138 184.975 L 138 185.950 141.158 185.318 L 144.315 184.687 143.751 186.843 L 143.187 189 144.094 189 L 145 189 145 186.500 L 145 184 141.500 184 L 138 184 138 184.975 M 320.652 188.964 L 321.253 192.428 322.556 195.964 L 323.859 199.500 323.916 198.500 L 323.973 197.500 322.011 191.500 L 320.050 185.500 320.652 188.964 M 88 190.500 L 81.500 193.903 82.279 193.951 L 83.057 194 89.029 190.986 L 95 187.971 95 187.486 L 95 187 94.750 187.049 L 94.500 187.097 88 190.500 M 335.250 192.662 L 334 193.167 334 195.083 L 334 197 393.500 197 L 453 197 453 196.057 L 453 195.113 450.777 193.557 L 448.555 192 392.527 192.079 L 336.500 192.158 335.250 192.662 M 118.714 198.214 L 117.059 203.392 117.427 203.761 L 117.796 204.130 119.500 199 L 121.204 193.870 120.787 193.454 L 120.370 193.037 118.714 198.214 M 326 197.292 L 326 198.702 328.539 203.478 L 331.078 208.253 336.598 215.587 L 342.118 222.922 345.185 225.502 L 348.251 228.082 348.820 227.514 L 349.388 226.945 343.407 220.723 L 337.427 214.500 334.368 210.500 L 331.309 206.500 329.654 203.300 L 328 200.099 328 198.609 L 328 197.118 327 196.500 L 326 195.882 326 197.292 M 147.100 202.083 L 147.199 205.500 148.034 208 L 148.868 210.500 148.298 205 L 147.729 199.500 147.365 199.083 L 147 198.667 147.100 202.083 M 324.018 200.559 L 324 201.618 327.575 207.559 L 331.149 213.500 335.011 218.500 L 338.872 223.500 348.186 232.059 L 357.500 240.618 363.250 244.841 L 369 249.063 369 248.590 L 369 248.117 362.750 243.375 L 356.500 238.633 348 230.614 L 339.500 222.595 334.581 216.148 L 329.662 209.701 326.849 204.600 L 324.036 199.500 324.018 200.559 M 149.073 211.572 L 149 212.644 150.612 217.376 L 152.225 222.108 152.609 221.724 L 152.994 221.340 151.070 215.920 L 149.146 210.500 149.073 211.572 M 451.477 220.037 L 450.828 221.088 452.042 222.551 L 453.256 224.013 523.378 223.757 L 593.500 223.500 593.500 221.500 L 593.500 219.500 522.813 219.243 L 452.126 218.987 451.477 220.037 M 153.011 223.516 L 153 224.532 156.905 231.214 L 160.810 237.897 166.429 245.363 L 172.049 252.830 177.345 258.211 L 182.642 263.593 196.571 275.390 L 210.500 287.187 218.500 291.234 L 226.500 295.282 234.393 298.664 L 242.287 302.047 242.655 301.678 L 243.023 301.310 236.262 298.486 L 229.500 295.662 220 290.916 L 210.500 286.170 200 277.380 L 189.500 268.591 179.481 258.545 L 169.461 248.500 164.586 241.500 L 159.710 234.500 156.367 228.500 L 153.023 222.500 153.011 223.516 M 52 235 L 53.500 235.969 57.500 235.866 L 61.500 235.763 58.500 235 L 55.500 234.237 53 234.134 L 50.500 234.031 52 235 M 159.058 240.500 L 159.044 241.500 160.954 243.985 L 162.863 246.470 163.387 245.946 L 163.911 245.422 161.492 242.461 L 159.072 239.500 159.058 240.500 M 385.424 249.877 L 385.966 250.754 390.605 251.922 L 395.243 253.090 395.720 252.613 L 396.197 252.136 390.917 250.568 L 385.637 249 385.259 249 L 384.882 249 385.424 249.877 M 380 251.325 L 382.500 252.777 390.339 254.966 L 398.179 257.155 398.578 256.756 L 398.977 256.357 390.238 253.818 L 381.500 251.279 379.500 250.576 L 377.500 249.873 380 251.325 M 508.750 254.689 L 507 255.147 507 257.073 L 507 259 556 259 L 605 259 605 257.535 L 605 256.070 603.066 255.035 L 601.131 254 555.816 254.116 L 510.500 254.232 508.750 254.689 M 413.500 257.019 L 422.500 258.925 424.917 258.962 L 427.333 259 426.615 258.282 L 425.897 257.564 419.699 256.745 L 413.500 255.926 409 255.519 L 404.500 255.113 413.500 257.019 M 416 260.573 L 422.500 261.907 425.500 261.846 L 428.500 261.785 421 260.468 L 413.500 259.152 411.500 259.195 L 409.500 259.238 416 260.573 M 505.371 263.778 L 504.261 265.555 499.133 266.869 L 494.005 268.184 493.509 268.985 L 493.014 269.786 499.222 267.854 L 505.430 265.921 506.200 264.711 L 506.969 263.500 506.985 262.750 L 507 262 506.741 262 L 506.481 262 505.371 263.778 M 467 263.752 L 494.500 264.038 488.500 267.835 L 482.500 271.632 470.500 278.511 L 458.500 285.390 453 288.949 L 447.500 292.508 440.500 297.423 L 433.500 302.338 422.500 310.574 L 411.500 318.809 407.515 320.904 L 403.530 323 393.965 323 L 384.400 323 383.423 323.977 L 382.447 324.953 363.973 325.251 L 345.500 325.548 364.372 325.774 L 383.245 326 382 327.500 L 380.755 329 381.878 329 L 383 329 383 327.950 L 383 326.901 389.250 327.462 L 395.500 328.024 393.500 327.082 L 391.500 326.141 387.191 326.070 L 382.882 326 383.500 325 L 384.118 324 393.699 324 L 403.281 324 407.552 321.867 L 411.824 319.734 421.662 312.271 L 431.500 304.809 443.699 296.372 L 455.898 287.935 467.765 281.095 L 479.633 274.254 488.967 268.627 L 498.301 263 468.900 263.233 L 439.500 263.466 467 263.752 M 190 274.042 L 195.500 279.236 203 285.209 L 210.500 291.182 217.500 294.478 L 224.500 297.774 233.500 301.858 L 242.500 305.942 253.675 309.550 L 264.850 313.159 267.175 312.802 L 269.500 312.446 262 310.579 L 254.500 308.712 247 305.942 L 239.500 303.173 229.001 298.485 L 218.502 293.797 212.001 289.865 L 205.500 285.933 198 279.412 L 190.500 272.891 187.500 270.870 L 184.500 268.848 190 274.042 M 455.155 290.978 L 449 294.956 449 295.541 L 449 296.125 453.978 293.415 L 458.956 290.706 460.633 288.853 L 462.310 287 461.810 287 L 461.310 287 455.155 290.978 M 500.667 296.667 L 500 297.333 500 299.167 L 500 301 562 301 L 624 301 624 300.071 L 624 299.143 622.429 297.571 L 620.857 296 561.095 296 L 501.333 296 500.667 296.667 M 257.500 306.999 L 263.500 308.947 266.500 309.449 L 269.500 309.950 263.500 308.001 L 257.500 306.053 254.500 305.551 L 251.500 305.050 257.500 306.999 M 279.500 313.078 L 285.500 314.974 289 315.495 L 292.500 316.016 284 313.524 L 275.500 311.031 274.500 311.107 L 273.500 311.182 279.500 313.078 M 272.865 314.469 L 276.230 316 277.865 315.970 L 279.500 315.939 278 315.084 L 276.500 314.230 273 313.584 L 269.500 312.938 272.865 314.469 M 295.500 317 L 298.500 317.763 301 317.763 L 303.500 317.763 300.500 317 L 297.500 316.237 295 316.237 L 292.500 316.237 295.500 317 M 307.500 319.057 L 311.500 319.885 313.500 319.824 L 315.500 319.763 312.500 319 L 309.500 318.237 306.500 318.233 L 303.500 318.230 307.500 319.057 M 293.684 320.007 L 295.867 320.886 304.155 322.021 L 312.444 323.156 313.159 323.599 L 313.875 324.041 320.188 324.481 L 326.500 324.920 325.500 324.500 L 324.500 324.079 310.040 321.540 L 295.581 319 293.540 319.063 L 291.500 319.127 293.684 320.007 M 334.500 323.949 L 337.500 324.763 340.917 324.882 L 344.333 325 343.917 324.625 L 343.500 324.250 337.500 323.692 L 331.500 323.135 334.500 323.949 M 405.105 325.085 L 402.710 326.043 403.237 326.570 L 403.764 327.097 406.382 326.440 L 409 325.783 409 324.892 L 409 324 408.250 324.063 L 407.500 324.127 405.105 325.085 M 330 326.155 L 333.500 327.106 337.500 328.009 L 341.500 328.913 349 328.820 L 356.500 328.727 348.125 327.920 L 339.750 327.112 334.826 326.056 L 329.902 325 328.201 325.102 L 326.500 325.205 330 326.155" stroke="none" fill="#787878" fill-rule="evenodd"/><path d="M 79.086 160.294 L 76.671 161.452 82.586 162.654 L 88.500 163.856 90.963 162.266 L 93.425 160.675 91.463 159.908 L 89.500 159.141 85.500 159.138 L 81.500 159.135 79.086 160.294 M 37 163.698 L 37 164.687 47.608 176.844 L 58.216 189 58.949 189 L 59.682 189 64.362 193.421 L 69.043 197.842 75.271 195.342 L 81.500 192.842 88.750 189.244 L 96 185.645 96 184.823 L 96 184 93.049 184 L 90.098 184 85.299 183.035 L 80.500 182.071 72.132 181.618 L 63.765 181.165 62.770 180.170 L 61.774 179.174 62.376 178.200 L 62.978 177.227 66.450 176.575 L 69.922 175.924 75.629 172.712 L 81.336 169.500 81.704 168.391 L 82.072 167.283 69.286 165.551 L 56.500 163.819 46.750 163.264 L 37 162.709 37 163.698 M 32.043 169.872 L 32 173.243 30.427 183.834 L 28.855 194.425 25.805 207.463 L 22.755 220.500 22.301 223 L 21.848 225.500 31.674 227.307 L 41.500 229.114 57.500 231.520 L 73.500 233.925 83.389 235.969 L 93.278 238.012 100.027 238.639 L 106.777 239.266 107.912 233.973 L 109.048 228.679 113.013 215.090 L 116.978 201.500 119.394 194.002 L 121.811 186.503 121.346 185.752 L 120.882 185 114 185 L 107.119 185 96.778 190.424 L 86.436 195.847 78.692 198.924 L 70.948 202 68.712 202 L 66.476 202 55.907 191.750 L 45.338 181.500 38.712 174 L 32.086 166.500 32.043 169.872 M 24.629 185.678 L 24.068 188.500 23.402 192.500 L 22.735 196.500 23.275 196 L 23.815 195.500 24.905 189.581 L 25.995 183.661 25.593 183.259 L 25.190 182.857 24.629 185.678" stroke="none" fill="#ffffff" fill-rule="evenodd"/></svg>